<svg width="85" height="34" viewBox="0 0 85 34" fill="none" xmlns="http://www.w3.org/2000/svg">
<path d="M76.4108 20.7628C75.9142 21.9705 75.1875 23.0388 74.231 23.9678C73.2238 24.9525 72.1063 25.6957 70.8783 26.1973C69.6504 26.7036 68.3627 26.9545 67.0061 26.9545C66.7669 26.9545 66.5232 26.9452 66.284 26.9312C65.7414 25.1337 65.0607 22.6626 64.886 21.0647L65.1343 19.2671C65.1941 19.3229 65.2585 19.374 65.3275 19.4251C66.5462 20.3587 68.2294 20.224 69.2871 19.1789C70.2115 20.0661 71.605 20.015 72.7777 19.8199C74.0194 19.6108 75.2657 19.0999 76.0935 18.1059C76.4568 17.6693 76.7971 17.2234 77.0409 16.7031C77.0547 16.6753 77.0639 16.6474 77.0777 16.6195C77.1007 16.5963 77.1237 16.587 77.1513 16.5824C77.1513 16.6846 77.1559 16.7867 77.1559 16.8843C77.1559 18.2592 76.9075 19.5505 76.4108 20.7581M62.1266 20.7767C61.7725 21.9983 61.6897 23.3639 62.2094 24.553C62.4393 25.0733 62.6877 25.5749 63.0464 26.0208C63.0648 26.0441 63.0832 26.0673 63.1016 26.0905C63.1108 26.1137 63.1108 26.1416 63.1016 26.1695C61.9013 25.6678 60.8297 24.9432 59.8915 24.0049C58.9258 23.0342 58.1899 21.9472 57.6841 20.7396C57.1782 19.5365 56.9298 18.2499 56.9298 16.8889C56.9298 15.528 57.1828 14.2367 57.6933 13.0244C57.8864 12.5692 58.1072 12.1325 58.3601 11.7145C60.2089 11.9932 62.8624 12.4577 64.4261 13.0151L65.9161 14.0184C65.8425 14.0509 65.7643 14.0834 65.6908 14.1252C64.3341 14.8359 63.727 16.4337 64.1961 17.8597C63.0096 18.3242 62.4485 19.6201 62.1174 20.7767M69.1216 17.1165C69.0204 18.2267 68.05 19.0442 66.9555 18.9373C65.8609 18.8351 65.0607 17.8504 65.1619 16.7403C65.2631 15.6302 66.2334 14.8173 67.328 14.9195C68.4225 15.0263 69.2227 16.011 69.1216 17.1165ZM63.1522 7.65483C64.3801 7.15782 65.6632 6.90699 67.0061 6.90699C68.3489 6.90699 69.6872 7.15782 70.9105 7.65483C72.1292 8.15183 73.2238 8.88573 74.1942 9.85652C74.9576 10.609 75.5784 11.4451 76.0521 12.3601C74.8242 13.7815 73.0582 15.7277 71.7843 16.7403L70.1471 17.4695C70.1609 17.3859 70.1701 17.307 70.1793 17.2234C70.3219 15.6812 69.3239 14.2971 67.889 13.9301C68.1466 12.6667 67.374 11.4869 66.5922 10.5811C65.769 9.61963 64.6836 8.81141 63.4143 8.61633C62.8578 8.52807 62.306 8.47233 61.7449 8.53272C61.7127 8.53736 61.6851 8.54201 61.6575 8.54201C61.6161 8.53272 61.5839 8.50485 61.5701 8.46769C62.0668 8.15183 62.5957 7.88243 63.1522 7.65483ZM82.8447 10.4557C81.9939 8.42124 80.7522 6.59579 79.115 4.97935C77.4778 3.3397 75.629 2.10415 73.5687 1.26342C71.5084 0.422688 69.3101 0 66.9785 0C64.6468 0 62.5405 0.422688 60.471 1.26342C58.4015 2.10415 56.5665 3.31183 54.9753 4.88181C53.3611 6.47502 52.124 8.29583 51.264 10.3442C50.404 12.3926 49.9717 14.5665 49.9717 16.8703C49.9717 19.1742 50.3994 21.3388 51.2456 23.3779C52.0964 25.417 53.3381 27.2517 54.9753 28.8914C56.5895 30.5078 58.4291 31.7434 60.5032 32.5934C62.5727 33.4481 64.7342 33.8708 66.9785 33.8708C69.2227 33.8708 71.444 33.4434 73.5181 32.5934C75.5876 31.7434 77.4732 30.4846 79.1748 28.8264C80.789 27.2564 82.0123 25.4495 82.8539 23.415C83.6909 21.3806 84.114 19.1975 84.114 16.875C84.114 14.5525 83.6863 12.5041 82.8401 10.465" fill="#233E84"/>
<path d="M24.2593 24.1111C23.2521 25.0959 22.1346 25.839 20.9113 26.3407C19.6834 26.847 18.3957 27.0978 17.039 27.0978C15.6823 27.0978 14.4314 26.847 13.2035 26.3407C11.9756 25.8344 10.8856 25.1051 9.92906 24.1483C8.95869 23.1775 8.22286 22.0906 7.72158 20.8876C7.2157 19.6799 6.96736 18.3979 6.96736 17.0369C6.96736 15.676 7.2203 14.3847 7.73078 13.1724C8.24126 11.96 8.97248 10.8824 9.92906 9.93949C10.8718 9.0105 11.9572 8.29519 13.1805 7.79818C14.4084 7.30117 15.6915 7.05035 17.0344 7.05035C18.3773 7.05035 19.7155 7.30117 20.9389 7.79818C22.1576 8.29519 23.2521 9.02908 24.2225 9.99987C25.1929 10.9567 25.9287 12.039 26.43 13.242C26.9358 14.4497 27.1842 15.7131 27.1842 17.0369C27.1842 18.3607 26.9358 19.7031 26.4392 20.9108C25.9425 22.1185 25.2159 23.1868 24.2593 24.1158M26.7703 0.11084V3.13468C25.7769 2.44259 24.7192 1.86197 23.597 1.40213C21.5367 0.561397 19.3384 0.138709 17.0068 0.138709C14.6751 0.138709 12.5688 0.561397 10.4993 1.40213C8.42981 2.24286 6.59484 3.45054 5.00362 5.02052C3.3894 6.61373 2.15229 8.43453 1.2923 10.4829C0.432298 12.5314 0 14.7052 0 17.0044C0 19.3036 0.4231 21.4775 1.2739 23.5119C2.1247 25.5511 3.36641 27.3858 5.00362 29.0208C6.61784 30.6372 8.45741 31.8728 10.5315 32.7228C12.601 33.5728 14.7625 34.0002 17.0068 34.0002C19.2511 34.0002 21.4769 33.5728 23.5464 32.7228C24.6778 32.2583 25.7493 31.6684 26.7703 30.9624V33.9862H33.986V0.11084H26.7703Z" fill="#233E84"/>
<path d="M46.154 0.134766H39.4258V33.9962H46.154V0.134766Z" fill="#233E84"/>
</svg>
