<svg width="175" height="34" viewBox="0 0 175 34" fill="none" xmlns="http://www.w3.org/2000/svg">
<path d="M2.74618 26.2495L0 23.8145L7.39479 16.5993L0 9.38421L2.74618 6.94922L12.0402 16.5993L2.74618 26.2495Z" fill="black"/>
<path d="M48.4714 17C48.4714 27.5356 41.2113 34 31.8275 34C22.4436 34 15.1387 27.5356 15.1387 17C15.1387 6.46443 22.3987 0 31.8275 0C41.2562 0 48.4714 6.46443 48.4714 17ZM19.2547 17C19.2547 25.4118 24.7439 30.3684 31.8275 30.3684C38.9111 30.3684 44.3553 25.4118 44.3553 17C44.3553 8.58822 38.9111 3.62842 31.8275 3.62842C24.7439 3.62842 19.2547 8.54331 19.2547 16.9968V17Z" fill="black"/>
<path d="M76.8479 9.2074L72.7319 9.47368C72.5105 5.75543 69.6777 3.5418 65.5168 3.5418C60.7815 3.5418 58.3465 6.0217 58.3465 9.25231C58.3465 13.1919 61.4456 14.0325 66.4022 15.1393C73.5307 16.8203 77.8232 18.6362 77.8232 24.4365C77.8232 31.0774 72.5105 33.9968 66.0493 33.9968C59.1005 33.9968 53.7878 30.5448 53.4766 24.3467L57.5477 24.1253C57.8589 28.02 61.4424 30.455 66.0461 30.455C70.6498 30.455 73.704 28.7739 73.704 24.7445C73.704 20.715 70.4284 19.9194 64.9393 18.5912C59.0074 17.1732 54.2273 15.6686 54.2273 9.38385C54.2273 4.33742 57.9006 0 65.4269 0C71.9331 0 76.5817 3.36535 76.8479 9.2074Z" fill="black"/>
<path d="M115.449 33.5542V9.60536L103.142 33.3329H100.441L88.0897 9.60536V33.5542H84.0186V0.442871H87.5603L101.769 27.4459L115.981 0.442871H119.478V33.5542H115.449Z" fill="black"/>
<path d="M159.271 17C159.271 27.5356 152.011 34 142.627 34C133.243 34 125.938 27.5356 125.938 17C125.938 6.46443 133.199 0 142.627 0C152.056 0 159.271 6.46443 159.271 17ZM130.055 17C130.055 25.4118 135.544 30.3684 142.627 30.3684C149.711 30.3684 155.155 25.4118 155.155 17C155.155 8.58822 149.711 3.63163 142.627 3.63163C135.544 3.63163 130.055 8.54652 130.055 17Z" fill="black"/>
<path d="M167.109 16.5993L174.5 23.8145L171.712 26.2495L162.46 16.5993L171.712 6.94922L174.5 9.38421L167.109 16.5993Z" fill="black"/>
</svg>
