<svg width="148" height="34" viewBox="0 0 148 34" fill="none" xmlns="http://www.w3.org/2000/svg">
<path d="M22.4841 10.8257L16.1395 11.1464C16.0983 8.62177 14.332 6.97707 11.4829 6.97707C8.63381 6.97707 7.02809 8.46141 7.02809 10.5872C7.02809 12.8733 8.75321 13.5147 12.891 14.4769C19.0339 16.0394 23.0894 17.9636 23.0894 23.2966C23.0894 29.6698 18.0705 32.4781 12.047 32.4781C5.10123 32.474 0.0823444 29.0654 0 22.8525L6.30346 22.5318C6.42286 25.2579 8.79438 27.1041 12.0429 27.1041C14.8138 27.1041 16.7818 26.1008 16.7818 23.6543C16.7818 21.3682 14.612 20.5294 10.5977 19.5261C5.17946 18.161 0.683458 16.5986 0.683458 10.7845C0.683458 5.85457 4.17486 1.60303 11.3635 1.60303C17.8646 1.60303 22.3236 5.05278 22.4841 10.8216" fill="black"/>
<path d="M43.84 7.49514V32.034H37.6559V7.49514H27.5811V2.04297H53.8736V7.49514H43.84Z" fill="black"/>
<path d="M85.0696 5.93324C87.7211 8.61821 89.3268 12.4298 89.3268 17.0391C89.3268 26.4591 82.7022 32.4745 73.7514 32.4745C70.9023 32.4745 68.2919 31.8742 66.0439 30.7517L63.553 34L59.7405 31.1136L62.1902 27.9064C59.6211 25.2625 58.1348 21.5332 58.1348 17.0391C58.1348 7.61906 64.7182 1.60358 73.7514 1.60358C76.4811 1.60358 79.0091 2.16278 81.1788 3.20716L83.6245 0L87.437 2.84533L85.0696 5.93324ZM65.9987 22.9723L77.601 7.81642C76.477 7.33535 75.1512 7.09276 73.7473 7.09276C68.2467 7.09276 64.4341 10.8221 64.4341 17.035C64.4341 19.4033 64.9982 21.4057 65.9987 22.9682M82.9822 17.0391C82.9822 14.5556 82.3811 12.4668 81.2982 10.8673L69.5765 26.1425C70.8199 26.7017 72.2239 26.9854 73.7514 26.9854C79.1696 26.9854 82.9863 23.2149 82.9863 17.0432" fill="black"/>
<path d="M115.381 32.034L102.214 13.4695V32.034H95.9893V2.04297H101.251L114.459 20.6486V2.04297H120.639V32.034H115.381Z" fill="black"/>
<path d="M134.892 7.49514V13.9917H146.214V19.3246H134.892V26.5407H147.981V32.034H128.671V2.04297H147.939V7.49514H134.892Z" fill="black"/>
</svg>
