<?xml version="1.0" encoding="UTF-8"?>
<svg data-bbox="0 0 3351.52 724.13" viewBox="0 0 3351.52 724.12" xmlns="http://www.w3.org/2000/svg" data-type="color">
    <g>
        <path d="M1247.52 724.12v-473h74v29l24.32-13.18c126.07-56.48 269.19 45.47 244.2 184.2-19.96 110.82-146.53 169.16-246.88 120.84-7.4-3.56-13.97-8.84-21.64-11.85v164h-74.01Zm168.79-403.7c-79.76 2.12-126.62 90.41-80.18 156.6 41.94 59.78 134.32 56.21 171.81-5.97 41.86-69.41-12.99-152.72-91.63-150.63" fill="#616465" data-color="1"/>
        <path d="M336 0c23.65 12.56 44.58 52.64 46.87 78.63 5.49 62.39-80.45 66.26-94.02 16.02-5.24-19.41 7.59-46.1 16.98-63.32C312.08 19.86 320.29 6.22 332 0z" fill="#038770" data-color="2"/>
        <path d="M1 213H0v-26h1c-.4 8.07-.4 17.93 0 26" fill="#616465" data-color="1"/>
        <path d="M1786.52 65.12v201c35.52-14.81 77.31-17.99 115.36-12.86 87.86 11.86 114.35 72.73 117.68 154.32l-.04 181.54h-72l.04-186.54c-2.96-63.41-31.47-83.33-93.59-79.51-45.67 2.81-63.96 30.1-66.49 73.51l.04 192.54h-72l1-524z" fill="#616465" data-color="1"/>
        <path d="M3278.52 280.12v-29h73v338h-73v-30c-84.56 57.81-203.43 29.42-251.52-60.98-77.61-145.89 79.6-298.04 227.2-231.2 8.46 3.83 16.01 9.14 24.32 13.18m-102.21 40.3c-46.62 1.44-89.63 36.5-96.65 83.34-13.1 87.36 83.12 146.89 156.78 99.78 87.11-55.71 42.6-186.29-60.13-183.12" fill="#616465" data-color="1"/>
        <path d="M1123.52 444.12h-263c4.33 37.92 41.06 66.11 76.79 72.71 33.66 6.21 65.07.25 94.12-17.29 3.02-1.83 10.99-8.69 13.53-8.47l52.53 44.55c-83.66 86.52-259.77 66.6-300.26-54.71-47.81-143.22 82.17-266.82 222.82-219.82 74.44 24.87 121.31 105.85 103.46 183.04Zm-71-62c-22.91-92.23-164.02-86.81-190 0z" fill="#616465" data-color="1"/>
        <path d="M384 394.99c.56-3.15 4.67-18.19 6.63-18.86 59.61-3.97 129.95-12.78 178.26-50.74 32.33-25.4 49.21-70.86 38.39-111.18-19.16-71.39-106.33-66.54-154.76-28.19-48.4 38.33-70.27 116.86-88.79 174.21-17.3 53.55-27.98 109.05-46.98 162.02-22.76 63.45-48.04 125.86-123.52 136.48C81.5 674.44 62.7 560.06 124.49 489.99c39.91-45.27 94.54-67.37 154.51-69.98.5.45-4.3 11.97-5 12.49-1.32.97-13.43 3.47-16.51 4.49-43.73 14.42-94.43 51.84-110.23 96.77-15.6 44.38 12.06 81.15 59.5 67.5 62.64-18.02 86.62-115.82 103.51-170.49 40.53-131.26 63.96-308.55 228.52-335.48 109.96-17.99 158.06 88.07 116.39 179.39-23.27 50.99-68.11 87.63-121.41 103.59-47.84 14.33-100.01 17.27-149.76 16.73Z" fill="#038770" data-color="2"/>
        <path d="M2298.31 251.42c85.9-5.25 166.44 53.05 181.73 138.68 28.96 162.13-169.75 262.92-288.54 153.54-111.37-102.56-42.65-283.09 106.81-292.22m8 69c-78.26 1.86-126.73 88.97-81.61 155.02 34.02 49.8 104.88 59.54 151.29 20.66 74.22-62.2 25.63-177.94-69.68-175.67Z" fill="#616465" data-color="1"/>
        <path d="m2895.51 309.11-58.48 38.69c-65.47-61.19-178.84-14.2-173.5 77.82 5.08 87.48 114.25 125.46 175.47 64.74l54.06 41.75.52 1.5c-57.59 64.13-157.82 73.94-228.38 24.33-75.79-53.29-96.48-157.37-42.5-234.13 57.72-82.08 176.9-97.39 254.29-33.66 4.59 3.78 14.42 11.93 17.55 16.45.58.84 1.37 1.05.97 2.5Z" fill="#616465" data-color="1"/>
        <path d="M1 187c3.88-78.78 70.02-105.02 140.19-89.69 96.82 21.16 152.42 123 173.65 212.22l-12.82 40.46c-12.13-44.98-30-86.02-58.62-122.89-28.34-36.5-58.86-66.26-107.85-69.15-80.67-4.75-92.67 73.24-55.17 129.17 32.42 48.36 100.6 72.29 155.61 82.39 19.09 3.51 38.59 6.03 58.02 6.48l-5.88 18.4c-44.26 1.45-91.25-4.39-133.88-17.14C79.46 354.9 5.14 297.11 1 213c-.4-8.07-.4-17.93 0-26" fill="#038770" data-color="2"/>
        <path d="m367.01 461.01 7.27 32.21c12.82 49.04 43.73 108.45 101.23 111.77 41.79 2.41 58.98-36.58 49.77-72.77-16.64-65.41-90.65-88.06-149.29-99.22-.47-.46 2.6-12.46 3.11-12.89 3.66-3.18 54.79 5.58 62.91 7.39 51.31 11.4 98.66 38.08 124.79 85.21 41.45 74.8-6.45 164.88-97.62 144.62-65.62-14.59-109.57-77.88-115.2-142.78l13.03-53.53Z" fill="#038770" data-color="2"/>
    </g>
</svg>
