<?xml version="1.0" encoding="UTF-8"?>
<svg id="Layer_1" xmlns="http://www.w3.org/2000/svg" xmlns:xlink="http://www.w3.org/1999/xlink" version="1.1" viewBox="0 0 432.7 465.7">
  <!-- Generator: Adobe Illustrator 30.0.0, SVG Export Plug-In . SVG Version: 2.1.1 Build 123)  -->
  <defs>
    <style>
      .st0 {
        fill: url(#linear-gradient);
      }

      .st1 {
        fill: #fff;
      }
    </style>
    <linearGradient id="linear-gradient" x1="248.2" y1="365.5" x2="432.7" y2="365.5" gradientTransform="translate(0 468) scale(1 -1)" gradientUnits="userSpaceOnUse">
      <stop offset="0" stop-color="#fe0000"/>
      <stop offset=".1" stop-color="#fe040e"/>
      <stop offset=".3" stop-color="#fe1233"/>
      <stop offset=".6" stop-color="#fe276f"/>
      <stop offset=".9" stop-color="#fe44c2"/>
      <stop offset="1" stop-color="#fe4ad3"/>
    </linearGradient>
  </defs>
  <path class="st1" d="M14.2,102.1c0-33.1,0-66.2,0-99.3C14.1.5,14.7,0,16.8,0,33.4.1,50,.1,66.5,0c2.4,0,2.8.8,2.8,3,0,23.5,0,47.1-.1,70.6,0,2.5.6,3,3.1,3,22.7,0,45.4,0,68.1,0,2.2,0,2.9-.5,2.9-2.8,0-23.3,0-46.7-.1-70,0-2.2.6-2.7,2.8-2.7,16.6,0,33.1,0,49.7,0,2.2,0,2.7.5,2.7,2.7,0,66.1,0,132.3,0,198.4,0,2.3-.5,2.9-2.9,2.9-16.5-.1-32.9-.1-49.4,0-2.3,0-2.9-.5-2.9-2.9,0-23.5,0-47.1.1-70.6,0-2.3-.5-2.9-2.9-2.9-22.7,0-45.4.1-68.1,0-2.7,0-3.1.8-3.1,3.3,0,23.2,0,46.3.1,69.5,0,2.2-.5,3-2.9,2.9-16.5-.1-32.9-.1-49.4,0-2.6,0-3-.8-3-3.1,0-33,0-66,0-99.1h0Z"/>
  <path class="st1" d="M340.4,245.9c29.8,0,59.5,0,89.3,0,2.3,0,2.9.5,2.9,2.9-.1,15.4-.1,30.9,0,46.3,0,2.4-.4,3.1-3,3.1-19.9-.1-39.8,0-59.7-.1-2.8,0-3.3.8-3.3,3.4,0,48.5,0,96.9.1,145.4,0,2.5-.6,3.2-3.2,3.2-16.4-.1-32.7-.1-49.1,0-2.3,0-2.9-.6-2.9-2.9,0-48.6,0-97.3.1-145.9,0-2.7-.8-3.1-3.2-3.1-19.2,0-38.3,0-57.5.1-2.2,0-2.8-.5-2.8-2.7.1-15.5.1-31.1,0-46.6,0-2.3.5-2.9,2.9-2.9,29.8,0,59.5,0,89.3,0h0Z"/>
  <path class="st1" d="M118.2,229.2C53,229.1,0,282.1,0,347.4c0,65.2,52.8,118.2,117.8,118.3,65.3,0,118.3-52.7,118.4-118,0-65.3-52.7-118.3-118-118.4M118.1,407c-32.8,0-59.4-26.6-59.5-59.4-.1-32.9,26.6-59.7,59.5-59.7,32.8,0,59.4,26.6,59.5,59.4,0,33-26.6,59.7-59.5,59.7h0Z"/>
  <path class="st0" d="M432.7,3.2v198.5c0,1.8-1.5,3.2-3.2,3.2h-177.9c-1.8,0-3.2-1.5-3.2-3.2V3.2C248.2,1.5,249.7,0,251.5,0h177.9c1.8,0,3.2,1.5,3.2,3.2h0"/>
</svg>