<?xml version="1.0" encoding="UTF-8"?>
<svg data-bbox="0 0 368.42 465.679" viewBox="0 0 368.42 465.67" xmlns="http://www.w3.org/2000/svg" data-type="ugc">
    <g>
        <defs>
            <linearGradient gradientUnits="userSpaceOnUse" y2="87.28" x2="368.42" y1="87.28" x1="211.38" id="4693b3ab-b49b-4842-b559-ca1ee726d2b4">
                <stop stop-color="#fe0000" offset="0"/>
                <stop stop-color="#fe040e" offset=".11"/>
                <stop stop-color="#fe1233" offset=".31"/>
                <stop stop-color="#fe276f" offset=".59"/>
                <stop stop-color="#fe44c2" offset=".93"/>
                <stop stop-color="#fe4ad3" offset="1"/>
            </linearGradient>
        </defs>
        <g>
            <path d="M12.05 86.93c0-28.2.02-56.39-.05-84.59C12 .45 12.49 0 14.34.01c14.1.08 28.2.09 42.3-.01 2.07-.01 2.38.64 2.38 2.52-.07 20.04 0 40.08-.1 60.11-.01 2.14.53 2.59 2.6 2.58q28.995-.12 57.99 0c1.91 0 2.51-.39 2.5-2.42-.08-19.88-.02-39.76-.1-59.64 0-1.91.53-2.34 2.37-2.33 14.1.07 28.2.08 42.3 0 1.86-.01 2.33.46 2.33 2.34-.06 56.31-.06 112.63 0 168.94 0 1.95-.45 2.48-2.44 2.47q-21.03-.135-42.06 0c-1.95.01-2.49-.46-2.48-2.45.08-20.04.02-40.08.09-60.11 0-1.93-.41-2.51-2.44-2.5-19.33.08-38.66.1-57.99 0-2.3-.01-2.65.72-2.65 2.79.07 19.72.02 39.44.09 59.16 0 1.9-.39 2.53-2.43 2.51-14.02-.1-28.04-.11-42.06.01-2.24.02-2.53-.7-2.52-2.68.06-28.12.04-56.23.04-84.35Z" fill="#fefefe"/>
            <path d="M289.89 209.35c25.35 0 50.7.02 76.05-.05 1.96 0 2.49.44 2.48 2.43-.09 13.15-.09 26.3 0 39.44.01 2.01-.35 2.65-2.53 2.63-16.95-.11-33.91 0-50.86-.12-2.38-.02-2.78.67-2.78 2.89.07 41.27.03 82.53.1 123.8 0 2.17-.52 2.74-2.7 2.73-13.94-.1-27.88-.09-41.83 0-1.94.01-2.49-.47-2.49-2.46.06-41.42.02-82.85.1-124.27 0-2.27-.68-2.66-2.75-2.65-16.32.08-32.64.02-48.96.09-1.84 0-2.37-.43-2.36-2.34.09-13.23.09-26.45 0-39.68-.01-1.95.46-2.48 2.46-2.47 25.35.07 50.7.05 76.05.05Z" fill="#ffffff"/>
            <path d="M250.33 410.37c2.52.02 4.41 1.99 4.38 4.55-.03 2.49-2.08 4.4-4.64 4.33-2.38-.06-4.27-2.04-4.26-4.46.01-2.52 1.97-4.44 4.52-4.42" fill="#ffffff"/>
            <path d="M100.66 195.2C45.16 195.11.04 240.22 0 295.83c-.04 55.52 44.92 100.64 100.33 100.7 55.63.06 100.71-44.88 100.79-100.48.08-55.61-44.89-100.76-100.46-100.85m-.1 151.41c-27.9 0-50.56-22.63-50.67-50.61-.1-28 22.64-50.82 50.66-50.84 27.91-.01 50.6 22.66 50.65 50.59.05 28.06-22.64 50.85-50.64 50.85Z" fill="#ffffff"/>
            <path d="M75.54 436.5c-1.11-5.43-3.77-9.62-9.49-10.95-5.69-1.32-10.43.56-14.23 4.95-.6.69-.86 1.67-1.76 2.12-4.77-10.35-17.86-9.37-23.4-.34-.11-1.04-.18-1.56-.21-2.09-.28-4.54-.27-4.49-4.77-4.39-1.35.03-1.72.39-1.66 1.76.47 10.85.19 21.7.25 32.55.03 4.96 0 4.88 4.91 4.96 1.71.03 2.07-.5 2.05-2.12-.09-7.05-.06-14.1-.03-21.15.01-3.7 1.44-6.79 4.38-9.07 4.51-3.48 10.42-1.67 12.32 3.69.68 1.91.79 3.87.79 5.85v17.82c0 4.98 0 4.9 4.91 4.96 1.65.02 2.13-.41 2.11-2.09-.1-7.29-.03-14.57-.05-21.86 0-2.74.83-5.16 2.66-7.17 2.18-2.38 4.9-3.45 8.13-2.78 3.22.67 4.98 2.86 5.91 5.86.47 1.52.69 3.08.7 4.68.01 6.1.04 12.2.05 18.3 0 5.19 0 5.13 5.29 5.06 1.37-.02 1.72-.41 1.69-1.74-.09-4.04.04-8.08-.05-12.12-.11-4.9.48-9.82-.52-14.69Z" fill="#ffffff"/>
            <path d="M195.75 425.3c-4.46.69-8.09 2.76-10.98 7.02V412.7c0-4.76 0-4.67-4.79-4.79-1.79-.04-2.35.35-2.34 2.27.06 16.77.03 33.55-.07 50.32-.03 4.88-.16 4.84 4.62 4.53 1.01-.07 1.38-.33 1.39-1.36.01-1.55.18-3.1.32-5.31 6.96 10.81 23.84 8.87 28.83-2.68 2.97-6.86 3.17-13.84.28-20.74-2.96-7.07-9.87-10.79-17.26-9.64m10.26 28.43c-2.37 4.86-7.41 7.17-12.7 6.01-4.98-1.1-8.47-5.52-8.54-10.86-.02-1.03 0-2.06 0-3.09h-.08c.09-1.81-.03-3.67.31-5.44 1.01-5.29 5.27-9.16 10.16-9.47 5.49-.35 9.65 2.4 11.58 7.87 1.79 5.06 1.65 10.12-.72 14.97Z" fill="#ffffff"/>
            <path d="M137.7 428.34c-9.24-6.44-27.1-3.8-29.76 13.12-1.18 7.5.08 14.48 6.01 19.75 5.69 5.05 12.51 5.39 19.41 3.15 7.86-2.56 12.21-9.64 12.28-20.44-.05-5.56-2.08-11.49-7.94-15.57Zm-2.75 27.81c-4.45 5.51-12.15 5.59-16.69.2-4.9-5.82-4.8-16.55.21-22.25 4.48-5.1 12.77-4.75 16.77.73 2.27 3.12 3.13 6.69 3.2 10.39-.05 4.07-.95 7.78-3.49 10.94Z" fill="#ffffff"/>
            <path d="M360.8 438.22c-1.62-6.41-4.95-11.34-11.9-12.67-6.9-1.33-13 .39-17.37 6.08-4.98 6.47-5.83 13.9-3.65 21.6 1.98 7.01 6.94 11.05 14.06 12.02 4.53.62 9.15.51 13.66-.74 3.64-1.01 3.55-.95 2.8-4.5-.34-1.63-1.02-1.62-2.31-1.14-3.24 1.2-6.64 1.49-10.04 1.3-7.15-.4-11.73-4.74-12.32-11.38-.12-1.34.15-1.83 1.58-1.8 4.03.08 8.07.03 12.11.03s8.07-.06 12.11.03c1.55.03 2.03-.54 2.14-2.04.16-2.34-.29-4.57-.85-6.78Zm-7.8 3.64h-9.01c-3 0-5.85.01-8.77 0-.65 0-1.54.23-1.34-1 1.39-8.53 8.58-12.83 15.43-9.43 3.74 1.86 4.75 5.45 5.19 9.27.14 1.28-.69 1.17-1.48 1.17Z" fill="#ffffff"/>
            <path d="M294.69 413.18c0-5.31 0-5.23-5.22-5.27-1.63-.01-1.9.54-1.89 2 .06 8.86.03 17.72.03 26.58v23.73c0 4.81 0 4.69 4.76 4.85 2.11.07 2.38-.68 2.37-2.53-.07-16.45-.04-32.9-.04-49.35Z" fill="#ffffff"/>
            <path d="M253.52 431.04c0-5.37 0-5.3-5.28-5.26-1.5.01-1.82.47-1.8 1.89.08 5.93.04 11.86.04 17.78v14.46c0 5.17 0 5.1 5.16 5.14 1.61.01 1.93-.49 1.92-2-.07-10.67-.04-21.34-.04-32.01" fill="#ffffff"/>
            <path fill="url(#4693b3ab-b49b-4842-b559-ca1ee726d2b4)" d="M368.42 2.76v169.05a2.76 2.76 0 0 1-2.76 2.76H214.14a2.76 2.76 0 0 1-2.76-2.76V2.76A2.76 2.76 0 0 1 214.14 0h151.52a2.76 2.76 0 0 1 2.76 2.76"/>
        </g>
    </g>
</svg>
