<?xml version="1.0" encoding="UTF-8"?>
<svg data-bbox="0 0.01 342.01 499.504" viewBox="0 0 342.01 499.52" xmlns="http://www.w3.org/2000/svg" data-type="ugc">
    <g>
        <defs>
            <linearGradient gradientUnits="userSpaceOnUse" y2="425.85" x2="162.1" y1="13.17" x1="170.88" id="6385044b-8cdc-4285-b1ff-8da4bfad6352">
                <stop stop-color="#1d79b7" offset="0"/>
                <stop stop-color="#0f5d9d" offset="1"/>
            </linearGradient>
        </defs>
        <g>
            <path d="M341.53 4.85c-.5-.19-1.04-.11-1.57-.11h-51.44c-.38 0-.76 0-1.14.03-.86.05-1.28.52-1.33 1.36-.03.52-.03 1.04-.03 1.57v24.08c0 1.83-.2 2.03-2.05 2.03h-24.51c-1.87 0-1.98-.12-1.99-2.05V2.69c0-.91 0-1.49-.12-1.87V.01h-18.81v.81c-.07.19-.11.42-.11.7 0 .52-.01 1.04-.01 1.57v28.36c0 2.27-.09 2.36-2.3 2.36H210.9c-2.09 0-2.17-.08-2.17-2.15V5.16c0-.71.1-1.43-.21-2.11-.62-.82-1.54-.64-2.37-.64q-35.19-.015-70.38 0c-.38 0-.76 0-1.14.05-.48.07-.94.17-1.2.65-.27.69-.18 1.41-.18 2.11v26.5c0 2.01-.09 2.1-2.08 2.1h-25.35c-2.13 0-2.25-.12-2.25-2.26V2.93c0-.57.01-1.14-.04-1.71-.01-.14-.05-.26-.08-.37V.02H84.64v.74c-.06.15-.09.32-.1.53-.02.52-.02 1.04-.02 1.57v28.92c0 1.91-.12 2.03-2.01 2.03H58.15c-2.02 0-2.17-.15-2.18-2.2V6.97c0-1.97-.26-2.22-2.22-2.23-17.33-.01-34.66 0-51.99 0-.42 0-.85-.02-1.25.11H0v5.13l.12.02h.12c.47 9.28.96 18.57 1.42 27.86.62 12.6 1.18 25.21 1.85 37.82.12 2.27.02 4.55.44 6.8l.09 2.77c-.01.94-.07 1.88.13 2.8.02.14.05.27.09.41l.08 2.78c-.02.86-.07 1.72.12 2.57.02.12.05.24.08.36.13 7.57.68 15.13 1.04 22.69.1 2.02-.05 4.07.38 6.08.32 10.06.85 20.1 1.48 30.14l.03 1.43c-.02.85-.06 1.71.12 2.54.02.13.05.25.09.38.03.93.05 1.85.08 2.78-.02.86-.07 1.72.12 2.56.02.12.05.24.08.37-.02.19-.05.38-.04.56.62 12.98 1.22 25.97 1.9 38.95.11 2.12-.01 4.27.41 6.37l.09 2.77c-.02.98-.1 1.97.2 2.93v.02c.03.92.05 1.83.08 2.75-.02.99-.11 1.98.21 2.95-.02.23-.05.47-.04.7.33 7.19.63 14.38 1.04 21.56.12 2.17 0 4.35.42 6.5 0 .33-.03.66-.02.99.42 8.92.83 17.83 1.27 26.75.22 4.41.51 8.81.77 13.21l.06 2.29c-.02.85-.06 1.7.12 2.54q.03.195.09.39c.03.83.05 1.66.08 2.49-.02.69-.05 1.38.13 2.05.02.1.05.2.08.31.03.55.05 1.09.08 1.64-.04.51-.04 1.01.21 1.48.57 7.17 2.19 14.09 4.85 20.77.06.23.1.46.18.68 2.91 7.49 6.96 14.3 12.09 20.47 4.22 5.09 8.9 9.71 14.22 13.66.35.31.68.65 1.06.93 10.4 7.89 21.61 14.4 33.6 19.52 15.85 6.76 32.34 11.92 48 19.17.15.1.3.2.46.28 6.99 3.43 13.85 7.09 20.17 11.68 8.62 6.26 16.08 13.57 20.97 23.2.09.17.15.35.47.31 4.43-9.01 11.36-15.91 19.11-22.12 4.55-3.64 9.52-6.63 14.64-9.37 3.83-2.05 7.79-3.87 11.7-5.78.3.12.54-.06.8-.17 9.37-4.11 18.95-7.69 28.56-11.21 14.1-5.16 27.73-11.28 40.28-19.61 5.3-3.52 10.46-7.22 15.04-11.66.15-.11.32-.2.46-.32 6.68-6.17 12.32-13.16 16.58-21.21 2.28-4.32 4.26-8.78 5.47-13.54.7-1.55 1.01-3.22 1.39-4.86.57-2.43.86-4.91 1.22-7.38.32-2.18.6-4.35.8-6.54.04-.1.06-.21.08-.31.18-.67.15-1.35.13-2.03.02-.83.05-1.66.07-2.49.3-.96.23-1.95.21-2.93.03-1.01.05-2.01.08-3.02.32-.97.22-1.97.21-2.96.03-.92.05-1.83.08-2.75.31-.97.22-1.96.21-2.95l.08-2.75c.31-.97.23-1.96.21-2.95.03-.92.05-1.84.08-2.76.1-.78.16-1.34.13-1.75.36-4.76.57-9.53.68-14.31.31-2.33.35-4.67.33-7.01.31-.97.22-1.96.21-2.95l.09-2.78c.35-1.88.26-3.79.27-5.69.3-.96.22-1.95.21-2.94.03-.92.05-1.85.08-2.77.04-.12.06-.25.08-.37.18-.84.14-1.7.12-2.56.03-.93.05-1.85.08-2.78.04-.13.06-.26.09-.38.18-.84.14-1.69.12-2.54 0-.38.02-.77.02-1.15.39-7.28.79-14.57 1.16-21.85.24-4.87.42-9.74.63-14.62.27-4.69.55-9.37.79-14.06q.555-10.455 1.05-20.91c.26-5.45.47-10.91.7-16.36.18-2.93.38-5.85.53-8.78.36-6.95.73-13.9 1.05-20.86.26-5.48.46-10.97.69-16.46.04-.12.06-.25.08-.37.19-.84.14-1.69.12-2.55l.06-2.29c.07-.52.17-1.03.2-1.55.59-11.81 1.17-23.61 1.75-35.42.6-12.09 1.19-24.18 1.79-36.27h.12l.12-.01V4.87h-.48ZM233.7 321.23c-.16-.14-.31-.29-.45-.44-1.5-1.53-2.3-3.51-3.17-5.41-.43-.94-.37-2.17.59-2.86.87-.63 1.7.05 2.46.52 9.02 5.56 18.84 7.61 29.35 6.64 3.08-.28 6.09-.73 8.94-2.04.6-.28 1.36-.57 1.93.22.41.56.1.93-.18 1.31-.08.1-.15.21-.2.32-12.77 7.63-25.87 7.84-39.25 1.74Zm-40.6 21.34c-2.48 4.2-4.8 8.49-7.19 12.75-.02.04-.05.08-.07.12-2.75 4.64-5.5 9.27-8.24 13.92-.63 1.06-1.28 2.11-2.17 2.97-2.27 2.2-5.34 2.22-7.61.04-1.56-1.49-2.64-3.34-3.69-5.19-2.18-3.82-4.34-7.64-6.51-11.46-.05-.09-.1-.19-.15-.28-2.47-4.74-5.06-9.41-7.81-13.99-1.29-2.15-3.18-3.23-5.91-3.2-8.73.08-17.47.14-26.2.36-1.76.04-3.52-.04-5.2-.6-1.97-.66-2.65-1.85-2.41-3.92.36-3.07 1.57-5.83 2.95-8.55.45-.88.92-1.76 1.38-2.63.06-.11.13-.22.19-.33 3.77-6.32 7.55-12.65 11.31-18.98.26-.44.52-.91.49-1.46v-.02c.65-1.72.61-3.4-.27-5.04-3.44-6.39-6.89-12.78-10.34-19.17v-.01c-1.15-2.7-2.75-5.17-4.04-7.79-.74-1.49-1.45-2.98-1.73-4.64-.44-2.62.83-4.65 3.42-5.2 2.99-.64 6.05-.51 9.08-.51 9.55-.02 19.09-.03 28.64.04 1.58.01 2.68-.5 3.66-1.71 1.94-2.4 2.95-2.38 5.11-.14.96 1 1.26 2.12.66 3.38-1.75 3.7-4.08 5.53-8.15 5.52-9.78-.03-19.57-.01-29.35-.03-.91 0-1.8.06-2.64.45-1.19.57-1.56 1.39-.96 2.54 1.59 3.02 3.25 5.99 4.89 8.98v.02c2.46 4.69 4.84 9.42 7.41 14.05 2.9 5.22 2.4 10.25-.43 15.26-1.4 2.47-2.82 4.93-4.23 7.4-2.26 3.84-4.53 7.67-6.78 11.52-.64 1.09-1.63 2.22-.8 3.52.77 1.21 2.19.92 3.4.89 7.36-.19 14.72-.25 22.08-.22 2.84.01 5.28.99 7.42 2.8 1.72 1.46 3.06 3.23 4.16 5.2 3.55 6.38 7.07 12.78 10.67 19.14 2.51 4.45 6.24 4.46 8.81.08 3.63-6.17 7.22-12.37 10.69-18.64 2.98-5.38 7.58-7.98 13.75-8.02 6.51-.04 13.01-.21 19.51-.36 2.73-.06 3.74-1.52 3.01-4.15-.11-.41-.21-.84-.41-1.21-1.12-2.09-2.26-4.16-3.4-6.24-.16-.34-.3-.69-.47-1.02-2.52-4.82-5.08-9.62-7.56-14.46-1.99-3.89-2.1-7.76.26-11.62 1.19-1.94 2.17-4.01 3.25-6.02 1.52-1.99 2.54-4.28 3.79-6.43 1.45-2.5 2.94-4.98 4.18-7.58 1.54-3.25-.36-6.07-3.96-6.11-1.37-.02-2.75 0-4.12 0-6.68-.01-13.37.29-20.03-.35-2.44-.23-4.95-.22-7.1-1.69-1.76-1.2-3.3-2.56-3.2-4.92v-.2c.47-1.09 1.07-2.07 1.97-2.89.98-.89 2.07-1.07 2.83 0 1.68 2.35 4.03 2.7 6.6 2.68.94 0 1.88.1 2.82.15l.57.02 2.44.06c2.73.33 5.47.25 8.2 0 3.07.14 6.13.14 9.2 0 .62.07 1.24.1 1.85.12 2.45.11 4.91-.02 7.36.09l.42.09c5.09 1.18 6.38 3.58 4.45 8.48-1.32 3.36-3.34 6.36-5.06 9.52-1.45 2.68-2.94 5.34-4.41 8-.08.15-.16.3-.24.44-2.11 3.69-4.28 7.36-6.32 11.09-.75 1.37-.17 2.78.5 4.07 2.48 4.74 4.97 9.48 7.47 14.2.89 1.69 1.85 3.34 2.78 5.01.04.06.07.13.11.19 1.17 2.22 2.32 4.44 3.53 6.64.73 1.33 1.52 2.62 2.05 4.05.42 1.14.57 2.28.27 3.48-.62 2.46-1.37 3.19-3.89 3.29-4.03.17-8.06.25-12.1.34-6.03.13-12.05.22-18.08.33-2.8.05-4.97 1.35-6.36 3.69M136.22 144.2c.83.69 1.25 1.64 1.71 2.57 3.61 7.33 7 14.75 10.07 22.31.12.3.3.58.45.86 1.1 3.13 2.21 6.26 3.3 9.39.81 2.32 1.52 4.67 2.01 7.07.11.55.19 1.13.2 1.69.02.8.08 1.68-.85 2.08-.87.37-1.57-.1-2.2-.62-1.47-1.21-2.29-2.87-3.06-4.56-2.37-5.24-4.64-10.53-7.22-15.68 0-.02-.02-.03-.02-.05-.64-1.37-1.15-2.82-1.94-4.1-1.64-2.69-2.42-5.63-2.94-8.69-.56-3.32-1.23-6.63-1.71-9.96-.11-.77-.29-1.84.79-2.34h1.41Zm24.29 52.34c.23 2.71.51 5.42.77 8.14v.04c.22 3.55.45 7.1.66 10.65.04.71 0 1.42-.03 2.13-.02.39-.13.77-.6.85-.48.08-.64-.28-.83-.62-1.02-1.84-1.17-3.95-1.8-5.91-.82-2.54-1.5-5.13-2.23-7.7 0-.01 0-.03-.01-.04-.75-2.88-1.84-5.65-2.85-8.44-.7-1.95-.28-2.65 1.79-3.01 3.27-.57 4.85.66 5.12 3.91Zm-48.97-57.22c.22.22.43.45.67.63 5.66 4.02 10.36 9.01 14.57 14.49 3.81 4.97 7.35 10.13 10.56 15.51.33.68.64 1.36.98 2.03 5.25 10.63 10.66 21.18 15.2 32.14.09.32.15.64.26.95 3.43 9.52 6.96 19.01 9.43 28.85.86 3.44 1.72 6.89 2.91 10.24.19.55.39 1.35 1.15 1.23.8-.13.61-.96.63-1.53.05-2.33-.35-4.63-.58-6.94-1.08-10.76-2.15-21.51-3.22-32.27 0-.33 0-.66-.02-.99-.73-7.93-1.56-15.85-1.68-23.83-.09-5.88-.19-11.76-.28-17.64.1-6.58.19-13.16.28-19.74.04-2.79.05-5.58.08-8.37.31-1.16.22-2.34.2-3.52.03-1.11.05-2.21.08-3.32.32-.97.22-1.96.21-2.95l.09-2.21v-.06c.02-.13.03-.26.03-.38.21-2.34.41-4.68.65-7.02.51-4.91 1.05-9.82 1.58-14.73v-.06c.48-2.46.67-4.96.91-7.45.15-1.6.33-3.2.5-4.8.27-.47.25-.98.22-1.49-.01-1.7.35-3.38 1.13-4.83 1.63-3.05 5.26-2.98 7.15.01 1.32 2.09 1.67 4.46 2.06 6.82-.02.6-.05 1.2.13 1.78.03.09.05.18.09.27.02.46.05.91.07 1.37-.03.6-.06 1.2.21 1.76.4 4.56.81 9.13 1.2 13.69.4 4.71.77 9.42 1.17 14.13.03.32.12.63.19.94v.02c0 .38-.02.76 0 1.13.72 11.56 1.22 23.13 1.09 34.72-.03 2.66-.11 5.31-.16 7.97-.03 1.3-.05 2.6-.08 3.91-.04.18-.06.37-.09.55-.19 1.26-.13 2.54-.12 3.81-.07 1.37-.15 2.74-.19 4.11-.26 7.37-.5 14.74-.76 22.11-.05.28-.15.55-.16.83-.27 7.16-.71 14.3-1.23 21.45-.52 7.19-1.19 14.36-2.17 21.5-.23 1.71-.14 3.41-.16 5.32.87-.53.92-1.18 1.07-1.75 1.01-3.75 1.97-7.51 2.98-11.25 3.26-12 6.87-23.9 10.54-35.78.52-1.41 1.05-2.82 1.57-4.24 2.79-7.5 6.5-14.57 10.13-21.67.35-.56.72-1.1 1.04-1.67 4-7.07 8.51-13.79 13.89-19.89 5.45-6.18 11.37-11.85 18.65-15.9 3.26-1.81 6.65-3.34 10.26-4.31.2-.05.4-.11.6-.16 1.36-.07 2.73-.23 4.09-.18 3.18.12 5.82 1.45 7.87 3.91.02.04.05.08.07.12.33.57.68 1.13.99 1.71.77 1.42.69 2.82-.19 3.7-1.15 1.15-2.71 1.36-4.17.42-3.18-2.05-6.71-3.05-10.39-3.6-3.14-.47-6 .48-8.76 1.85-.12.06-.2.19-.29.29-.02.02.01.09.04.27.74.15 1.52.03 2.29-.07 1.7-.24 3.41-.3 5.11-.11 2.09.23 2.7 1.41 1.72 3.28-.37.71-.84 1.39-1.39 1.97-5.17 5.51-9.24 11.79-12.84 18.39-4.07 7.45-8.06 14.94-12.08 22.41-.11.21-.18.43-.27.65 0 .01-.02.03-.02.04-2.71 4.93-5.43 9.85-8.14 14.78-4.06 7.4-8.11 14.8-12.16 22.2-3.88 6.5-7.81 12.97-11.41 19.64 0 0 0 .01-.01.02-2.72 4.5-5.13 9.17-7.47 13.88-.1.2-.12.45-.17.68-.01.02-.02.03-.03.05-.43.62-.59 1.35-.77 2.06-1.14 4.35-1.13 8.83-1.42 13.28-.39 5.83-.37 11.67-.81 17.5-.19 2.59-.66 5.2-.11 7.8.34 1.6 1.53 2.06 2.93 1.15.71-.47 1.41-.96 2.14-1.41 1.96-1.2 1.99-1.48.29-3.01-1.26-1.14-1.16-1.75.37-2.46.41-.19 1.03-.19 1.1-.77.07-.61-.58-.65-.94-.91-.6-.44-1.08-.94-.91-1.77.17-.8.79-1.01 1.48-1.09 1.08-.12 2.17-.19 3.25-.32.72-.09 1.71 0 1.74-1.05.03-1.14-1.01-.92-1.7-1.01-1.03-.13-2.1.04-3.11-.27-.77-.24-1.71-.45-1.58-1.5.13-1.02 1.09-.91 1.83-.91 3.32.03 6.65.1 9.97.16 1.23.02 2.47.07 3.7.11.54.02.97-.16 1-.76.03-.52-.21-.93-.76-1.05-.32-.07-.65-.13-.98-.14-2.51-.11-5.03-.22-7.54-.3-.67-.02-1.33-.07-1.95-.33-.58-.25-1.16-.6-1.03-1.35.14-.78.83-.65 1.38-.65 2.8 0 5.6.02 8.4 0 .56 0 1.13-.11 1.68-.22.41-.07.68-.32.68-.78s-.29-.7-.68-.79c-.41-.1-.84-.17-1.26-.2-3.03-.18-6.06-.36-9.1-.5-.92-.04-1.65-.33-1.66-1.34-.01-1 .83-1.18 1.61-1.25 3.77-.37 7.53-1 11.34-.94.47 0 .95-.07 1.42-.13.33-.04.73-.09.69-.53-.03-.31-.35-.4-.66-.43-.8-.08-1.6-.17-2.41-.26-2.78-.31-5.56-.68-8.3-1.24-.63-.13-1.4-.33-1.25-1.25.15-.93.93-.63 1.49-.61 1.47.04 2.94.21 4.41.22 7.36.07 14.72.15 22.07-.23 1.1-.06 2.24-.1 2.85 1.1.64 1.27.49 2.49-.36 3.6-2.79 3.63-4.77 7.74-6.88 11.77-2.04 3.67-3.9 7.44-5.7 11.23-.86 1.8-.82 3.6.07 5.2 3.34 6.06 6.83 12.03 10.26 18.04.54 1 1.07 2 1.63 2.99 1.66 2.98 1.13 3.91-2.29 3.92-5.36.01-10.73 0-16.1 0-6.62 0-11.68 2.59-14.88 8.62-3.07 5.78-6.09 11.58-8.89 17.49-.38.81-.81 1.62-1.34 2.34-1.22 1.64-2.91 1.74-4.39.32-.87-.84-1.43-1.88-1.91-2.97-2.13-4.76-4.31-9.5-6.77-14.09-3.94-7.37-10.17-11.01-18.47-11.13-5.08-.07-10.16 0-15.24 0-1.86 0-2.28-.75-1.44-2.42.21-.42.46-.83.69-1.24 1.59-2.85 3.34-5.62 4.76-8.57 1.47-2.58 2.92-5.18 4.42-7.74 2.54-4.32 2.79-8.81.71-13.31-2.68-5.79-5.8-11.36-8.94-16.91-.62-1.23-1.33-2.42-1.83-3.69-.67-1.67-.54-3.13 2.13-3.21 6.93-.21 13.85-.67 20.77-1 1.66-.08 3.32-.1 4.98-.04.71.03 1.65.11 1.72 1.12.06.92-.8 1.12-1.44 1.33-2.78.92-5.7.92-8.58 1.14-.62.05-1.24.02-1.85.12-.5.08-1.13.16-1.15.83-.02.68.5.96 1.09 1.12.83.23 1.69.23 2.54.24 3.23.01 6.46-.22 9.67.28.68.11 1.31.26 1.63.95 0 .02-.02.04-.03.06-.41 1.31-1.59.89-2.51 1.07-1.27-.02-2.54-.12-3.79.2h-.02c-.91-.25-1.74.26-2.61.3-.39.01-.89 0-.87.45.01.41.43.71.92.71 1.18-.01 2.36-.03 3.54-.05 1.35.01 2.7.07 4.04-.12.2-.02.41-.05.61-.09 1.47 0 2.94-.06 4.4 0 .88.04 1.89.16 2.03 1.29.15 1.19-.68 1.65-1.7 1.86-2.04 0-4.07-.02-6.11.02-1.03.02-2.08-.28-3.08.2-1.39.3-1.57.62-.81 1.46 1 .46 2 .25 3 .02 1.66 0 3.32-.04 4.97.02 1.31.05 2.64.11 3.86.67.47.21.97.57.98 1.13.01.59-.54.85-1.01 1.08-.74.36-1.53.46-2.35.46-1.52 0-3.04-.06-4.55.04-.92.06-2.35-.09-2.29 1.26.06 1.24 1.4.98 2.31 1.01 1.28.05 2.56 0 3.84.03.47.01 1.03.09 1.18.62.14.52-.32.86-.7 1.14s-.82.47-1.21.73c-.31.2-.71.42-.53.88.15.38.55.3.87.31 1.23.05 2.47.02 3.69.15.91.09 2.07.1 2.21 1.35.13 1.13-1 1.21-1.71 1.61-.08.05-.18.06-.26.11-.57.37-1.5.52-1.35 1.42.14.8.92.97 1.66 1.11 1.02.19 2.03.38 2.64 1.44.66 1.14 1.42 1.13 2.2.05.34-.47.48-1.02.57-1.59.5-3.02.22-6.06.19-9.09 0-1.53.07-3.05-.12-4.57-.03-.22-.04-.44-.09-.66v-.01c-.03-1.48-.05-2.97-.08-4.45.01-1.16.1-2.33-.2-3.48v-.51c.07-6.76-.96-13.3-4.09-19.39-2.1-4.07-4.4-8.03-6.79-11.94 0 0 0-.02-.01-.02-5.24-9.26-10.39-18.58-16.36-27.41-3.12-4.62-6.17-9.28-9.25-13.92.07-.32-.16-.53-.31-.76-10.47-16.05-19.86-32.76-29.86-49.09-.59-.97-1.23-1.91-1.84-2.87-.07-.1-.13-.2-.2-.3-1.34-2.04-2.67-4.08-4.02-6.11-.53-.79-1.11-1.44-2.12-1.75-1.12-.34-1.29-1.4-.48-2.41 1.09-1.38 2.28-2.67 4-3.37-1.18-.71-1.55-.73-2.87-.18-2.14.89-3.86 2.39-5.65 3.8-1.93 1.52-4.39 1.66-6.49.38s-2.66-4.13-1.13-6.05c2.41-3.02 5.77-3.98 9.43-4.24 5.15-.36 9.61 1.8 14.07 3.92 2.36 1.12 4.44 2.72 6.63 4.12l.14.14Zm82.85 35.52v-.02c1.8-4.63 3.58-9.27 5.41-13.89a51 51 0 0 1 3.05-6.41c.21-.37.4-.76.66-1.09.56-.73 1.18-1.49 2.23-1.14.95.32.88 1.24.95 2.04.27 3.29-.26 6.35-1.93 9.3-1.94 3.41-3.55 7.01-5.3 10.53-.01.02-.03.05-.04.08-2.02 3.7-3.94 7.46-5.6 11.34-.45 1.04-.87 2.1-1.6 2.99-.29.35-.63.58-1.11.45-.54-.16-.68-.58-.7-1.1-.07-1.74.59-3.3 1.15-4.89.96-2.72 1.88-5.45 2.82-8.17Zm-4.49 20.34c-.6 1.73-1.17 3.47-1.75 5.21 0 .02-.01.04-.02.07-1.84 5.1-3.25 10.33-4.58 15.58-.23.92-.51 1.82-.79 2.72-.14.44-.27 1-.87.97-.7-.04-.73-.7-.77-1.18-.07-.8-.04-1.61 0-2.41.31-5.23.64-10.46.97-15.68v-.06c.11-1.31.24-2.63.34-3.94.12-1.51.61-2.82 2.13-3.38 1.72-.64 3.43-.54 5.01.48.64.41.54 1.01.33 1.64Zm9.48 47.08c2.41-1.28 5.07-1.51 7.7-1.61 6.07-.24 12.12-.39 18.19.42 5.03.67 10.08.08 14.98-1.12 8.06-1.97 15.98-1.45 23.94.45 2.97.71 5.73 1.94 8.57 3 .07.03.14.07.21.1 2.08 1.02 4.16 2.03 6.23 3.06.42.21.81.46 1.22.69.56.31 1.14.67.81 1.42-.35.79-1.04.84-1.81.62-1.78-.52-3.53-1.15-5.16-2.01-4.44-2.36-9.25-2.89-14.15-3.28-7.2-.59-14.31.24-21.44.93-6.76.66-13.51 1.13-20.3.23-4.88-.65-9.76.08-14.63.42-.71.05-1.42.11-2.13.2-1.39.17-2.51-.23-3.26-1.47v-.01c-.43-1.07.21-1.58 1.04-2.02Zm72.81-4.53c-.89.56-1.84.34-2.76.15-1.95-.41-3.88-.98-5.67-1.83-4.46-2.11-9.1-2.04-13.8-1.28-6.76 1.1-13.54 2.11-20.4 1.45-5.16-.49-10.3-.92-15.49-.78-3.05.08-6.05.46-8.94 1.49-1.08.39-2.19.62-3.35.57-.84-.03-1.72-.21-1.93-1.1-.18-.77.44-1.33 1.08-1.79 1.26-.92 2.74-1.27 4.19-1.69 2.82-.81 5.76-.96 8.63-1.52.52.03 1.03.03 1.51-.2h7.5c.14.04.29.07.43.09.83.16 1.67.11 2.51.11.82.03 1.65.05 2.47.08 2.73.34 5.47.41 8.2 0 2.88.05 5.61-.96 8.44-1.22.53.03 1.05.06 1.54-.2h7.47c.67.28 1.38.23 2.09.21.45.02.9.05 1.35.07.47.26.98.25 1.5.22 4.16.43 7.98 1.82 11.55 3.98.79.48 1.49.94 1.89 1.77l-.03 1.42Zm-50.53-23.11c2.87-.05 5.69.31 8.41 1.22 2.4.8 4.8.34 7.19.09 1.66-.17 3.31-.27 4.97-.15 1.16.08 2.26.39 3.02 1.36.87 1.11.5 2.1-.86 2.37-1.31.26-2.66.38-3.96.16-1.61-.27-3.11-.02-4.6.52-2.1.76-4.22.75-6.26-.06-4.15-1.65-8.39-1.81-12.73-1.08-1.02.17-2.08.12-3.12.13-.57 0-1.18-.07-1.43-.71-.28-.7-.02-1.32.44-1.84 1.09-1.22 2.6-1.53 4.11-1.7 1.6-.18 3.22-.23 4.83-.34Zm-9.32 8c5.54-1.15 11.01-.95 16.46.54 4.16 1.14 8.31.98 12.49-.07 2.97-.74 6.02-.65 9.05-.34 1.25.13 2.26.62 2.98 1.67s0 .02 0 .03c.15 1.36-.25 1.83-1.61 1.79-3.37-.11-6.7.12-9.94 1.16-.73.23-1.58.1-2.38.13h-5.4l-2.17-.09c-.49-.27-1.01-.23-1.53-.2-3.48-.43-6.96-.87-10.44-1.26-.69-.08-1.41.07-2.12.12-.51-.04-1.01-.05-1.47.22-.84.12-1.68.23-2.52.35-.51-.04-1.02-.03-1.5.21-1.04-.02-2.09 0-3.13-.07-1.18-.07-1.69-.76-1.36-1.73.01-.03.02-.06.03-.1 1.16-1.48 2.78-2 4.54-2.36Zm-15.95 28.73c1.76-.94 3.71-1.15 5.64-1.33 7.34-.68 14.68-.58 22.03.15 5.36.54 10.7-.16 16.01-1.02 10.67-1.73 21.07-.49 31.27 2.91 3.46 1.15 6.87 2.46 10.19 3.98.81.37 1.66.71 2.3 1.38v.19c.06 2.12-.87 2.87-3.16 2.25-3.1-.84-6.14-1.86-9.21-2.8-.39-.12-.78-.22-1.17-.32-.02 0-.03 0-.05-.01-7.14-2.85-14.56-3.76-22.18-3.17-8.51.66-16.99 1.82-25.55 1.49-3.32-.13-6.62-.34-9.9-.97-4.64-.9-9.32-1.08-13.99-.03-.54.12-1.14.15-1.69.09-.68-.08-1.29-.34-1.41-1.17-.11-.77.24-1.27.89-1.62Zm41.61 7.46c.03-.08.06-.14.09-.23 1.28-.91 2.74-1.21 4.28-1.22 5.11-.06 10.21.13 15.27.85.12.02.23.06.34.08 5.06 1.13 9.88 3.14 15.01 4.07 1.93.35 3.74.29 5.54-.57.97-.47 2-.9 3.14-.49.81.3 1.46.79 1.6 1.65.14.85-.57 1.26-1.19 1.6-2.53 1.43-5.27 1.76-8.11 1.54-3.86-.3-7.56-1.29-11.18-2.58-5.82-2.08-11.73-3.38-17.97-2.75-1.79.18-3.6.12-5.4.04-1.7-.07-2.03-.57-1.42-2.01Zm1.72 6.72c.95-1.59 2.69-1.69 4.33-1.51 4.62.51 9.22 1.18 13.73 2.37 2.29.61 4.59 1.2 6.82 2.01 3.54 1.29 7.15 1.77 10.9 1.66.74-.02 1.95-.34 2.08.89.01.12.03.24.02.39-1.45 1.03-3.1 1.39-4.83 1.48h-2.55l-1.65-.07c-.47-.26-.97-.25-1.48-.22-4.37-.84-8.74-1.69-13.19-1.99-5.6-.39-10.79.89-15.66 3.69-1.15.66-.76 1.31-.32 2.08 2.25 3.88 5.13 7.27 8.27 10.44 2.77 2.8 5.68 5.44 8.89 7.73.03.03.06.05.09.07 2.43 2.07 5.17 3.62 8.16 4.72 2.17.8 4.33 1.66 6.64 2.04.64.1 1.13.44 1.12 1.23 0 .79-.52 1.12-1.15 1.22-.79.12-1.61.16-2.41.14-8.5-.25-15.65-3.83-21.9-9.29-3.3-2.88-6.25-6.15-9.36-9.25l-.04-.04c-1.06-1.21-2.12-2.43-3.17-3.64-1.03-1.18-1.17-2.54-.44-3.84 2.31-4.14 4.66-8.27 7.09-12.33Zm33.44 24.15c-1.55 1.5-3.62 2.21-5.27 3.55-.02.01-.04.02-.07.04-1.29.63-2.46 1.49-3.86 1.9-1.47.44-2.24.11-2.89-1.23 0-.02-.02-.03-.03-.05-.06-.94.35-1.69 1.11-2.17 2.69-1.67 5.38-3.33 8.41-4.34.49-.16 1.02-.26 1.53-.26.72 0 1.47.11 1.79.88.32.76-.25 1.23-.73 1.69Zm-40.19-3.75c.14.11.26.21.42.34 6.08 6.08 12.56 11.66 20.08 15.93 4.2 2.39 8.7 3.65 13.53 3.76 5.06.11 9.66-1.08 13.46-4.63 1.65-1.54 2.48-3.41 2.59-5.64.02-.09.02-.19.04-.28.6-3.21-.84-6.4-3.94-7.92-5.61-2.76-11.06-2.48-16.06 1.71-1.23 1.03-2.32 2.25-3.59 3.23-1.5 1.15-3.17.6-3.79-1.1-.36-1-.03-1.79.67-2.58 3.68-4.13 8.56-5.76 13.76-6.8 8.21-1.63 14.31 3.25 15.5 11.78v.03c.04.27.11.53.16.8 0 .22 0 .44.01.65-.23.49-.2 1.01-.2 1.53-.99 5.97-7.24 11.57-15.34 12.57-10.99 1.36-20.51-2.16-29.36-8.29-4.56-3.16-8.29-7.21-12.2-11.07-1.07-1.06-1.06-2.26-.15-3.45.04-.02.09-.03.13-.06.07-.06.11-.1.17-.15 1.98-1.78 2.21-1.85 4.08-.35Zm-8.08 7.92c1.25-.92 2.15-.93 3.32.11 1.03.91 1.96 1.93 2.95 2.89 5.89 5.71 12.35 10.54 20.39 12.81 6.59 1.86 13.28 2.84 20.09 1.3 4.69-1.06 8.54-3.6 11.73-7.13 1.87-2.07 3.09-4.49 3.37-7.32.27-.47.27-.97.21-1.48v-1.62c-.07-6.99-5.62-12.71-12.79-13.53-7.16-.82-13.28 1.1-18.46 6.1-.54.52-1.15.99-1.79 1.38-1.52.94-2.67.72-3.58-.59-.81-1.16-.57-2.12.81-3.25.18-.15.36-.31.53-.46.03-.02.06-.04.1-.05.37-.19.71-.41.73-.96-.48.08-.8.31-1.07.61-.03.03-.06.06-.08.09-.59.39-1.2.76-1.78 1.16-1.54 1.08-2.78.7-3.94-1.21-1.05-1.73-.79-2.93.93-3.73 5.6-2.62 11.51-4.07 17.67-4.5h7.11c4.61.58 8.83 2.11 12.32 5.28 3.06 2.78 4.99 6.18 5.36 10.37.07.79.22 1.58.33 2.37v3.11c-.63 7.35-5.37 11.95-10.83 16-3.76 2.8-8.16 3.88-12.76 4.4-6.41.73-12.78.93-19.09-.71-2.72-.71-5.33-1.73-7.74-3.16-4.54-2.68-8.96-5.53-13.13-8.77-.52-.41-1.03-.84-1.5-1.31-3-2.89-2.79-5.71.6-8.19Zm-73.82-46.51c.65.48 1.02 1.13.68 1.98-.32.82-1.04.73-1.69.67-1.72-.15-3.35-.71-4.88-1.45-4-1.94-8.24-2.35-12.6-2.35-4.38 0-8.71.52-13.06.79-6.57.42-13.07.19-19.46-1.63-5.35-1.52-10.7-.77-16.06.18-4.79.85-9.26 2.72-13.91 4.01-4.48 1.24-8.62.22-12.77-1.23-.52-.18-.96-.59-1.44-.89-.02-.06-.02-.11-.04-.17-.32-1.37.12-1.98 1.59-2.08.94-.06 1.92-.13 2.84.02 4.96.84 9.6-.38 14.16-2.13 1.59-.61 3.21-1.19 4.71-1.98 3.77-2 7.78-2.48 11.98-2.32 4.98.19 9.88.71 14.79 1.73 5.82 1.2 11.79 1.07 17.73.91 6.18-.17 12.32.08 18.34 1.71 2.49.67 4.67 2.06 7.07 2.93.1.06.2.12.29.18.58.36 1.17.71 1.72 1.12Zm-95.22 58.71c-1.78-3.27-2.7-6.76-2.88-10.47v-4.54c.03-.26.07-.52.1-.78s0-.02.01-.03c.21-.56.42-1.12.62-1.68 2.57-7.22 8.16-10.62 15.28-12.04 5.7-1.13 11.32-.4 16.9.94 2.16.52 4.32 1.05 6.48 1.57.11.04.21.09.31.13 1.85.79 3.24 2.02 3.62 4.15.19 1.02.16 2.04-.76 2.71-.85.62-1.61.03-2.37-.34-.63-.31-1.22-.73-2.05-.88-.05 0-.09-.03-.14-.03.01.06.04.1.06.15.17.49.55.75.85 1.05.44.45.81.92.81 1.6 0 .75-.21 1.46-.8 1.9-.62.46-1.17-.12-1.65-.44-3.59-2.42-7.36-4.43-11.51-5.75-8.84-2.81-15.79.78-20.54 8.15-2.71 4.21-2.53 8.69-.03 13.04.74 1.84 2 3.3 3.46 4.61 4.22 3.8 9.27 5.46 14.84 5.59 11.64.26 21.32-4.75 30.34-11.45.05-.04.1-.07.15-.11 3.38-2.28 6.59-4.77 9.58-7.53 1.86-1.71 2.31-1.7 3.61.44.49.81.92 1.67 1.51 2.4.93 1.15.7 2.05-.36 2.92-.29.23-.55.49-.83.74-.14.13-.29.26-.43.39-4.8 3.79-9.75 7.35-15.25 10.11-7.52 3.77-15.42 6.05-23.88 6.04-6.22-.01-12.13-1.33-17.52-4.56-3.25-1.95-5.7-4.64-7.52-7.97Zm-.23-42.93c.37-.8.98-.97 1.75-.8 1.16.25 2.3.6 3.46.77 6.43.93 12.67.03 18.75-2.12 4.59-1.62 9.24-2.84 14.15-2.71 3.17.09 6.17.94 9.1 2.08.35.14.67.36.98.57.37.26.6.6.5 1.09-.12.55-.58.58-1 .61-.52.03-1.04 0-1.56 0-1.52-.13-3.01-.33-4.5-.66-4.31-.93-8.39.04-12.37 1.59-4.38 1.7-8.8 3.24-13.46 3.97-4.65.73-9.17.53-13.46-1.61-.59-.29-1.18-.61-1.72-.99-.62-.43-1.01-.97-.62-1.81Zm26.51 29.22c-4.4-3.1-9.14-4.07-14.28-2.12-6.47 2.46-7.87 11.02-2.72 15.58 4.27 3.79 9.14 4.57 14.58 3.98 6.06-.67 10.81-3.87 15.41-7.44 3.53-2.74 6.9-5.69 9.93-8.97 2.37-2.57 4.41-5.44 6.55-8.22 1.14-1.48 2.2-1.52 3.21.02.64.98 1.2 2.02 1.8 3.03v1.7c-3.14 4.46-7.27 7.93-11.42 11.38-.47.39-.93.79-1.4 1.18l-.05.03c-.83.59-1.67 1.17-2.5 1.77-6.67 4.85-13.73 8.74-22.24 9.17-5.99.3-11.47-.89-16.19-4.82-1.67-1.39-2.86-3.15-4.05-4.92-.02-.04-.05-.07-.07-.11-.74-2.24-1.58-4.47-1.26-6.91.78-5.88 5.09-10.58 11.17-11.8 7.3-1.46 13.59.65 18.9 5.81.27.26.5.57.73.87.84 1.09.67 2.1-.26 3.05-.91.92-1.89.78-2.83.11-1.04-.75-1.98-1.63-3.03-2.37Zm1.21 5.83c-.55.8-1.39 1.15-2.35 1.02-.86-.12-1.59-.58-2.26-1.12-2.22-1.81-4.61-3.28-7.43-3.99-.75-.19-1.89-.35-1.79-1.47.09-1 1.09-1.2 1.93-1.37.6-.12 1.21-.18 1.84-.26 4 .35 7.06 2.45 9.74 5.25.5.52.78 1.26.31 1.95Zm26.44-19.9c-.25 1.48-1.11 2.74-1.47 4.18-.3.58-.6 1.15-.9 1.72-2.95 5.2-6.31 10.09-10.76 14.16-4.54 4.16-9.65 7.36-15.5 9.3-2.87.95-5.86 1.13-8.86.76-.37-.05-.75-.17-1.08-.33-.57-.27-1.09-.64-1.03-1.38.05-.66.54-.94 1.1-1.16 1.26-.5 2.61-.45 3.92-.66 5.85-.94 10.83-3.68 15.23-7.54 4.88-4.28 8.67-9.41 11.45-15.27.56-1.17.98-2.41.74-3.75 0-.03 0-.06-.01-.1-.16-1.7-1.38-2.49-2.8-2.81-9.36-2.12-18.78-3.32-28.36-1.59-4.55.82-8.98.7-13.13-1.63-.58-.33-1.41-.51-1.11-1.52.3-1 1.01-1.2 1.89-.99 1.01.23 2 .58 3.01.82 4.69 1.12 9.37.74 13.96-.4 8.65-2.16 17.44-2.56 26.28-2.57 1.23 0 2.31.4 2.92 1.45 1.48 2.54 2.87 5.12 4.25 7.71.23.44.21 1.01.31 1.52 0 .02 0 .04-.01.06Zm-6.4-22.29c-7.49-2.21-14.84-1.27-22.17.72-6.15 1.66-12.29 3.27-18.75 3-2.4-.1-4.71-.5-6.82-1.71-.8-.46-1.44-.95-1.15-2 .28-1.05 1.15-1.05 1.95-1 1.09.07 2.16.29 3.24.44 5.58.76 10.84-.64 16.02-2.43 3.49-1.21 6.92-2.62 10.58-3.26 4.66-.82 9.25-.44 13.83.66 5.41 1.31 10.88 2.31 16.48 1.59 2.35-.3 4.67-.82 7.02-1.15 5.15-.71 10.22-.13 15.23 1.15 2.43.62 4.88 1.17 7.32 1.79.68.17 1.35.45 2 .73.77.33 1.57.82 1.35 1.76-.23.96-1.24.62-1.78.75-3.54-.16-6.8-1.08-10.11-1.69-6.69-1.24-13.34-.99-19.91.67-4.82 1.22-9.6 1.39-14.34 0Zm-29.46-21.95c.74-.86 1.76-1.3 2.8-1.62 5.91-1.83 11.9-3.22 18.14-3.23 3.15-.01 6.21.46 9.24 1.38 5.24 1.6 10.66 1.72 16.08 1.6 6.46-.14 12.91-.23 19.29 1.01 2.52.49 4.67 1.79 6.77 3.2.27.18.51.43.73.68.39.45.64 1.02.37 1.57-.29.61-.93.39-1.4.27-2.3-.55-4.58-1.23-6.89-1.72-5-1.07-10.03-.23-15.05-.14-7.59.14-15.15.51-22.64-1.46-4.45-1.18-9.09-1.4-13.71-1.18-3.67.17-7.23 1-10.8 1.73-.82.17-1.61.14-2.39-.12-1.05-.35-1.26-1.13-.54-1.97m67.37-5.78c-.19.74-.96.64-1.56.68-1.02.08-2-.11-2.85-.69-1.52-1.03-3.23-1.32-5.01-1.35-5.85-.12-11.64.3-17.43 1.21-3.85.6-7.65-.1-11.25-1.68-1.37-.6-2.8-.9-4.28-.91-3.71-.02-7.39.23-11.04.94-.6.12-1.22.18-1.83.18-.93-.01-1.7-.41-1.94-1.37-.23-.94.52-1.38 1.19-1.71 1.84-.92 3.86-1.31 5.86-1.68 2.47-.45 4.97-.76 7.63-.65 3.56-.2 7.11.77 10.73 1.22 3.54.44 7.09.57 10.66.33 5.05-.35 10.05-.21 14.94 1.32 1.91.6 3.71 1.45 5.31 2.66.5.38 1.05.85.88 1.51Zm-8.6-8.63c-.31.64-.94.32-1.4.19-3.99-1.08-7.91.1-11.86.34-4.72.3-9.38-.1-14.03-.76-2.3-.33-4.59-.62-6.94-.28-.93.13-2.23.31-2.53-.91s.81-1.73 1.81-2.07c3.97-1.33 7.98-2.28 12.2-1.25.63.15 1.32.06 1.98.07.48.28 1 .23 1.52.2 2.11.18 4.21.16 6.29-.28.51.03 1.01.04 1.48-.22 3.69-.14 7.09.78 10.15 2.85.27.18.55.37.77.61.39.41.85.89.55 1.49ZM68.78 322.49c-.09-.13-.18-.27-.25-.41-.58-1.2-.37-1.57.95-1.39 4.29.6 8.6.79 12.92.54 6.93-.4 13.8-1.16 20.36-3.65 1.65-.63 3.2-1.42 4.68-2.39 1.28-.84 2.65-1.46 4.16-1.78.63-.13 1.22-.12 1.81.12 1.28.53 1.64 1.45.83 2.56-1.37 1.87-2.83 3.68-4.26 5.51-.06.07-.12.15-.17.22-3.38 3.64-7.99 4.28-12.52 5.12-8.53 1.58-16.81.61-24.91-2.35-1.25-.46-2.41-1.11-3.47-1.92-.04-.06-.08-.12-.12-.19Zm140.94-214.1c2.26-3.34 4.58-6.64 7-9.87.74-.99 1.63-1.85 2.62-2.6 1.49-1.12 3.07-1.15 4.48-.14 1.2.86 1.57 2.37.96 4.11-.37 1.03-.8 2.06-1.57 2.85-7.59 7.82-11.2 17.55-13.47 27.93-.74 3.38-1.29 6.78-1.71 10.35 1.03-.29 1.34-1.08 1.76-1.71 3.09-4.74 6.47-9.25 10.45-13.3 7.35-7.48 15.81-13.44 25.06-18.32.88-.46 1.76-.93 2.59-1.49.99-.67 1.26-1.56.7-2.71-.69-1.4-.29-2.67.96-3.43 1.18-.71 2.36-.43 3.32.85 1.6 2.13 3.18 4.26 4.75 6.4.97 1.32.84 2.74-.3 3.67-1.14.94-2.42.76-3.61-.51-1.42-1.51-1.95-1.62-3.85-.72-11.71 5.61-21.6 13.63-30.44 23.03l-.02.02c-.3.29-.62.57-.91.88-3.08 3.24-5.86 6.73-8.73 10.15-.87 1.04-1.89 1.62-3.32 1.59-1.25-.03-2.47.25-3.15 1.53-4.74 8.92-9.23 17.96-12.77 27.44-1.23 2.88-2.18 5.86-3.02 8.87-.54 1.93-.94 3.91-1.95 5.68-.21.37-.46.8-.96.68-.42-.1-.5-.53-.53-.92-.07-.94-.23-1.9-.16-2.83.29-3.59.11-7.2.24-10.79.29-.67.24-1.37.21-2.06.02-.36.04-.73.07-1.09.26-.46.25-.97.22-1.48.2-2.58.68-5.11 1.23-7.64.05-.08.13-.15.15-.24 1.76-9.11 4.86-17.8 8.33-26.36 1.65-4.06 3.45-8.1 5.74-11.88 0 0 0-.02.01-.02 3.09-5.38 6.15-10.78 9.63-15.93Zm-65.76 11.8c2.37 4.93 4.71 9.87 6.8 14.93.05.23.07.46.15.68 2.23 5.97 4 12.09 5.42 18.3.68 2.99 1.21 6.01 1.8 9.02.06.66.11 1.32.2 1.98 1 7.45 1.34 14.93.98 22.45-.03.71-.05 1.59-.91 1.72-.87.14-1.14-.71-1.4-1.36-.69-1.73-.92-3.58-1.25-5.39-.84-4.59-2.31-9.01-3.61-13.48-2.93-9.31-7.05-18.06-12.63-26.08-1.48-2.12-3.5-3.75-6.2-4.14-.84-.12-1.63-.2-2.24-.85-2.4-3.12-5.29-5.76-8.11-8.47-4.11-3.97-8.34-7.81-12.97-11.19-.02-.02-.05-.04-.07-.06-6.67-5.34-13.93-9.69-21.87-12.88-1.39-.56-2.26.21-3.09 1.1-1.36 1.47-2.64 1.7-3.91.65-1.26-1.04-1.35-2.45-.22-4.01 1.61-2.23 3.22-4.46 4.85-6.67 1.04-1.42 2.24-1.7 3.65-.89 1.24.72 1.63 2.13.98 3.57-.66 1.45-.37 2.3 1.27 3.21 2.15 1.2 4.36 2.29 6.52 3.47 4.71 2.56 9.22 5.42 13.65 8.43.07.05.14.11.21.16 4.15 3.09 8.2 6.29 11.87 9.95 2.49 2.48 4.7 5.2 7 7.84.47.54 1.07 1.07 1.85.64.72-.39.81-1.16.64-1.88-1.39-5.88-2.63-11.81-4.7-17.51v-.01c-1.22-4.13-2.81-8.05-6.01-11.11-.9-.86-1.65-1.84-2.26-2.92-1.04-1.87-.89-3.29.46-4.51.96-.86 3.15-.9 4.48-.03 1.24.81 2.26 1.89 3.22 3 5.73 6.57 10.63 13.72 14.83 21.36.16.29.35.55.53.83.03.06.06.12.08.17Zm68.57-53.02c.74-1.08.43-2.13-.62-3.01-1.4-1.17-1.56-2.64-.52-4 .95-1.24 2.26-1.42 3.76-.48 2.45 1.54 4.89 3.09 7.32 4.66 1.57 1.02 1.94 2.38 1.08 3.87-.81 1.42-2.1 1.76-3.78.98-1.4-.65-2.48-.53-3.15.56-3.17 5.22-6.27 10.49-8.86 16.03-4.1 7.72-7.53 15.71-9.94 24.13-1.34 4.69-2.67 9.38-4 14.07 0 .02-.02.04-.02.07-.92 2.23-1.43 4.59-2.08 6.9-1.75 6.23-3.65 12.43-4.88 18.8-.37 1.9-.38 3.87-1 5.73-.14.41-.29.85-.82.83-.52-.03-.69-.47-.78-.89-.21-1.03-.13-2.07.03-3.11.98-6.36 2.15-12.7 3.41-19.01.9-4.5 1.83-8.99 2.75-13.49 0-.02.01-.04.02-.06.93-3.55 1.83-7.1 2.79-10.64 1.26-4.62 2.86-9.11 4.77-13.51 2.59-6 5.43-11.87 8.35-17.72v-.01c2.07-3.56 3.84-7.28 6.16-10.7Zm-74.59 12.09s.03.06.04.09c1.01 2.59 2.45 4.97 3.62 7.48 2.02 4.31 4.01 8.63 6.01 12.94.03.08.05.17.08.25.85 2.71 1.77 5.41 2.53 8.15 1.19 4.33 2.26 8.69 3.38 13.03 1.01 5.43 2.03 10.86 3.01 16.29.67 3.67 1.45 7.33 1.58 11.09.03.83-.21 1.71-1.01 1.79-.57.06-.83-.87-.94-1.49-.32-1.84-.52-3.72-.91-5.55-.61-2.85-1.33-5.68-2-8.51-.04-.28-.05-.56-.13-.83-1.29-4.73-2.58-9.46-3.88-14.19 0-.03-.02-.06-.02-.09-3.32-14.48-8.83-28.06-16.74-40.65-.02-.03-.04-.07-.06-.1-1.93-3.86-4.35-7.43-6.74-11.01-.74-1.11-1.89-.9-2.95-.41-1.75.81-3.07.53-3.9-.89-.85-1.46-.43-2.89 1.2-3.97 2.33-1.55 4.67-3.08 7.02-4.61 1.58-1.03 2.88-.88 3.88.4 1.03 1.33.88 2.84-.51 4.01-1.07.9-1.25 1.98-.52 3.02 3.03 4.37 5.32 9.17 7.96 13.77Z" fill="url(#6385044b-8cdc-4285-b1ff-8da4bfad6352)"/>
            <path d="M201.46 462.56c0-2.33.04-4.66-.01-6.98-.06-2.62-1.67-4.36-4.08-4.37-10.21-.02-20.42 0-30.63-.03-.82 0-1.04.31-1.14 1.05-.31 2.3-.66 4.6-1.06 6.89-.16.88-.06 1.27.99 1.23 2.11-.08 4.22-.02 6.71-.02-1.45 1.05-2.54 1.93-3.73 2.68-.9.56-1.23 1.21-1.22 2.3.06 5.89 0 11.78.05 17.67 0 .98-.23 1.36-1.25 1.27-1.04-.09-2.09.02-3.13-.03-.75-.04-1.07.16-1.17.97-.28 2.31-.64 4.61-1.02 6.9-.17.99.09 1.3 1.14 1.29 4.65-.05 9.31-.08 13.96 0 1.32.02 1.75-.24 1.73-1.67-.07-10.02-.02-20.04-.06-30.07 0-1.04.2-1.36 1.3-1.34 3.8.08 7.6.09 11.4 0 1.27-.03 1.56.31 1.55 1.56-.06 10.02-.02 20.04-.05 30.07 0 1.06.19 1.5 1.38 1.45 2.32-.1 4.66-.1 6.98 0 1.19.05 1.39-.38 1.38-1.45-.04-9.78-.02-19.57-.02-29.35Z" fill="#1a74b2"/>
            <path d="M118.01 451.2H87.95c-.49 0-1-.16-1.11.67-.37 2.79-.83 5.57-1.28 8.44h7.85c-1.53 1.11-2.69 2.02-3.91 2.81-.76.5-1.04 1.07-1.03 1.98.05 4.99.04 9.97.01 14.96 0 1.32.56 3-.23 3.86-.8.87-2.51.18-3.81.29-.09 0-.19.01-.28 0-.83-.12-1.15.2-1.25 1.07-.26 2.31-.56 4.62-.99 6.9-.2 1.05.15 1.18 1.05 1.17 4.65-.03 9.31-.07 13.96.02 1.38.03 1.84-.25 1.83-1.75-.08-9.97-.02-19.95-.07-29.92 0-1.13.31-1.42 1.42-1.4 3.75.07 7.5.08 11.25 0 1.22-.03 1.57.24 1.57 1.53-.06 10.07-.02 20.14-.06 30.2 0 1.08.28 1.38 1.35 1.34 2.37-.08 4.75-.07 7.12 0 1 .03 1.27-.26 1.27-1.26-.03-12.11-.01-24.22-.03-36.33 0-3.01-1.59-4.56-4.57-4.56Z" fill="#1a74b2"/>
            <path d="M338.18 451.18c-2.28.08-4.56.05-6.84.01-.72-.01-.95.22-1.04.95-.9 7.58-2.06 15.15-2.69 22.75-.27 3.26-1.51 5.24-4.31 6.59-.96.46-1.34.59-1.77-.6-3.3-9.18-6.67-18.34-10.02-27.51-.79-2.17-.79-2.2-3.14-2.16-1.41.02-3.2-.58-4.13.25-.78.7-.58 2.49-.81 3.79-.12.65-.19 1.32-.35 1.96-.48 1.8-.26 3.47.43 5.23 2.39 6.08 4.78 12.17 6.89 18.36.91 2.69 2.07 4.53 5.16 4.42.08 0 .15.09.42.27-3.47 1.79-6.85 3.49-10.4 4.8-.78.29-1 .58-.63 1.42 1.03 2.34 1.99 4.71 2.92 7.1.3.76.66.85 1.35.53 1.34-.61 2.72-1.12 4.06-1.72 7.64-3.42 15-7.31 21.51-12.65 1.28-1.05 1.97-2.19 2.15-3.9.49-4.76 1.17-9.51 1.82-14.26.65-4.8 1.35-9.58.68-14.45-.12-.87-.3-1.22-1.26-1.19Z" fill="#1a74b2"/>
            <path d="M37.38 473.83c0-6.08.02-12.16 0-18.24-.01-2.7-1.62-4.38-4.17-4.38-9.31-.02-18.62.01-27.93-.03-1 0-1.17.41-1.28 1.22-.29 2.21-.56 4.43-.99 6.61-.21 1.09-.03 1.35 1.1 1.34 7.08-.05 14.15-.03 21.23-.03q2.04 0 2.05 1.98c0 9.88.02 19.76-.02 29.64 0 1.09.24 1.47 1.4 1.43 2.47-.09 4.94-.08 7.41 0 1.03.03 1.25-.33 1.24-1.29-.04-6.08-.02-12.16-.02-18.24Z" fill="#1a74b2"/>
            <path d="M278.42 473.9c0-6.03.01-12.06 0-18.1 0-2.74-1.58-4.57-4.01-4.58-8.83-.04-17.67 0-26.5-.03-.82 0-1.02.32-1.11 1.06-.29 2.26-.62 4.51-1.04 6.75-.19 1.04-.03 1.37 1.13 1.36 6.6-.06 13.2 0 19.8-.06 1.26-.01 1.65.26 1.65 1.6-.06 9.97 0 19.95-.07 29.92 0 1.28.35 1.6 1.59 1.55 2.42-.1 4.85-.09 7.26 0 1.12.04 1.32-.34 1.31-1.37-.05-6.03-.02-12.06-.02-18.1Z" fill="#1a74b2"/>
            <path d="M144.52 473.92c0-6.08.01-12.15 0-18.23 0-2.48-1.6-4.39-3.87-4.46-3.65-.1-7.31-.03-10.96-.04-.52 0-.76.17-.84.7-.41 2.76-.85 5.52-1.31 8.42 2.15 0 4.09.04 6.03-.02.86-.02 1.24.12 1.23 1.13-.05 7.21-.04 14.43 0 21.64 0 1-.36 1.17-1.24 1.15-2.37-.05-4.75.01-7.12-.03-.77-.02-1.06.21-1.16.99-.29 2.3-.64 4.6-1.02 6.89-.16.95.13 1.22 1.09 1.21q8.97-.06 17.94 0c1.03 0 1.25-.32 1.24-1.29-.04-6.03-.02-12.06-.02-18.08Z" fill="#1a74b2"/>
            <path d="M79.85 473.91c0-6.08.02-12.16 0-18.24-.01-2.49-1.61-4.37-3.89-4.43-3.61-.09-7.22-.02-10.83-.04-.58 0-.86.17-.95.76-.38 2.49-.76 4.97-1.19 7.45-.14.8.17.95.89.94 1.76-.04 3.51.02 5.27-.03.73-.02.98.17.98.94-.03 7.31-.03 14.63 0 21.94 0 .82-.24 1.05-1.05 1.04-2.42-.05-4.84 0-7.27-.03-.74-.01-1.07.14-1.17.97-.27 2.31-.64 4.6-1.02 6.9-.16.93.07 1.23 1.06 1.22 5.98-.04 11.97-.05 17.95 0 1.02 0 1.26-.32 1.25-1.29-.04-6.03-.02-12.06-.02-18.09Z" fill="#1a74b2"/>
            <path d="M243.32 463.37c0-2.75.04-5.51-.01-8.26-.04-2.46-1.5-3.88-3.94-3.9-3.8-.02-7.6.03-11.4-.03-1.02-.02-1.27.38-1.38 1.27-.26 2.17-.54 4.33-.96 6.47-.21 1.09-.11 1.5 1.13 1.43 1.8-.11 3.61.04 5.41-.05 1.04-.05 1.37.21 1.35 1.31-.08 3.75 0 7.5-.05 11.26-.01.98.26 1.2 1.21 1.04 2.43-.41 4.87-.75 7.32-1.07.93-.12 1.39-.39 1.35-1.49-.1-2.66-.03-5.32-.03-7.98" fill="#1a74b2"/>
            <path d="M299.75 463.31c0-2.66.02-5.31 0-7.97-.02-2.72-1.43-4.13-4.12-4.14-3.75-.01-7.49.03-11.24-.03-.89-.01-1.24.25-1.36 1.14-.3 2.35-.63 4.69-1.06 7.02-.17.93.17 1.01.93 1 1.8-.04 3.61.06 5.4-.04 1.24-.07 1.69.22 1.65 1.58-.11 3.7-.03 7.4-.04 11.1 0 .62-.04 1.13.87.98 2.66-.43 5.34-.81 8.01-1.17.77-.1.99-.45.98-1.21-.05-2.75-.02-5.5-.02-8.25Z" fill="#1a74b2"/>
            <path d="M222.76 463.33c0-2.75.05-5.51-.02-8.26-.05-2.47-1.5-3.85-3.96-3.86-3.8-.02-7.6.02-11.4-.02-.8 0-1.19.16-1.3 1.03-.31 2.4-.68 4.79-1.09 7.17-.14.79.12.96.86.95 1.9-.04 3.8.05 5.7-.04 1.08-.05 1.45.21 1.43 1.37-.08 3.75-.02 7.5-.04 11.25 0 .69-.02 1.18.96 1.02 2.57-.43 5.16-.79 7.74-1.13.86-.11 1.18-.45 1.16-1.36-.07-2.71-.02-5.41-.03-8.12Z" fill="#1a74b2"/>
            <path d="M55.03 451.22c-3.98-.04-7.97 0-11.95-.03-.64 0-.89.15-.98.83-.37 2.72-.82 5.43-1.26 8.3 2.42 0 4.64.05 6.87-.02.98-.03 1.29.24 1.27 1.25-.06 3.79-.03 7.59-.02 11.38 0 .55-.17 1.18.82 1.02 2.67-.43 5.34-.8 8.01-1.18.65-.09.95-.31.95-1.07-.04-5.6 0-11.19-.03-16.79-.01-2.18-1.49-3.67-3.67-3.7Z" fill="#1a74b2"/>
            <path d="M12.34 481.72c0-3.42-.03-6.84.02-10.26.02-1.01-.1-1.42-1.29-1.22-2.43.41-4.89.66-7.34.9-.77.08-.91.41-.92 1.08-.1 6.7-.21 13.39-.36 20.09-.02.83.26 1.06 1.05 1.04 2.52-.04 5.04-.08 7.55.01 1.14.04 1.32-.38 1.31-1.39-.06-3.42-.02-6.84-.02-10.26Z" fill="#1a74b2"/>
        </g>
    </g>
</svg>
