<?xml version="1.0" encoding="UTF-8"?>
<svg id="Layer_1" xmlns="http://www.w3.org/2000/svg" xmlns:xlink="http://www.w3.org/1999/xlink" version="1.1" viewBox="0 0 695 246">
  <!-- Generator: Adobe Illustrator 30.0.0, SVG Export Plug-In . SVG Version: 2.1.1 Build 123)  -->
  <defs>
    <style>
      .st0 {
        mask: url(#mask);
      }

      .st1 {
        fill: #ee2c59;
      }

      .st2 {
        fill: #d9d9d9;
      }

      .st3 {
        fill: #ac0c22;
      }
    </style>
    <mask id="mask" x="210" y="0" width="141.3" height="289.1" maskUnits="userSpaceOnUse">
      <g id="mask0_232_3">
        <path class="st2" d="M310.5,157.6c-10.7,27.4-49.5,27.5-60.3.1l-3.6-9-35-106.2C204.8,21.6,220.4,0,242.5,0h76.4c22,0,37.6,21.5,30.8,42.4l-29.3,90.1-9.8,25Z"/>
      </g>
    </mask>
  </defs>
  <g class="st0">
    <g>
      <path class="st3" d="M324.8,268.7c13.4,0,23.1-11.5,19.5-23l-28.4-90c-.9-2.9-.9-6.1,0-9l28.4-87c3.7-11.5-6.1-23-19.5-23-4.1-.2-8.2,1-11.7,3.3-3.5,2.4-6.2,5.8-7.8,9.8l-30.6,93.8c-1.5,4.9-7.5,20.8-5.9,25.7l36.5,86.1c1.6,4,4.3,7.5,7.8,9.8,3.5,2.4,7.6,3.5,11.7,3.3Z"/>
      <path class="st1" d="M234.5,289.1c-3.1,0-6.2-.8-9-2.2-2.8-1.5-5.2-3.6-7.1-6.2-1.9-2.6-3.2-5.7-3.7-8.9-.6-3.2-.4-6.6.4-9.7l28.4-105.6c.9-3.5.9-7.1,0-10.6l-28.4-105.6c-.7-2.7-.9-5.5-.6-8.3.3-2.8,1.1-5.4,2.4-7.9,1.3-2.4,3-4.6,5.1-6.3,2.1-1.7,4.5-3,7-3.8,5.2-1.5,10.7-.8,15.4,1.9s8.1,7.3,9.6,12.8l30.6,113.6c1.6,5.8,1.6,12,0,17.8l-30.6,113.6c-1.2,4.5-3.8,8.4-7.3,11.2-3.5,2.8-7.8,4.3-12.2,4.3Z"/>
    </g>
  </g>
  <path d="M162.7,181.4c-31.1,0-52.3-23.2-52.3-55.4s21-55.8,52.1-55.8,49.7,21.4,49.7,53.4-.2,6.3-.7,9.8h-74c2.4,13.8,11.4,23.9,24.9,23.9s19.7-5.7,24.3-15.8l23.2,10.5c-9,19.3-26,29.3-47.3,29.3ZM138.1,114.4h46.8c-2.4-12.3-9.8-20.8-22.5-20.8s-21,8.8-24.3,20.8Z"/>
  <path d="M0,177.9V28.8h29.5v122.8h64.6v26.3H0Z"/>
  <path d="M662.9,177.9v-103.9h28v103.9h-28ZM676.9,59.9c-10.1,0-17.5-6.3-17.5-16.2s7.4-16.4,17.5-16.4,17.3,6.3,17.3,16.4-7.4,16.2-17.3,16.2Z"/>
  <path d="M566.2,180.1c-28.4,0-44-25.2-44-54.5s16-53.8,46-53.8,23.2,5.7,31.1,19l2.6-.4c-.7-5.7-.7-10.5-.7-16.4h27.4v103.9h-27.4c0-5.9,0-10.7.7-16.6l-2.6-.7c-7.9,14-19,19.5-33,19.5ZM575.2,154.9c16.2,0,25.8-12.3,25.8-29.3s-9.6-28.9-25.8-28.9-24.9,12.5-24.9,29.1,9.2,29.1,24.9,29.1Z"/>
  <path d="M364.6,177.9V28.8h29.5v59.7h68.1V28.8h29.5v149h-29.5v-63h-68.1v63h-29.5Z"/>
  <path class="st1" d="M681,204.3c8.1,0,13,6.2,13,14.8s-6.5,15.9-13.9,15.9-5.4-.6-6.8-1.6l-1.9-3v14.6h-7.5v-39.8h7.5v4.4l2.2-3.2c1.6-1.3,4.6-2,7.5-2ZM678.5,229.6c4.4,0,7.6-3.3,7.6-10.1s-2.8-9.9-7.3-9.9-7.5,2.6-7.5,9.7v1.4c0,6.6,3.8,9,7.3,9Z"/>
  <path class="st1" d="M655.7,205.1v29.1h-7.5v-4.9l-2.2,3.7c-2.1,1.4-4.2,2-7,2-6,0-9.6-3.4-10.3-7.4-.2-1.5-.3-3-.3-5.3v-17.2h7.5v15.6c0,.9,0,2.5.2,4,.4,3,2.1,4.9,5.6,4.9s6.4-3.1,6.4-9.7v-14.8h7.5Z"/>
  <path class="st1" d="M607.7,204.3c9.7,0,15.1,6.5,15.1,15.3s-5.4,15.3-15.1,15.3-15.1-6.5-15.1-15.3,5.4-15.3,15.1-15.3ZM607.7,229.6c4.5,0,7.3-3.8,7.3-10s-2.7-10-7.3-10-7.3,3.7-7.3,10,2.7,10,7.3,10Z"/>
  <path class="st1" d="M587.8,204.4c.9,0,1.5,0,2.1.2v6.1c-6.3-.4-9.4,2.4-9.4,10.2v13.3h-7.5v-29.1h7.5v5.3l2.3-4c1.4-1.3,3.3-2,5-2Z"/>
  <path class="st1" d="M564.9,205.1v21.8c0,1.8,0,4,0,5.6-.3,9.1-6.2,13.4-15.4,13.4s-13.3-3.6-13.9-9.9v-.5c0,0,7.3,0,7.3,0v.5c.4,2.7,2.9,4.4,6.8,4.4s7.5-2.4,7.8-7c0-1.1,0-2.3,0-3.6v-.7l-2.2,3.2c-1.6,1.3-4.3,2-7.2,2-8.2,0-13.3-5.8-13.3-14.4s6.5-15.6,13.9-15.6,5.4.6,6.8,1.6l1.9,3v-3.9h7.5ZM549.8,229c4.2,0,7.5-2.6,7.5-9.7v-.8c0-6.6-3.8-8.9-7.3-8.9s-7.6,3-7.6,9.7,2.8,9.7,7.3,9.7Z"/>
</svg>