<svg width="695" height="246" viewBox="0 0 695 246" fill="none" xmlns="http://www.w3.org/2000/svg">
<mask id="mask0_232_3" style="mask-type:alpha" maskUnits="userSpaceOnUse" x="210" y="0" width="142" height="179">
<path d="M310.542 157.585C299.823 184.979 261.089 185.067 250.246 157.722L246.692 148.76L211.682 42.547C204.772 21.585 220.385 -6.6232e-05 242.456 -6.43025e-05L318.856 -5.76234e-05C340.876 -5.56983e-05 356.483 21.4922 349.668 42.4315L320.335 132.559L310.542 157.585Z" fill="#D9D9D9"/>
</mask>
<g mask="url(#mask0_232_3)">
<path d="M324.801 268.656C338.225 268.656 347.945 257.2 344.288 245.647L315.854 155.686C314.914 152.751 314.914 149.573 315.854 146.639L344.293 59.6536C347.95 48.1631 338.229 36.6866 324.805 36.6866C320.661 36.4946 316.562 37.659 313.072 40.0195C309.582 42.3801 306.873 45.8208 305.318 49.8683L274.709 143.632C273.16 148.546 267.236 164.467 268.785 169.381L305.313 255.509C306.871 259.552 309.582 262.987 313.072 265.341C316.562 267.696 320.66 268.854 324.801 268.656Z" fill="#AC0C22"/>
<path d="M234.546 289.111C231.414 289.112 228.324 288.351 225.519 286.887C222.714 285.424 220.272 283.298 218.383 280.677C216.494 278.057 215.211 275.012 214.635 271.784C214.058 268.555 214.203 265.23 215.059 262.07L243.493 156.443C244.43 152.976 244.43 149.303 243.493 145.835L215.059 40.2707C214.335 37.5874 214.123 34.7808 214.433 32.0113C214.744 29.2418 215.572 26.5635 216.87 24.1295C218.167 21.6954 219.91 19.5532 221.997 17.8252C224.084 16.0971 226.476 14.8171 229.035 14.0582C234.203 12.5254 239.741 13.2083 244.429 15.9565C249.117 18.7047 252.572 23.2931 254.034 28.7124L284.637 142.299C286.196 148.11 286.196 154.259 284.637 160.07L254.034 273.649C252.834 278.1 250.282 282.018 246.765 284.809C243.247 287.6 238.957 289.11 234.546 289.111Z" fill="#EE2C59"/>
</g>
<path d="M162.656 181.364C131.582 181.364 110.356 158.168 110.356 126C110.356 93.8322 131.363 70.1985 162.437 70.1985C193.292 70.1985 212.112 91.6439 212.112 123.593C212.112 127.094 211.893 129.939 211.455 133.441H137.491C139.898 147.227 148.87 157.293 162.437 157.293C173.817 157.293 182.132 151.604 186.728 141.537L209.924 152.041C200.952 171.298 183.883 181.364 162.656 181.364ZM138.147 114.402H184.977C182.57 102.148 175.13 93.6134 162.437 93.6134C149.745 93.6134 141.43 102.367 138.147 114.402Z" fill="white"/>
<path d="M0 177.863V28.8396H29.5421V151.604H94.0971V177.863H0Z" fill="white"/>
<path d="M662.867 177.863V73.9183H690.877V177.863H662.867ZM676.872 59.9132C666.806 59.9132 659.366 53.5671 659.366 43.7197C659.366 33.6535 666.806 27.3074 676.872 27.3074C686.72 27.3074 694.16 33.6535 694.16 43.7197C694.16 53.5671 686.72 59.9132 676.872 59.9132Z" fill="white"/>
<path d="M566.189 180.051C537.741 180.051 522.204 154.886 522.204 125.562C522.204 95.3636 538.179 71.7299 568.159 71.7299C581.288 71.7299 591.355 77.4195 599.232 90.7682L601.858 90.3305C601.202 84.6409 601.202 79.8266 601.202 73.9182H628.556V177.863H601.202C601.202 171.954 601.202 167.14 601.858 161.232L599.232 160.575C591.355 174.58 580.194 180.051 566.189 180.051ZM575.161 154.886C591.355 154.886 600.983 142.631 600.983 125.562C600.983 108.712 591.355 96.6766 575.161 96.6766C559.405 96.6766 550.214 109.15 550.214 125.781C550.214 142.412 559.405 154.886 575.161 154.886Z" fill="white"/>
<path d="M364.62 177.863V28.8394H394.162V88.5801H462.219V28.8394H491.761V177.863H462.219V114.84H394.162V177.863H364.62Z" fill="white"/>
<path d="M680.981 204.339C689.126 204.339 693.937 210.517 693.937 219.099C693.937 229.595 687.486 234.952 679.997 234.952C677.592 234.952 674.64 234.35 673.164 233.312L671.251 230.305L671.251 244.901H663.707L663.707 205.105H671.251V209.533L673.437 206.362C675.077 205.05 678.029 204.339 680.981 204.339ZM678.521 229.649C682.894 229.649 686.12 226.315 686.12 219.591C686.12 213.632 683.277 209.642 678.795 209.642C674.64 209.642 671.251 212.211 671.251 219.318V220.684C671.251 227.299 675.023 229.649 678.521 229.649Z" fill="#EE2C59"/>
<path d="M655.662 205.105V234.187L648.118 234.187V229.267L645.877 232.984C643.745 234.405 641.668 234.952 638.88 234.952C632.867 234.952 629.259 231.563 628.603 227.572C628.384 226.096 628.33 224.62 628.33 222.27V205.105H635.873V220.684C635.873 221.614 635.928 223.199 636.092 224.675C636.475 227.681 638.224 229.595 641.723 229.595C645.494 229.595 648.118 226.479 648.118 219.919V205.105L655.662 205.105Z" fill="#EE2C59"/>
<path d="M607.696 204.339C617.372 204.339 622.784 210.79 622.784 219.646C622.784 228.447 617.372 234.952 607.696 234.952C598.021 234.952 592.609 228.447 592.609 219.646C592.609 210.79 598.021 204.339 607.696 204.339ZM607.696 229.649C612.234 229.649 614.967 225.877 614.967 219.646C614.967 213.359 612.234 209.642 607.696 209.642C603.159 209.642 600.426 213.359 600.426 219.646C600.426 225.877 603.159 229.649 607.696 229.649Z" fill="#EE2C59"/>
<path d="M587.799 204.394C588.674 204.394 589.275 204.449 589.931 204.613V210.681C583.645 210.243 580.529 213.031 580.529 220.848V234.187H572.985V205.105H580.529V210.407L582.825 206.362C584.246 205.05 586.159 204.394 587.799 204.394Z" fill="#EE2C59"/>
<path d="M564.92 205.105V226.916C564.92 228.72 564.92 230.961 564.865 232.547C564.537 241.621 558.633 245.994 549.45 245.994C540.922 245.994 536.166 242.441 535.51 236.045L535.455 235.498H542.781L542.835 235.99C543.163 238.669 545.678 240.364 549.559 240.364C554.206 240.364 557.048 238.013 557.321 233.366C557.376 232.273 557.376 231.071 557.376 229.813V229.103L555.19 232.328C553.55 233.585 550.926 234.35 547.974 234.35C539.774 234.35 534.69 228.501 534.69 219.974C534.69 209.423 541.141 204.339 548.63 204.339C551.035 204.339 553.987 204.941 555.463 205.979L557.376 208.986V205.105L564.92 205.105ZM549.832 229.048C553.987 229.048 557.376 226.479 557.376 219.372V218.552C557.376 211.993 553.604 209.642 550.106 209.642C545.733 209.642 542.507 212.648 542.507 219.318C542.507 225.276 545.35 229.048 549.832 229.048Z" fill="#EE2C59"/>
</svg>
