<?xml version="1.0" encoding="UTF-8"?>
<svg data-bbox="7.194 33.5 345.806 63.3" viewBox="0 0 360 128" xmlns="http://www.w3.org/2000/svg" data-type="ugc">
    <g>
        <linearGradient y2="75.703" x2="155.206" y1="75.703" x1="119.311" gradientUnits="userSpaceOnUse" id="1d580060-8974-4c5b-8470-e72ccc9170a6">
            <stop offset=".024" stop-color="#004f9f"/>
            <stop offset="1" stop-color="#153d8a"/>
        </linearGradient>
        <path d="M146.4 89.9h-.2c-1.4 2.2-3.2 3.8-5.4 4.9q-3.3 1.5-7.2 1.5c-1.8 0-3.5-.2-5.3-.7-1.7-.5-3.2-1.2-4.6-2.2-1.3-1-2.4-2.2-3.2-3.7q-1.2-2.25-1.2-5.1c0-2.1.4-3.9 1.1-5.4.8-1.5 1.8-2.7 3.1-3.8 1.3-1 2.8-1.8 4.4-2.4 1.7-.6 3.4-1 5.3-1.3 1.8-.3 3.7-.5 5.5-.6s3.6-.1 5.2-.1h2.4v-1.1c0-2.4-.8-4.3-2.5-5.5s-3.8-1.8-6.4-1.8c-2.1 0-4 .4-5.8 1.1-1 .4-2 .9-2.8 1.5-1.1.8-2.6.7-3.6-.3l-1.3-1.3c-1.2-1.2-1-3.3.4-4.3 1.6-1.1 3.3-2 5.1-2.6q4.35-1.5 9-1.5c2.8 0 5.1.3 7 .9s3.5 1.4 4.7 2.4c1.3 1 2.2 2.1 2.9 3.4q1.05 1.95 1.5 3.9c.3 1.3.5 2.6.5 3.8.1 1.2.1 2.3.1 3.2v19.7c0 1.5-1.3 2.8-2.8 2.8h-3.2c-1.5 0-2.8-1.3-2.8-2.8v-2.6zm-.6-12.2h-2c-1.4 0-2.9.1-4.6.2s-3.3.4-4.8.8-2.8 1-3.8 1.8q-1.5 1.2-1.5 3.3c0 .9.2 1.7.6 2.3s.9 1.2 1.6 1.6 1.4.7 2.2.9q1.2.3 2.4.3 5.1 0 7.5-2.4t2.4-6.6z" fill="url(#1d580060-8974-4c5b-8470-e72ccc9170a6)"/>
        <linearGradient y2="66.403" x2="214.31" y1="66.403" x1="163.526" gradientUnits="userSpaceOnUse" id="c069b868-c546-4b83-a720-dd7c219302a3">
            <stop offset=".024" stop-color="#004f9f"/>
            <stop offset="1" stop-color="#153d8a"/>
        </linearGradient>
        <path d="M208.2 49.7c-1.1.8-2.6.7-3.5-.2-1.5-1.4-3.1-2.4-4.5-3-2-.8-4-1.1-6-1.1-3 0-5.7.5-8.1 1.6s-4.5 2.5-6.2 4.4-3.1 4.1-4 6.6c-1 2.5-1.4 5.2-1.4 8.1 0 3.1.5 6 1.4 8.6 1 2.6 2.3 4.9 4 6.8s3.8 3.4 6.2 4.5 5.1 1.6 8.1 1.6c2.3 0 4.6-.6 6.8-1.7 1.6-.8 3.1-2 4.6-3.5 1-1 2.5-1.2 3.7-.4l4 2.8c1.4 1 1.6 2.9.5 4.2-2.2 2.4-4.7 4.2-7.6 5.4-3.8 1.6-7.7 2.4-12 2.4-4.5 0-8.6-.7-12.3-2.2-3.7-1.4-6.9-3.5-9.6-6.1s-4.8-5.8-6.3-9.5-2.3-7.8-2.3-12.3c0-4.6.8-8.8 2.3-12.6s3.6-7 6.3-9.7 5.9-4.7 9.6-6.2c3.7-1.4 7.8-2.2 12.3-2.2 3.9 0 7.5.7 10.9 2.1 2.5 1 4.8 2.6 7.1 4.7 1.3 1.2 1.1 3.2-.3 4.3z" fill="url(#c069b868-c546-4b83-a720-dd7c219302a3)"/>
        <linearGradient y2="76.192" x2="257.339" y1="76.192" x1="221.609" gradientUnits="userSpaceOnUse" id="bb1b36a8-7827-452f-96bd-5cf83109d0c7">
            <stop offset=".024" stop-color="#004f9f"/>
            <stop offset="1" stop-color="#153d8a"/>
        </linearGradient>
        <path d="M254.5 95.3h-3.7c-1.5 0-2.8-1.3-2.8-2.8V89h-.2q-1.35 3-4.2 5.1c-1.9 1.4-4.5 2.2-7.7 2.2-2.6 0-4.8-.4-6.6-1.3-1.8-.8-3.3-2-4.4-3.4s-2-3.1-2.4-4.9c-.5-1.8-.7-3.8-.7-5.8v-22c0-1.5 1.3-2.8 2.8-2.8h4.2c1.5 0 2.8 1.3 2.8 2.8v17c0 1.1.1 2.3.2 3.6s.4 2.6.9 3.8 1.2 2.1 2.1 2.9c1 .8 2.3 1.2 4 1.2 1.6 0 3-.3 4.1-.8s2-1.3 2.8-2.2c.7-.9 1.3-2 1.6-3.2s.5-2.4.5-3.8V58.9c0-1.5 1.3-2.8 2.8-2.8h4.2c1.5 0 2.8 1.3 2.8 2.8v33.6c-.3 1.5-1.5 2.8-3.1 2.8" fill="url(#bb1b36a8-7827-452f-96bd-5cf83109d0c7)"/>
        <linearGradient y2="65.644" x2="310.691" y1="65.644" x1="268.434" gradientUnits="userSpaceOnUse" id="ca7d8054-9854-40ab-8e36-4a2230048038">
            <stop offset=".024" stop-color="#004f9f"/>
            <stop offset="1" stop-color="#153d8a"/>
        </linearGradient>
        <path d="M271.2 35h4.2c1.5 0 2.8 1.3 2.8 2.8v23.3h.2c.5-.7 1.1-1.3 1.9-2s1.7-1.3 2.8-1.9 2.3-1.1 3.8-1.5 3-.6 4.9-.6c2.8 0 5.3.5 7.7 1.6 2.3 1.1 4.3 2.5 6 4.4 1.7 1.8 3 4 3.9 6.5s1.4 5.2 1.4 8.1-.4 5.6-1.3 8.1-2.2 4.7-3.8 6.5c-1.7 1.9-3.7 3.3-6.1 4.4s-5.1 1.6-8.1 1.6c-2.8 0-5.4-.5-7.7-1.6-2.4-1.1-4.3-2.8-5.7-5.2h-.2v3.1c0 1.5-1.3 2.8-2.8 2.8h-3.7c-1.5 0-2.8-1.3-2.8-2.8V37.8c-.2-1.5 1.1-2.8 2.6-2.8m29.7 40.7c0-1.5-.3-3-.8-4.4s-1.3-2.7-2.3-3.8-2.2-2-3.6-2.6c-1.4-.7-3-1-4.8-1s-3.4.3-4.8 1-2.6 1.5-3.6 2.6-1.8 2.3-2.3 3.8c-.5 1.4-.8 2.9-.8 4.4s.3 3 .8 4.4 1.3 2.7 2.3 3.8 2.2 2 3.6 2.6c1.4.7 3 1 4.8 1s3.4-.3 4.8-1 2.6-1.5 3.6-2.6 1.8-2.3 2.3-3.8c.5-1.4.8-2.9.8-4.4" fill="url(#ca7d8054-9854-40ab-8e36-4a2230048038)"/>
        <linearGradient y2="75.703" x2="353.112" y1="75.703" x1="317.218" gradientUnits="userSpaceOnUse" id="2ecf790e-71b0-4cc3-bef2-a101e019de32">
            <stop offset=".024" stop-color="#004f9f"/>
            <stop offset="1" stop-color="#153d8a"/>
        </linearGradient>
        <path d="M344.3 89.9h-.2c-1.4 2.2-3.2 3.8-5.4 4.9q-3.3 1.5-7.2 1.5c-1.8 0-3.5-.2-5.3-.7-1.7-.5-3.2-1.2-4.6-2.2-1.3-1-2.4-2.2-3.2-3.7q-1.2-2.25-1.2-5.1c0-2.1.4-3.9 1.1-5.4.8-1.5 1.8-2.7 3.1-3.8 1.3-1 2.8-1.8 4.4-2.4 1.7-.6 3.4-1 5.3-1.3 1.8-.3 3.7-.5 5.5-.6s3.6-.1 5.2-.1h2.4v-1.1c0-2.4-.8-4.3-2.5-5.5s-3.8-1.8-6.4-1.8c-2.1 0-4 .4-5.8 1.1-1 .4-2 .9-2.8 1.5-1.1.8-2.6.7-3.6-.3l-1.3-1.3c-1.2-1.2-1-3.3.4-4.3 1.6-1.1 3.3-2 5.1-2.6q4.35-1.5 9-1.5c2.8 0 5.1.3 7 .9s3.5 1.4 4.7 2.4c1.3 1 2.2 2.1 2.9 3.4q1.05 1.95 1.5 3.9c.3 1.3.5 2.6.5 3.8.1 1.2.1 2.3.1 3.2v19.7c0 1.5-1.3 2.8-2.8 2.8H347c-1.5 0-2.8-1.3-2.8-2.8v-2.6zm-.6-12.2h-2c-1.4 0-2.9.1-4.6.2s-3.3.4-4.8.8-2.8 1-3.8 1.8q-1.5 1.2-1.5 3.3c0 .9.2 1.7.6 2.3s.9 1.2 1.6 1.6 1.4.7 2.2.9q1.2.3 2.4.3 5.1 0 7.5-2.4t2.4-6.6z" fill="url(#2ecf790e-71b0-4cc3-bef2-a101e019de32)"/>
        <path d="M101.8 67.7c-1.1-3.3-4.1-5.5-7.6-5.5H69.8L62.3 39c-1.1-3.3-4.1-5.5-7.6-5.5s-6.6 2.2-7.6 5.5l-1.8 5.5-5.7 17.7H15.2c-3.5 0-6.6 2.2-7.6 5.5-1.1 3.3.1 6.8 2.8 8.9L32.7 95s.1 0 .1.1c.1.1.2.1.3.2.1 0 .1.1.2.1s.2.1.2.1c.1 0 .2.1.3.1s.1 0 .2.1.2.1.4.1h.1c.2.1.4.1.6.1h.7c.2 0 .4 0 .6-.1h.1c.2 0 .4-.1.6-.2h.1l.6-.3c.2-.1.4-.2.6-.4l.1-.1c.2-.1.3-.3.5-.4v-.1l.3-.3.1-.1.1-.1.3-.6v-.1l.3-.6 6.5-20.8h15.7L69 92.6l.3.6v.1l.3.6.1.1.1.1c.1.1.2.2.2.3l.1.1c.2.2.3.3.5.4l.1.1c.2.1.3.2.5.3 0 0 .1 0 .1.1l.6.3h.1c.2.1.4.1.6.1h.9c.3 0 .5 0 .8-.1.1 0 .2 0 .3-.1.1 0 .3 0 .4-.1h.1c.1 0 .1 0 .2-.1.2-.1.5-.2.7-.3s.5-.3.7-.5l22.4-18.3c2.7-1.8 3.8-5.4 2.7-8.6M33.3 83 19.6 71.7h17.2zm16.5-20.8 4.6-14.9.2-.7c0 .2.1.4.2.7l4.7 14.9zM76 83l-3.5-11.2h17.2z" fill="#e30613"/>
    </g>
</svg>
