<svg width="80" height="29" viewBox="0 0 80 29" fill="none" xmlns="http://www.w3.org/2000/svg">
<path d="M27.487 20.0367H25.413V14.9963C25.413 13.8568 25.413 12.4035 25.4417 11.2661C25.187 12.4035 24.813 13.8575 24.4817 14.9802L23.0277 20.0353H20.779L19.2943 14.9626C18.9783 13.8561 18.6043 12.4021 18.365 11.2787C18.3937 12.4182 18.3937 13.8554 18.3937 14.9949V20.0353H16.323V9.13379H19.595L21.9357 18.0301L24.275 9.13379H27.4877L27.487 20.0367Z" fill="#9B0BF9"/>
<path d="M33.4478 20.3509C32.6071 22.6271 31.7378 23.3544 30.1145 23.3544C29.8036 23.3593 29.4928 23.3382 29.1851 23.2913V21.7909C29.3893 21.8161 29.5949 21.8262 29.8005 21.8211C30.1349 21.8433 30.4664 21.7439 30.7395 21.5393C31.0126 21.3348 31.2106 21.0377 31.3005 20.6977L31.4045 20.4274L28.1511 11.6294H30.4611L32.4431 18.3752L34.3925 11.6294H36.6591L33.4478 20.3509Z" fill="#9B0BF9"/>
<path d="M46.5822 14.4722V20.0342H44.9155L44.7822 18.2635L44.3155 19.37C43.9743 19.6891 43.5753 19.9321 43.1426 20.0846C42.7099 20.2372 42.2524 20.2959 41.7975 20.2575C38.9129 20.2575 37.0989 18.1069 37.0989 14.647C37.0989 11.0754 39.3069 8.91016 42.2009 8.91016C45.0062 8.91016 46.4642 10.525 46.6722 12.6706L46.6875 12.8272H44.6155L44.5849 12.6706C44.5234 12.055 44.2373 11.4887 43.787 11.091C43.3366 10.6933 42.7571 10.4954 42.1709 10.539C40.4915 10.539 39.2882 12.0394 39.2882 14.5192C39.2882 17.2385 40.4882 18.6293 42.1109 18.6293C42.7467 18.6402 43.3618 18.3911 43.8268 17.9343C44.2918 17.4774 44.5705 16.8485 44.6042 16.1797H42.4115V14.4722H46.5822Z" fill="#9B0BF9"/>
<path d="M55.2604 16.3991H49.5877C49.721 18.1698 50.473 18.7244 51.433 18.7244C51.8309 18.7563 52.2252 18.6266 52.5351 18.3619C52.845 18.0973 53.047 17.7178 53.0997 17.3013H55.1704C54.7657 19.2608 53.2637 20.2578 51.389 20.2578C49.1984 20.2578 47.5017 18.8178 47.5017 15.8634C47.5017 13.2867 49.1077 11.4058 51.553 11.4058C53.9984 11.4058 55.2897 13.3653 55.2897 15.6577C55.2932 15.9052 55.2836 16.1527 55.261 16.3991M49.6484 14.9773H53.1597C53.0264 13.6511 52.4557 12.9413 51.465 12.9413C50.505 12.9413 49.8297 13.5893 49.6484 14.9773Z" fill="#9B0BF9"/>
<path d="M63.9228 15.295V20.0362H61.8522V15.5955C61.8522 15.2479 61.8522 14.8519 61.8235 14.4258C61.8284 14.2181 61.791 14.0118 61.714 13.8205C61.6369 13.6293 61.5219 13.4577 61.3767 13.3171C61.2315 13.1766 61.0594 13.0703 60.872 13.0055C60.6846 12.9408 60.4862 12.9189 60.2902 12.9415C59.2835 12.9415 58.4902 13.8543 58.4902 16.1965V20.0362H56.4202V11.6293H58.4908V12.9879L59.1062 11.993C59.667 11.5788 60.3427 11.3731 61.0268 11.4081C62.7215 11.4081 63.6975 12.2914 63.8635 13.7616C63.9109 14.2711 63.9303 14.783 63.9228 15.295Z" fill="#9B0BF9"/>
<path d="M72.6618 16.3991H66.9871C67.1205 18.1698 67.8725 18.7244 68.8325 18.7244C69.2303 18.7563 69.6246 18.6266 69.9345 18.3619C70.2444 18.0973 70.4465 17.7178 70.4991 17.3013H72.5698C72.1651 19.2608 70.6631 20.2578 68.7885 20.2578C66.5978 20.2578 64.9011 18.8178 64.9011 15.8634C64.9011 13.2867 66.5071 11.4058 68.9525 11.4058C71.3978 11.4058 72.6891 13.3653 72.6891 15.6577C72.6926 15.9052 72.683 16.1527 72.6605 16.3991M67.0478 14.9773H70.5591C70.4258 13.6511 69.8551 12.9413 68.8645 12.9413C67.9045 12.9413 67.2291 13.5893 67.0478 14.9773Z" fill="#9B0BF9"/>
<path d="M79.8345 14.062H77.7631C77.75 13.7299 77.6138 13.4165 77.384 13.1888C77.1541 12.9611 76.8487 12.8373 76.5331 12.8438C76.413 12.8277 76.2909 12.8391 76.1753 12.8774C76.0598 12.9156 75.9534 12.9798 75.8637 13.0654C75.7739 13.1511 75.7028 13.2563 75.6553 13.3736C75.6078 13.491 75.585 13.6178 75.5885 13.7453C75.5885 14.3772 76.0838 14.71 77.4031 15.0569C79.0385 15.4999 79.9985 16.1964 79.9985 17.7431C79.9985 19.4344 78.5445 20.2573 76.7131 20.2573C74.7798 20.2573 73.4118 19.3699 73.1885 17.4756H75.2551C75.2966 17.8555 75.4728 18.205 75.7484 18.4539C76.0241 18.7028 76.3789 18.8329 76.7418 18.818C77.4011 18.818 77.9125 18.5175 77.9125 17.9053C77.9125 17.2551 77.3858 16.8942 76.0071 16.5306C74.5205 16.1367 73.5005 15.4564 73.5005 14.003C73.5005 12.3882 74.7618 11.4102 76.6665 11.4102C78.5711 11.4102 79.6531 12.5335 79.8325 14.0662" fill="#9B0BF9"/>
<path d="M11.0473 26.1991C12.4006 26.1991 13.3806 25.0435 13.0119 23.878L10.1453 14.8026C10.0506 14.5066 10.0506 14.186 10.1453 13.8899L13.0119 4.81459C13.3806 3.65543 12.4006 2.49767 11.0473 2.49767C10.6295 2.4783 10.2162 2.59576 9.86438 2.8339C9.51255 3.07203 9.23943 3.41913 9.08261 3.82744L5.99727 13.5866C5.84108 14.0823 5.84108 14.6179 5.99727 15.1137L9.08261 24.8728C9.23972 25.2807 9.51301 25.6272 9.86485 25.8647C10.2167 26.1022 10.6298 26.2191 11.0473 26.1991Z" fill="#F72585"/>
<path d="M2.04336 28.3178C1.72753 28.3179 1.41599 28.2408 1.13323 28.0926C0.850471 27.9444 0.604207 27.7292 0.413799 27.4638C0.22339 27.1984 0.094027 26.8902 0.0358809 26.5632C-0.0222652 26.2363 -0.00760958 25.8996 0.0786956 25.5797L2.94536 14.8839C3.03985 14.5327 3.03985 14.1608 2.94536 13.8097L0.0786956 3.12022C0.00572444 2.8485 -0.0157146 2.56431 0.0156025 2.28387C0.0469197 2.00343 0.13038 1.73223 0.261218 1.48575C0.392055 1.23928 0.567708 1.02236 0.778148 0.84738C0.988587 0.672399 1.22969 0.542784 1.4877 0.465934C2.00876 0.31073 2.56702 0.379874 3.03968 0.658157C3.51233 0.936439 3.86066 1.40106 4.00803 1.94982L7.09336 13.4516C7.25058 14.04 7.25058 14.6627 7.09336 15.2511L4.00803 26.7522C3.88709 27.2028 3.62977 27.5996 3.27517 27.8822C2.92056 28.1648 2.48805 28.3178 2.04336 28.3178Z" fill="#9B0BF9"/>
</svg>
