<?xml version="1.0" encoding="UTF-8"?>
<svg data-bbox="-0.004 0.009 386.048 117.156" viewBox="0 0 386.04 117.17" xmlns="http://www.w3.org/2000/svg" data-type="color">
    <g>
        <path d="M21.1 39.97c5.42 5.15 10.53 9.89 15.46 14.8 1.19 1.19 2.46 2.93 2.54 4.48.31 5.8.09 11.63.16 17.44.04 3.75-2.89 4.24-5.08 3.55-3.19-1.01-6.52-2.64-8.91-4.92C17.58 68 10.2 60.33 2.91 52.61c-1.32-1.4-1.88-3.67-2.4-5.63-.37-1.4.14-3.01-.1-4.46-1.67-10.09 1.74-17.81 9.8-24.21C16.02 13.7 20.98 8.02 26.26 2.76c2.03-2.02 3.7-2.03 5.99-.15 11.29 9.23 22.71 18.3 34.11 27.4.83.66 1.82 1.12 2.81 1.71 3.6-10.08 1.08-18.04-6.86-23.93-2.1-1.56-3.45-4.13-5.14-6.23C59.59 1.06 62 .18 64.43.13c8.3-.16 16.62-.04 24.92 0 .32 0 .63.15 1.26.31.16.8.49 1.72.51 2.64.32 23.76.52 47.51.98 71.27.08 4.12-1.11 5.32-5.28 5.4-5.19.1-8.89-1.34-12.65-5.14-13.04-13.21-26.52-25.99-39.88-38.9-5.09-4.92-5.15-4.87-10.02.39-.89.96-1.67 2.02-3.18 3.88Z" fill="#ffffff" data-color="1"/>
        <path d="M294.7 34.02c0-9.8.12-19.6-.06-29.4-.06-3.51 1.2-4.6 4.64-4.57 18.1.12 36.21-.04 54.31.17 2.22.03 4.95 1.09 6.56 2.61 7.59 7.19 15.02 14.57 22.17 22.2 1.7 1.81 2.5 4.76 3.02 7.33 2.67 13.23-2.38 23.18-12.95 31.17-4.85 3.67-8.54 8.85-13.21 12.81-2.21 1.88-5.46 3.5-8.27 3.54-16.44.28-32.88.1-49.32-.04-1.5-.01-2.99-.8-4.49-1.23.79-1.52 1.28-3.31 2.41-4.5 3.31-3.49 7.09-6.54 10.28-10.12 3.5-3.94 7.57-5.46 12.77-5.19 6.13.32 12.3.32 18.43-.04 2.27-.13 4.91-1.14 6.59-2.63 4.83-4.3 9.17-9.14 13.86-13.61 2.54-2.42 2.27-4.42-.09-6.7-4.53-4.39-8.88-8.97-13.52-13.24-1.19-1.09-3.17-1.81-4.81-1.85-7.64-.2-15.28.03-22.92-.15-3.28-.08-4.48 1.17-4.4 4.35.17 6.31.52 12.64.07 18.92-.22 3.02-1.44 6.45-3.34 8.78-3.76 4.61-8.24 8.65-12.57 12.77-1.07 1.02-2.71 1.43-4.09 2.13-.36-1.36-1.03-2.72-1.05-4.09-.09-9.8-.05-19.6-.05-29.4Z" fill="#ffffff" data-color="1"/>
        <path d="M252.67 19.63c-7.09 0-14.2.34-21.25-.16-2.99-.21-6.39-1.57-8.65-3.51-5.18-4.48-9.77-9.64-15.52-15.45 2.94-.19 4.52-.38 6.09-.38 22.93-.02 45.85.1 68.77-.12 4.44-.04 5.62 1.26 5.56 5.62-.2 14.52-.04 14.51-10.58 24.77-3.57 3.48-7 7.1-10.63 10.51-2.35 2.21-2.26 3.88.11 6.13 6.03 5.7 11.83 11.65 17.74 17.47 2.76 2.71 4.6 10.41 3.03 13.73-.34.73-1.38 1.27-2.21 1.58-.74.27-1.65.02-2.47.14-10.88 1.6-19.46-1.61-26.33-10.68-4.36-5.76-10-10.64-15.54-15.38-2.43-2.08-5.92-3.51-9.1-3.97-3.73-.54-5.38-1.71-5.13-5.57.22-3.31.21-6.65 0-9.96-.25-3.98 1.09-5.89 5.37-5.57 3.8.28 7.64.16 11.46.03 4.93-.17 9.2-4.28 9.26-9.23Z" fill="#ffffff" data-color="1"/>
        <path d="M151.54 49.3c12.47-12.38 25.12-24.93 37.54-37.26.02.24.25 1.78.25 3.32.03 19.59-.09 39.18.1 58.77.04 4.22-1.01 5.87-5.52 5.82-19.92-.2-39.84-.07-59.76-.12-1.53 0-3.06-.5-4.85-.81 6.37-6.68 12.18-12.97 18.28-18.96 1.07-1.05 3.39-1.11 5.14-1.14 6.8-.12 13.61-.14 20.42 0 3.35.07 5.54-.96 5.66-4.59.13-3.66-2.66-4.36-5.33-4.57-3.79-.3-7.63-.12-11.44-.24-.58-.02-1.14-.52-.5-.21Z" fill="#ffffff" data-color="1"/>
        <path d="M187.09.11c-6.45 6.82-11.63 12.78-17.4 18.09-1.63 1.51-4.98 1.57-7.54 1.58-16.27.09-32.53-.01-48.8-.06-7.03-.02-14.87-7.88-15.14-14.61-.16-3.95 1.07-5.13 5.04-5.1 24.74.17 49.48.09 74.21.09h9.64Z" fill="#ffffff" data-color="1"/>
        <path d="M196.89.09c2.06 1.37 3.19 1.92 4.07 2.73 2.32 2.13 4.36 4.61 6.84 6.53 7.99 6.22 10.82 14.01 10.12 24.25-.92 13.4-.37 26.91-.22 40.37.05 4.51-1.61 6.35-6.15 5.95-3.3-.29-6.65-.23-9.96-.05-3.87.21-5.17-1.38-5.15-5.25.13-22.93.05-45.87.07-68.8 0-1.46.18-2.92.37-5.73Z" fill="#ffffff" data-color="1"/>
        <path d="M157.11 28.88c-.31 1.44-.22 2.45-.68 2.91-5.51 5.53-11.02 11.05-16.73 16.36-1.06.98-2.99 1.29-4.56 1.41-2.97.23-5.99.3-8.96.05-2.49-.21-6.99-.82-7.04-1.52-.26-3.59-.49-8.01 1.35-10.74 3.56-5.31 8.2-9.6 15.97-8.65 6.65.81 13.47.17 20.65.17Z" fill="#ffffff" data-color="1"/>
        <path d="M127.57 60.59c-6.35 6.17-12.37 12.75-19.25 18.27-1.97 1.58-6.4.09-9.7.01.45-3.95-.31-8.63 1.57-11.7 6.23-10.16 16.47-8.95 26.36-7.94z" fill="#ffffff" data-color="1"/>
        <path d="M123.76 116.93c-.53-1.85-1.07-3.69-1.6-5.54-9.33-1.96-11.06-1.29-13.28 5.22-.32.04-.64.08-.96.11-.06-5.54-.26-11.08-.02-16.6.03-.65 2.43-1.69 3.74-1.71 16.44-.24 14.24-1.09 14.2 12.86 0 1.83-.33 3.67-.51 5.5-.52.05-1.05.11-1.57.16m-.1-15.37c-4.75 0-7.89-.17-11 .06-2.44.18-4.06 4.33-2.24 4.96 3.25 1.13 7.01 1.25 10.48.97.89-.07 1.54-3.22 2.75-5.99Z" fill="#ffffff" data-color="1"/>
        <path d="M188.24 105.02v11.47l-1.59.45c-.56-1-1.56-1.99-1.61-3.01-.18-4.13-.16-8.28-.01-12.41.04-.99.74-2.69 1.31-2.77 1.11-.16 2.68.27 3.48 1.05 2.09 2.04 3.87 4.41 6.14 7.07 2.3-2.58 4.1-4.85 6.19-6.84.83-.79 2.27-.95 3.44-1.4.37 1.01 1.05 2.01 1.07 3.03.11 4.98.05 9.97.05 14.95-.82.05-1.63.09-2.45.14-.38-3.89-.76-7.78-1.23-12.67-2.66 2.91-4.7 5.14-6.98 7.64-2.33-2.55-4.44-4.85-6.54-7.15-.42.15-.85.3-1.27.44Z" fill="#ffffff" data-color="1"/>
        <path d="M343.57 113.69c4.04.24 8.09.64 12.13.58.9-.01 1.78-1.66 2.67-2.55-.88-.72-1.71-1.96-2.65-2.05-2.79-.28-5.63-.16-8.45-.09-3.53.09-4.61-2.2-4.8-5.08-.2-3.05.6-5.85 4.28-6.09 3.63-.24 7.32-.33 10.93.04 2.6.27 4.67 1.66 3.57 4.02-4.74-.33-8.85-.77-12.95-.79-.89 0-1.78 1.46-2.67 2.24.9.8 1.74 2.16 2.72 2.28 2.78.34 5.63.17 8.45.18 4.49.01 4.73 2.94 4.79 6.43.06 3.81-2.1 4.39-5.08 4.34-3.32-.05-6.66.16-9.93-.21-1.43-.16-2.72-1.5-4.07-2.31.36-.31.72-.63 1.08-.94Z" fill="#ffffff" data-color="1"/>
        <path d="M280.42 109.59c-2.74 0-5.52-.25-8.21.12-1.14.15-2.1 1.58-3.14 2.43 1.1.76 2.15 2.08 3.3 2.17 3.66.28 7.35.1 11.03.1l.09 2.19c-2.36.12-4.72.34-7.08.34q-10.73-.02-10.39-10.73c.05-1.65-.27-3.37.1-4.94.24-1.05 1.36-2.65 2.15-2.69 4.61-.22 9.24-.1 13.86.02.73.02 1.45.59 2.18.91l-.78 2.02c-3.14 0-6.33-.3-9.42.12-1.76.24-3.36 1.64-5.04 2.52 1.6.74 3.14 1.76 4.82 2.14 2.22.5 4.55.49 6.84.7-.1.86-.21 1.72-.31 2.59Z" fill="#ffffff" data-color="1"/>
        <path d="M47.96 102.43c-6.08-.47-10.53-.82-16.09-1.25 0 4.18-.07 7.73.07 11.27.02.62.88 1.72 1.38 1.73 3.77.11 7.54 0 11.31-.04.08-.59.15-1.19.23-1.78-1.63-1.25-3.25-2.5-6.15-4.74 3.71-.24 5.87-.38 7.97-.52 1.97 8.97 1.4 9.84-6.94 9.92-12.46.12-10.84 1.14-10.71-10.88.08-7.86.19-7.86 8.3-7.84 2.16 0 4.48-.39 6.42.27 1.57.54 2.69 2.39 4.21 3.86" fill="#ffffff" data-color="1"/>
    </g>
</svg>
