<?xml version="1.0" encoding="UTF-8"?>
<svg id="Layer_1" xmlns="http://www.w3.org/2000/svg" version="1.1" viewBox="0 0 712.3 218.9">
  <!-- Generator: Adobe Illustrator 30.0.0, SVG Export Plug-In . SVG Version: 2.1.1 Build 123)  -->
  <path d="M43.5,39.4c6.7,5.4,9.2,5.1,21.8,4.2l118.7-7.1c2.5,0,.4-2.5-.4-3l-19.7-14.3c-3.8-3-8.8-6.2-18.4-5.5L30.6,22.2c-4.2.4-5.1,2.5-3.4,4.2l16.3,13ZM50.5,67.1v124.8c0,6.7,3.4,9.2,10.9,8.8l130.4-7.5c7.5-.4,8.4-5.1,8.4-10.5V58.7c0-5.4-2.1-8.4-6.7-7.9l-136.3,7.9c-5.1.4-6.8,3-6.8,8.4M179.3,73.8c.8,3.8,0,7.5-3.8,7.9l-6.2,1.3v92.1c-5.5,3-10.5,4.7-14.7,4.7-6.7,0-8.4-2.1-13.4-8.4l-41.2-64.5v62.4l13,3s0,7.5-10.5,7.5l-28.9,1.7c-.8-1.7,0-5.8,3-6.7l7.5-2.1v-82.5l-10.5-.8c-.8-3.8,1.3-9.2,7.1-9.6l31-2.1,42.7,65.4v-57.9l-10.9-1.3c-.8-4.7,2.5-7.9,6.7-8.4l29.1-1.7ZM20.8,11L140.4,2.2c14.7-1.3,18.4-.4,27.7,6.2l38.2,26.8c6.3,4.7,8.4,5.8,8.4,10.9v147.1c0,9.2-3.4,14.7-15.1,15.6l-138.8,8.4c-8.8.4-13-.8-17.7-6.7l-28.1-36.5c-5.1-6.7-7.1-11.7-7.1-17.6V25.6c0-7.5,3.4-13.8,13-14.6"/>
  <g>
    <path d="M327.4,162.1h-17.9l-51.5-97.3v97.3h-13.5V53.4h22.4l47,88.7V53.4h13.5v108.8h-.1Z"/>
    <path d="M424.7,121.5c0,13.3-3.4,23.7-10.2,31.5-6.8,7.7-15.9,11.5-27.4,11.5-11.5,0-20.7-3.8-27.5-11.5-6.8-7.7-10.2-18.2-10.2-31.5s3.4-23.8,10.2-31.5,15.9-11.6,27.5-11.6,20.5,3.8,27.4,11.6c6.8,7.7,10.2,18.2,10.2,31.5M410.6,121.5c0-10.6-2-18.4-6.2-23.6-4.1-5.1-9.8-7.7-17.2-7.7s-13.3,2.6-17.3,7.7c-4.1,5.1-6.1,13-6.1,23.6s2,18,6.2,23.2c4.1,5.2,9.9,7.9,17.3,7.9s13-2.7,17.2-7.9c4.1-5.1,6.1-12.9,6.1-23.2"/>
    <path d="M488.4,161.5c-2.6.6-5.4,1.3-8.4,1.7s-5.7.6-8.2.6c-8.3,0-14.7-2.3-19-6.8-4.3-4.5-6.5-11.6-6.5-21.5v-43.4h-9.3v-11.5h9.3v-23.5h13.8v23.5h28.3v11.5h-28.3v37.1c0,4.3.1,7.7.3,10.1.3,2.4.9,4.7,2,6.8,1,1.9,2.6,3.3,4.5,4.2s4.7,1.4,8.5,1.4,4.6-.4,7-1,4.2-1.1,5.2-1.7h.8v12.5Z"/>
    <path d="M519.6,67h-15.4v-14.3h15.4v14.3ZM518.7,162.1h-13.8v-81.6h13.8v81.6Z"/>
    <path d="M615.5,121.5c0,13.3-3.4,23.7-10.2,31.5-6.8,7.7-15.9,11.5-27.4,11.5-11.5,0-20.7-3.8-27.5-11.5-6.8-7.7-10.2-18.2-10.2-31.5s3.4-23.8,10.2-31.5c6.8-7.7,15.9-11.6,27.5-11.6s20.5,3.8,27.4,11.6c6.8,7.7,10.2,18.2,10.2,31.5M601.2,121.5c0-10.6-2-18.4-6.2-23.6-4.1-5.1-9.8-7.7-17.2-7.7s-13.3,2.6-17.3,7.7c-4.1,5.1-6.1,13-6.1,23.6s2,18,6.2,23.2c4.1,5.2,9.9,7.9,17.3,7.9s13-2.7,17.2-7.9c4.1-5.1,6.1-12.9,6.1-23.2"/>
    <path d="M704.9,162.1h-13.8v-46.4c0-3.7-.3-7.3-.6-10.6-.4-3.3-1.3-5.9-2.4-7.7-1.3-2-2.9-3.6-5.2-4.6s-5.2-1.5-8.9-1.5-7.7.9-11.7,2.8-8,4.2-11.7,7.1v60.9h-13.8v-81.6h13.8v9.1c4.3-3.6,8.7-6.4,13.3-8.3,4.6-2,9.3-2.9,14.2-2.9,8.8,0,15.6,2.7,20.1,7.9,4.6,5.4,6.9,13,6.9,23v52.8Z"/>
  </g>
</svg>