<?xml version="1.0" encoding="UTF-8"?>
<svg data-bbox="25.2 223.73 600 203.641" viewBox="0 0 652 652" xmlns="http://www.w3.org/2000/svg" data-type="shape">
    <g>
        <path d="M58.9 259.4c6.3 5.1 8.7 4.8 20.6 4l112.2-6.7c2.4 0 .4-2.4-.4-2.8l-18.6-13.5c-3.6-2.8-8.3-5.9-17.4-5.2l-108.6 7.9c-4 .4-4.8 2.4-3.2 4zm6.7 26.1v118c0 6.3 3.2 8.7 10.3 8.3l123.3-7.1c7.1-.4 7.9-4.8 7.9-9.9V277.6c0-5.1-2-7.9-6.3-7.5L72 277.6c-4.8.4-6.4 2.8-6.4 7.9m121.7 6.4c.8 3.6 0 7.1-3.6 7.5l-5.9 1.2v87.1c-5.2 2.8-9.9 4.4-13.9 4.4-6.3 0-7.9-2-12.7-7.9l-38.9-61v59l12.3 2.8s0 7.1-9.9 7.1l-27.3 1.6c-.8-1.6 0-5.5 2.8-6.3l7.1-2v-78l-9.9-.8c-.8-3.6 1.2-8.7 6.7-9.1l29.3-2 40.4 61.8v-54.7l-10.3-1.2c-.8-4.4 2.4-7.5 6.3-7.9zM37.5 232.5l113-8.3c13.9-1.2 17.4-.4 26.2 5.9l36.1 25.3c6 4.4 7.9 5.5 7.9 10.3v139c0 8.7-3.2 13.9-14.3 14.7l-131.2 7.9c-8.3.4-12.3-.8-16.7-6.3l-26.6-34.5c-4.8-6.3-6.7-11.1-6.7-16.6V246.3c0-7.1 3.2-13 12.3-13.8"/>
        <path d="M329.2 393.4h-14l-40.4-76.3v76.3h-10.6v-85.3h17.6l36.9 69.6v-69.6h10.6v85.3z"/>
        <path d="M405.5 361.5c0 10.4-2.7 18.6-8 24.7-5.3 6-12.5 9-21.5 9q-13.5 0-21.6-9c-5.3-6-8-14.3-8-24.7s2.7-18.7 8-24.7 12.5-9.1 21.6-9.1c9 0 16.1 3 21.5 9.1 5.3 6 8 14.3 8 24.7m-11.1 0c0-8.3-1.6-14.4-4.9-18.5q-4.8-6-13.5-6c-5.8 0-10.4 2-13.6 6s-4.8 10.2-4.8 18.5c0 8 1.6 14.1 4.9 18.2 3.2 4.1 7.8 6.2 13.6 6.2 5.7 0 10.2-2.1 13.5-6.2 3.2-4 4.8-10.1 4.8-18.2"/>
        <path d="M455.4 392.9c-2 .5-4.2 1-6.6 1.3s-4.5.5-6.4.5c-6.5 0-11.5-1.8-14.9-5.3s-5.1-9.1-5.1-16.9v-34h-7.3v-9h7.3v-18.4h10.8v18.4h22.2v9h-22.2v29.1c0 3.4.1 6 .2 7.9.2 1.9.7 3.7 1.6 5.3.8 1.5 2 2.6 3.5 3.3s3.7 1.1 6.7 1.1c1.8 0 3.6-.3 5.5-.8s3.3-.9 4.1-1.3h.6z"/>
        <path d="M479.9 318.8h-12.1v-11.2h12.1zm-.7 74.6h-10.8v-64h10.8z"/>
        <path d="M555.1 361.5c0 10.4-2.7 18.6-8 24.7-5.3 6-12.5 9-21.5 9q-13.5 0-21.6-9c-5.3-6-8-14.3-8-24.7s2.7-18.7 8-24.7 12.5-9.1 21.6-9.1c9 0 16.1 3 21.5 9.1 5.3 6 8 14.3 8 24.7m-11.2 0c0-8.3-1.6-14.4-4.9-18.5q-4.8-6-13.5-6c-5.8 0-10.4 2-13.6 6s-4.8 10.2-4.8 18.5c0 8 1.6 14.1 4.9 18.2 3.2 4.1 7.8 6.2 13.6 6.2 5.7 0 10.2-2.1 13.5-6.2 3.2-4 4.8-10.1 4.8-18.2"/>
        <path d="M625.2 393.4h-10.8V357c0-2.9-.2-5.7-.5-8.3s-1-4.6-1.9-6c-1-1.6-2.3-2.8-4.1-3.6s-4.1-1.2-7-1.2-6 .7-9.2 2.2-6.3 3.3-9.2 5.6v47.8h-10.8v-64h10.8v7.1c3.4-2.8 6.8-5 10.4-6.5 3.6-1.6 7.3-2.3 11.1-2.3 6.9 0 12.2 2.1 15.8 6.2q5.4 6.3 5.4 18z"/>
    </g>
</svg>
