<?xml version="1.0" encoding="UTF-8"?>
<svg data-bbox="24.001 23.995 988.759 268.759" viewBox="0 0 1036.76 316.75" xmlns="http://www.w3.org/2000/svg" data-type="ugc">
    <g>
        <g>
            <path d="M179.56 24.56c-20.1 1.64-39.98 8.59-58.16 16.84-3.7 1.68-8.89 5.93-12.37 6.64-4.76.97-11.82-1.48-16.78-1.77-30.36-1.79-39.16 10.28-28.66 39.34C9.91 144.5 4.48 246.75 87.08 282.43c73.27 31.65 164.53-13.65 201.84-79.5 52-91.76-1.98-187.16-109.37-178.37Z" fill="#ffffff" stroke="#ffffff" stroke-miterlimit="10" stroke-width="48"/>
            <path d="M665.76 119.76v67c-6.34 4.59-18 4.75-23.53-1.47-.68-.77-3.47-5.11-3.47-5.53v-60l-1.5-1.5h-27l-1.5 1.5v60c0 2.12 2.32 9.33 3.24 11.76 8.62 22.81 33.19 27.36 54.75 21.75.96 22.05-22.23 18.97-36.69 13.19-2.4-.96-5.04-4.19-7.31-2.74-1.35.86-12.11 18.14-12.09 20.07 2.3 3.11 7.74 6.07 11.42 7.66 28.35 12.26 73.68 4.6 73.68-33.68v-99.5h-28.5l-1.5 1.5Z" fill="#ffffff" stroke="#ffffff" stroke-miterlimit="10" stroke-width="48"/>
            <path d="m990.76 118.26-2.52 7c-42.21-27.81-93.29 10.79-77.21 59.22 9.2 27.7 42.06 40.97 68.42 28.96 1.59-.72 8.69-5.84 9.3-5.19l1.01 7h23v-97h-22Zm-29.5 72.99c-31.09.18-32.76-47.1-1.69-48.77 32.77-1.76 33.49 48.58 1.69 48.77Z" fill="#ffffff" stroke="#ffffff" stroke-miterlimit="10" stroke-width="48"/>
            <path d="M571.75 125.27c-8.4-3.73-14.93-8.1-24.51-8.99-37.11-3.44-63.55 27.77-54.81 63.81 8.42 34.7 49.71 48.73 78.31 28.18l2.51 7h21.5v-97h-20.5l-2.51 7zm-27.53 66.03c-30.98.78-33.63-46.35-2.66-48.78 32.96-2.58 34.49 47.98 2.66 48.78Z" fill="#ffffff" stroke="#ffffff" stroke-miterlimit="10" stroke-width="48"/>
            <path d="M418.8 95.72c-2.44-1.18-11.36-4.46-13.54-4.46h-55.5v124h29v-38h26.5c2.36 0 12.3-3.82 14.82-5.18 29.63-15.96 29.08-61.65-1.28-76.36Zm-18.54 54.54h-21.5v-32h21.5c6.1 0 12.44 9.58 12.58 15.5.15 6.31-6 16.5-12.58 16.5Z" fill="#ffffff" stroke="#ffffff" stroke-miterlimit="10" stroke-width="48"/>
            <path fill="#ffffff" stroke="#ffffff" stroke-miterlimit="10" stroke-width="48" d="M911.76 118.26h-31.5l-25.5 36v-62h-29v123h27.5l1.5-1.5v-37.5l27.5 39h32.5l-33.96-50.49z"/>
            <path d="M737.76 118.26v-22l-9.57.93-18.22 21.78c2.64 22.61-7.57 69 8.27 86.32 3.59 3.93 14.9 9.98 20.02 9.98h25.5v-26h-17.5c-3.85 0-8.5-7.95-8.5-11.5v-35.5h26v-22.5l-1.5-1.5h-24.5Z" fill="#ffffff" stroke="#ffffff" stroke-miterlimit="10" stroke-width="48"/>
            <path fill="#ffffff" stroke="#ffffff" stroke-miterlimit="10" stroke-width="48" d="M479.76 90.26v125h-28v-125z"/>
            <path fill="#ffffff" stroke="#ffffff" stroke-miterlimit="10" stroke-width="48" d="M780.76 119.76v95.5h28v-97h-26.5z"/>
            <path d="M794.5 75.51c-20.76 3.18-27.1 33.91-4.15 34.66 25.46.84 31.47-38.85 4.15-34.66Z" fill="#ffffff" stroke="#ffffff" stroke-miterlimit="10" stroke-width="48"/>
            <path d="M179.55 24.56c107.39-8.79 161.37 86.61 109.37 178.37-37.32 65.86-128.57 111.16-201.84 79.5C4.47 246.75 9.91 144.5 63.59 85.62c-10.5-29.06-1.71-41.13 28.66-39.34 4.95.29 12.02 2.74 16.78 1.77 3.48-.71 8.68-4.96 12.37-6.64 18.17-8.25 38.06-15.2 58.16-16.84Zm-58.79 22.72c.46 1.86 1.58 1.85 3.19 1.78 4.33-.19 10.1-1.63 14.32-1.78 26.88-.96 59.14 7.37 79.5 25.48 12.53 11.14 8.65 18.36 15.47 31.53 3.77 7.27 9.64 13.03 14.59 19.4 1.14 2.85 1.1 4.69.5 7.63-1.53 7.45-16.65 46.39-20.73 52.28-13.3 19.17-37.93 1.25-53.59-2.08-49.05-10.43-60.04 73.97-13 87 47.92 13.28 103.36-36.98 124.28-76.24 46.48-87.25-9.43-175.31-108.91-162.89-19.53 2.44-37.98 9.64-55.62 17.89m119.99 80.98c.45-1.73-.72-2-1.49-3-5.13-6.66-8.68-9.12-12.36-17.64-8.48-19.61-1.81-23.65-23.22-36.78-19.86-12.17-44.27-16.39-67.4-14.56-6.58.52-15.16 4.34-20.15 4.66-10.23.66-24.76-7.53-38.78-5.59-22.11 3.07-1.74 24.15-4.79 34.21-.41 1.36-10.93 13.06-13.02 15.99-24.75 34.69-33.48 80.31-14.31 119.75 23.91 49.19 80.3 62.73 130.52 50.96.21-1.8-2.32-.97-3.5-.95-13.48.26-23.97-1.48-34.51-10.53-18.38-15.79-20.99-43.12-11.48-64.49-5.46 4.61-9.23 10.11-12.68 16.31l-5.82 18.67c-7.14-37.04 23.91-70.97 61.36-67.87 13.01 1.08 41.02 15.69 50.61 11.35 4.99-2.26 7.9-12.32 10-16.99-7.11 3.76-34.75 1.1-29.31-11.26 3.86-8.76 19.44 11.3 29.06 4.99 3.25-2.13 8.4-13.38 8.23-16.77-.14-2.62-6.17-5.45-4.96-9.44l8-1.01Z" fill="#0a0707"/>
            <path d="M695.75 118.26v99.5c0 38.27-45.32 45.94-73.68 33.68-3.68-1.59-9.12-4.55-11.42-7.66-.02-1.93 10.74-19.21 12.09-20.07 2.28-1.45 4.91 1.78 7.31 2.74 14.46 5.78 37.65 8.86 36.69-13.19-21.57 5.61-46.13 1.07-54.75-21.75-.92-2.43-3.24-9.64-3.24-11.76v-60l1.5-1.5h27l1.5 1.5v60c0 .42 2.79 4.77 3.47 5.53 5.54 6.22 17.19 6.06 23.53 1.47v-67l1.5-1.5h28.5Z" fill="#040404"/>
            <path d="M990.75 118.26h22v97h-23l-1.01-7c-.61-.65-7.71 4.46-9.3 5.19-26.36 12-59.22-1.26-68.42-28.96-16.08-48.43 35-87.03 77.21-59.22l2.52-7Zm-31.19 24.23c-31.07 1.67-29.4 48.95 1.69 48.77 31.8-.19 31.08-50.53-1.69-48.77" fill="#040404"/>
            <path d="m573.25 215.26-2.51-7c-28.61 20.55-69.89 6.52-78.31-28.18-8.75-36.04 17.7-67.25 54.81-63.81 9.58.89 16.11 5.26 24.51 8.99l2.51-7h20.5v97zm-31.7-72.74c-30.97 2.43-28.32 49.56 2.66 48.78 31.83-.8 30.31-51.36-2.66-48.78" fill="#030303"/>
            <path d="M378.75 177.26v38h-29v-124h55.5c2.18 0 11.1 3.28 13.54 4.46 30.36 14.71 30.91 60.41 1.28 76.36-2.52 1.36-12.47 5.18-14.82 5.18zm0-27h21.5c6.58 0 12.73-10.19 12.58-16.5-.14-5.92-6.48-15.5-12.58-15.5h-21.5z" fill="#030303"/>
            <path fill="#030303" d="M854.75 92.26v62l25.5-36h31.5l-30.96 46.51 33.96 50.49h-32.5l-27.5-39v37.5l-1.5 1.5h-27.5v-123z"/>
            <path d="M737.75 96.26v22h24.5l1.5 1.5v22.5h-26v35.5c0 3.55 4.65 11.5 8.5 11.5h17.5v26h-25.5c-5.12 0-16.43-6.05-20.02-9.98-15.85-17.32-5.64-63.7-8.27-86.32l18.22-21.78 9.57-.93Z" fill="#040404"/>
            <path fill="#030303" d="M479.75 90.26v125h-28v-125z"/>
            <path fill="#030303" d="M808.75 118.26v97h-28v-95.5l1.5-1.5z"/>
            <path d="M794.49 75.51c27.32-4.19 21.31 35.5-4.15 34.66-22.95-.76-16.61-31.48 4.15-34.66" fill="#fe3747"/>
            <path d="m240.75 128.26-8 1.01c-1.22 3.99 4.82 6.82 4.96 9.44.17 3.39-4.98 14.64-8.23 16.77-9.61 6.31-25.2-13.76-29.06-4.99-5.44 12.36 22.2 15.02 29.31 11.26-2.1 4.67-5 14.73-10 16.99-9.58 4.34-37.6-10.27-50.61-11.35-37.45-3.11-68.5 30.82-61.36 67.87l5.82-18.67c3.45-6.19 7.22-11.7 12.68-16.31-9.52 21.37-6.91 48.7 11.48 64.49 10.54 9.05 21.03 10.79 34.51 10.53 1.18-.02 3.71-.85 3.5.95-50.22 11.77-106.61-1.77-130.52-50.96-19.17-39.44-10.44-85.06 14.31-119.75 2.09-2.92 12.61-14.63 13.02-15.99 3.05-10.05-17.32-31.14 4.79-34.21 14.02-1.94 28.55 6.25 38.78 5.59 4.99-.32 13.57-4.14 20.15-4.66 23.14-1.83 47.55 2.39 67.4 14.56C225.1 83.96 218.43 88 226.9 107.61c3.68 8.52 7.24 10.97 12.36 17.64.77 1 1.94 1.27 1.49 3Zm-127-58.98c-19.58-5.52-52.55-16.79-32.52 17 1.19 2.01 2.32 5.82 4.97 5.02 5.48-10.2 14.87-20.11 27.55-19.04zm49.73-3.76c-2.52-2.81-10.35-3.12-12.26.74-2.95 11.43 20.05 7.93 12.26-.74m14 3.89c-.93.26-2.39 1.56-2.57 2.49.39 4.73 6.14 6.67 9.4 3.39l-.02-3.04c-1.63-1.83-4.23-3.55-6.81-2.84m36.27 61.85c2.26-9.43-2.56-17.82-3.55-25.94-.32-2.59 1.77-5.69-.43-7.56-15.48-4.27-32.34-2.92-48.01-.48-.8 3.73 4.82.79 7.5.91 16.77.71 34.46 5.14 40.23 22.87.37 1.13 1.72 13.15 4.27 10.22v-.02Zm-149.76-3.23c7.5 7.53 23.51-14.54 13.12-20.67-8.12-4.79-19.9 13.86-13.12 20.67m-9.52 13.41c-6.09 1.79-7.11 17.95-.22 17.93 9.18-.03 10.61-20.99.22-17.93m-4.05 30.93c-3.36 2.27-3.4 6.6-.68 9.42 5.21 3.18 8.43-6.81 4.03-9.05l-3.34-.38h-.01Z" fill="#fcfcfc"/>
            <path d="M120.76 47.28c17.64-8.25 36.09-15.45 55.62-17.89 99.49-12.42 155.39 75.64 108.9 162.9-20.92 39.26-76.36 89.52-124.28 76.24-47.04-13.04-36.05-97.44 13-87 15.65 3.33 40.29 21.25 53.59 2.08 4.09-5.89 19.21-44.83 20.73-52.28.6-2.94.64-4.78-.5-7.63-4.95-6.38-10.82-12.13-14.59-19.4-6.83-13.17-2.94-20.39-15.47-31.53-20.36-18.11-52.62-26.43-79.5-25.48-4.22.15-9.99 1.59-14.32 1.78-1.61.07-2.73.08-3.19-1.78h.01Z" fill="#fc3243"/>
            <path d="M113.75 69.28v2.98c-12.67-1.07-22.06 8.84-27.54 19.04-2.65.8-3.78-3.02-4.97-5.02-20.03-33.79 12.94-22.52 32.52-17Z" fill="#090909"/>
            <path d="M213.75 131.26c-2.55 2.93-3.91-9.09-4.27-10.22-5.77-17.73-23.46-22.16-40.23-22.87-2.68-.11-8.3 2.82-7.5-.91 15.67-2.44 32.54-3.79 48.01.48 2.2 1.87.12 4.98.43 7.56 1 8.12 5.81 16.52 3.55 25.94v.02Z" fill="#0f0f0f"/>
            <path d="M63.99 128.03c-6.78-6.81 5-25.46 13.12-20.67 10.39 6.13-5.62 28.2-13.12 20.67" fill="#080808"/>
            <path d="M54.47 141.44c10.39-3.06 8.96 17.9-.22 17.93-6.89.02-5.87-16.14.22-17.93" fill="#0a0a0a"/>
            <path d="M163.48 65.52c7.8 8.67-15.2 12.17-12.26.74 1.91-3.86 9.73-3.55 12.26-.74" fill="#111111"/>
            <path d="m50.42 172.37 3.34.38c4.41 2.23 1.19 12.23-4.03 9.05-2.71-2.82-2.68-7.15.68-9.42h.01Z" fill="#141414"/>
            <path d="M177.48 69.41c2.58-.71 5.18 1.01 6.81 2.84l.02 3.04c-3.26 3.29-9 1.34-9.4-3.39.17-.93 1.63-2.24 2.57-2.49" fill="#121212"/>
        </g>
    </g>
</svg>
