<?xml version="1.0" encoding="UTF-8"?>
<svg data-bbox="0 -0.01 178.23 100.58" viewBox="0 0 178.23 100.57" xmlns="http://www.w3.org/2000/svg" data-type="ugc">
    <g>
        <defs>
            <linearGradient gradientUnits="userSpaceOnUse" gradientTransform="matrix(1 0 0 -1 0 -503.83)" y2="-517.21" x2="102.63" y1="-571.19" x1="89.14" id="315e87a7-fc54-4363-bfbf-0637e17122d0">
                <stop stop-color="#7500fa" offset="0"/>
                <stop stop-color="#9e00fa" offset="1"/>
            </linearGradient>
            <linearGradient gradientUnits="userSpaceOnUse" gradientTransform="matrix(1 0 0 -1 0 -503.83)" y2="-566.99" x2="78.88" y1="-499.96" x1="84.98" id="067955f6-5eb7-4a17-925c-f6128c2b6814">
                <stop stop-color="#ffffff" offset="0"/>
                <stop stop-color="#cccccc" offset="1"/>
            </linearGradient>
        </defs>
        <g>
            <path d="M86.91 68.76h7.48l.21-.21-.05.21h7.32l4.59-4.59.16-.69.42-1.79.81-3.49.87-3.73.36-1.55 1.23-5.28.67-2.89.55-2.39.82-3.55.4-1.75.47-2.03.75-3.25 1.23-5.28.28-1.18.95-4.1 1.23-5.28v-.25l.07-.07 1.14-4.96 1.1-4.76.1-.44.02-.08.07-.32v-.03l-2.1-4.69-.1-.23h-7.5l-.1.47-1.11 4.81-1.13 4.91-.09.38-.94 4.07-.28 1.21-.94 4.06-.29 1.23-1.23 5.28-.74 3.2-.49 2.08-1.23 5.28H80.18l-.32 1.41-.9 3.87-1.23 5.28-.13.55-1.09 4.73-1.16 4.99-.05.17v.12h-.02l-1.23 5.28-.96 4.14-.17.77-.09.38H86.9Zm.3-15.26.14-.6 1.23-5.28h10.86l-.35 1.5-.88 3.79-1.23 5.28H86.12l1.09-4.68Z" fill="url(#315e87a7-fc54-4363-bfbf-0637e17122d0)"/>
            <path d="M91.32.01H76.36L71.77 4.6l-.16.69-.42 1.79-.81 3.49-.87 3.73-.36 1.55-1.23 5.28-.67 2.89-.55 2.39-.82 3.55-.4 1.75-.47 2.03-.75 3.25-1.23 5.28-.28 1.18-.95 4.1-1.23 5.28v.25l-.07.07-1.14 4.96-1.1 4.76-.1.44-.02.08-.07.32v.03l2.1 4.69.1.23h7.5l.1-.47 1.11-4.81 1.13-4.91.09-.38.94-4.07.28-1.21.94-4.06.29-1.23 1.23-5.28.74-3.2.49-2.08 1.23-5.28h21.71l.32-1.41.9-3.87 1.23-5.28.13-.55 1.09-4.73 1.16-4.99.05-.17v-.12h.02l1.23-5.28.96-4.14.17-.77.09-.38H91.33Zm-.3 15.26-.14.6-1.23 5.28H78.79l.35-1.5.88-3.79 1.23-5.28h10.86l-1.09 4.68Z" fill="url(#067955f6-5eb7-4a17-925c-f6128c2b6814)"/>
            <path d="M2.37 73.94 0 93.29h5.53l.85-6.91H20.2l1.54-12.44zm13.15 5.53-.03.22-.3 2.18H6.83l.5-3.56h8.36l-.16 1.16Z" fill="#ffffff"/>
            <path d="m42.48 86.38 1.54-12.44H24.67L22.3 93.29h5.53l1.64-13.37.05-.46.13-1.16h8.36l-.49 3.56H30.6l-.55 4.52 6.07 6.91h7.83l-6.07-6.91h4.61Z" fill="#ffffff"/>
            <path d="m47.06 73.94-2.38 19.35h15.15l4.79-4.79 1.79-14.56zm13.08 6.05-.05.38-.91 7.39h-8.29l.72-5.89.3-2.39.14-1.16h8.32L60.13 80Z" fill="#ffffff"/>
            <path d="m69.71 73.94-.53 4.37h13.88l-.49 3.56-1.64 13.18h-8.29l1.6-13.18h-5.53l-2.28 18.7h15.01l4.96-4.96 2.69-21.67H69.73Z" fill="#ffffff"/>
            <path d="m109.79 86.38 1.54-12.44H91.98L89.6 93.29h5.53l1.4-11.42.3-2.4.14-1.16h8.35l-.49 3.56h-6.86l-.62 4.51 6.07 6.91h7.82l-6.07-6.91z" fill="#ffffff"/>
            <path d="M114.37 73.94 112 93.29h19.35l2.38-19.35h-19.35Zm13.14 5.53-1.02 8.29h-8.29l1.02-8.29.14-1.16h8.3l-.16 1.16z" fill="#ffffff"/>
            <path d="m136.77 73.94-2.37 19.35h5.53l.85-6.91h13.83l1.53-12.44h-19.35Zm12.9 7.59-.05.34h-8.41l.5-3.56h8.41z" fill="#ffffff"/>
            <path d="m177.7 78.28.53-4.37h-19.35l-1.45 11.72h13.93l-.49 3.56H157l-.5 4.07h19.35l1.49-11.42H163.3l.49-3.56h13.89Z" fill="#ffffff"/>
        </g>
    </g>
</svg>
