<?xml version="1.0" encoding="UTF-8"?>
<svg id="Layer_1" xmlns="http://www.w3.org/2000/svg" xmlns:xlink="http://www.w3.org/1999/xlink" version="1.1" viewBox="0 0 297.2 68.8">
  <!-- Generator: Adobe Illustrator 30.0.0, SVG Export Plug-In . SVG Version: 2.1.1 Build 123)  -->
  <defs>
    <style>
      .st0 {
        fill: url(#linear-gradient1);
      }

      .st1 {
        fill: url(#linear-gradient);
      }

      .st2 {
        fill: #fff;
      }
    </style>
    <linearGradient id="linear-gradient" x1="31.1" y1="1083.2" x2="44.6" y2="1029.2" gradientTransform="translate(0 -1015.8)" gradientUnits="userSpaceOnUse">
      <stop offset="0" stop-color="#7500fa"/>
      <stop offset="1" stop-color="#9e00fa"/>
    </linearGradient>
    <linearGradient id="linear-gradient1" x1="26.9" y1="1012" x2="20.8" y2="1079" gradientTransform="translate(0 -1015.8)" gradientUnits="userSpaceOnUse">
      <stop offset="0" stop-color="#fff"/>
      <stop offset="1" stop-color="#ccc"/>
    </linearGradient>
  </defs>
  <path class="st1" d="M28.8,68.8h7.5l.2-.2v.2c0,0,7.3,0,7.3,0l4.6-4.6.2-.7.4-1.8.8-3.5.9-3.7.4-1.5,1.2-5.3.7-2.9.6-2.4.8-3.5.4-1.8.5-2,.8-3.2,1.2-5.3.3-1.2.9-4.1,1.2-5.3v-.2h0c0,0,1.1-5,1.1-5l1.1-4.8v-.4c0,0,.1,0,.1,0v-.3c0,0,0,0,0,0l-2.1-4.7V.1h-7.6v.5c0,0-1.2,4.8-1.2,4.8l-1.1,4.9v.4c0,0-1,4.1-1,4.1l-.3,1.2-.9,4.1-.3,1.2-1.2,5.3-.7,3.2-.5,2.1-1.2,5.3h-21.7l-.3,1.4-.9,3.9-1.2,5.3v.5c-.1,0-1.2,4.7-1.2,4.7l-1.2,5v.2c0,0,0,.1,0,.1h0l-1.2,5.3-1,4.1-.2.8v.4c0,0,14,0,14,0h0ZM29.1,53.5v-.6c.1,0,1.4-5.3,1.4-5.3h10.9l-.3,1.5-.9,3.8-1.2,5.3h-10.9l1.1-4.7h0Z"/>
  <path class="st0" d="M33.3,0h-15l-4.6,4.6-.2.7-.4,1.8-.8,3.5-.9,3.7-.4,1.6-1.2,5.3-.7,2.9-.6,2.4-.8,3.5-.4,1.8-.5,2-.8,3.2-1.2,5.3-.3,1.2-1,4.1-1.2,5.3v.2h0c0,0-1.1,5-1.1,5l-1.1,4.8v.4c0,0-.1,0-.1,0v.3c0,0,0,0,0,0l2.1,4.7v.2h7.6v-.5c0,0,1.2-4.8,1.2-4.8l1.1-4.9v-.4c0,0,1-4.1,1-4.1l.3-1.2.9-4.1.3-1.2,1.2-5.3.7-3.2.5-2.1,1.2-5.3h21.7l.3-1.4.9-3.9,1.2-5.3v-.5c.1,0,1.2-4.7,1.2-4.7l1.2-5v-.2c0,0,0-.1,0-.1h0l1.2-5.3,1-4.1.2-.8v-.4c0,0-14,0-14,0h0ZM33,15.3v.6c-.1,0-1.4,5.3-1.4,5.3h-10.9l.3-1.5.9-3.8,1.2-5.3h10.9l-1.1,4.7h0Z"/>
  <g>
    <path class="st2" d="M73.1,23.6l-3,24.6h7l1.1-8.8h17.6l2-15.8h-24.7ZM89.9,30.6v.3s-.4,2.8-.4,2.8h-10.6l.6-4.5h10.6l-.2,1.5h0Z"/>
    <path class="st2" d="M124.2,39.4l2-15.8h-24.6l-3,24.6h7l2.1-17v-.6c0,0,.2-1.5.2-1.5h10.6l-.6,4.5h-8.8l-.7,5.8,7.7,8.8h10l-7.7-8.8h5.9,0Z"/>
    <path class="st2" d="M130,23.6l-3,24.6h19.3l6.1-6.1,2.3-18.5h-24.6ZM146.7,31.3v.5c0,0-1.2,9.4-1.2,9.4h-10.5l.9-7.5.4-3,.2-1.5h10.6l-.3,2.1h0Z"/>
    <path class="st2" d="M158.8,23.6l-.7,5.6h17.7l-.6,4.5-2.1,16.8h-10.5l2-16.8h-7l-2.9,23.8h19.1l6.3-6.3,3.4-27.6h-24.7Z"/>
    <path class="st2" d="M209.9,39.4l2-15.8h-24.6l-3,24.6h7l1.8-14.5.4-3.1.2-1.5h10.6l-.6,4.5h-8.7l-.8,5.7,7.7,8.8h10l-7.7-8.8h5.9Z"/>
    <path class="st2" d="M215.7,23.6l-3,24.6h24.6l3-24.6h-24.6ZM232.4,30.6l-1.3,10.5h-10.5l1.3-10.5.2-1.5h10.6l-.2,1.5h0Z"/>
    <path class="st2" d="M244.2,23.6l-3,24.6h7l1.1-8.8h17.6l1.9-15.8h-24.7ZM260.6,33.2v.4h-10.8l.6-4.5h10.7l-.6,4.1Z"/>
    <path class="st2" d="M296.3,29.1l.7-5.6h-24.6l-1.8,14.9h17.7l-.6,4.5h-17.7l-.6,5.2h24.6l1.9-14.5h-17.9l.6-4.5h17.7Z"/>
  </g>
</svg>