<?xml version="1.0" encoding="UTF-8"?>
<svg data-bbox="0.003 0.008 386.775 144.546" viewBox="0 0 386.78 144.55" xmlns="http://www.w3.org/2000/svg" data-type="ugc">
    <g>
        <path d="M367.77 30.05c1.67-3.04 4.61-4.7 7.4-6.37 6.08-3.63 11.34-.61 11.39 6.53.1 13.52.02 27.05.04 40.57 0 3.79.02 7.58.17 11.37.1 2.64-.7 4.77-2.57 6.66-1.14 1.15-2.12 2.52-2.88 3.95-5.64 10.55-7.21 11.36-19.64 9.32 2.44 12.56-2.23 21.63-13.71 27.08-3.28 1.47-6.59 2.82-10.24 3.06-5.79.75-11.09-.74-16.19-3.39-1.32-.68-2.49-2.48-4.38-1.09-.65.59-1.41.99-2.17 1.4-1.24.41-2.49 1.22-3.71 1.17-9.49-.37-19.23.15-28.24-2.9-4.62-1.56-6.93-1.53-8.81 2.81-6.41 3.8-12.86 1.82-19.02-.42-2.46-.9-4.36-2.19-6.74-.34-.26.2-.59.48-.88.44-10.95-1.83-21.21 6.51-32.33 2.15-1.64-.64-3.29-.28-4.84.41-6.68 2.96-13.75 4.76-20.71 6.89-7.53 2.3-9.78 1.11-11.77-6.52-.5-1.92-.99-3.83-1.73-5.67-2.98-10.95-4.85-22.16-7.69-33.15-.74-2.87-1.6-4.89-4.72-5.46-1.93-.35-2.9-2.07-4.22-3.29-3.91-3.59-5.86-3.56-9.59.25-3.05 3.11-5.97 6.39-11.06 4.9-5.61-1.92-10.54-5.54-16.53-6.46-1.96-.03-3.93-.12-5.88.16-.81.24-1.6.6-2.04 1.31-3.51 5.6-8.23 7.76-14.71 5.41-1.76-.64-3.24.22-4.43 1.47-2.39 2.52-5.3 4.42-7.85 6.74-6.03 5.51-8.29 5.81-15.92 2.23-4.47-2.65-6.58-7.05-8.58-11.52-1.66-3.72-2.67-7.67-4.15-11.45-.54-2.2-2.06-2.28-3.86-1.77-1.88.53-3.31 1.54-3.68 3.6-.57 3.1-.02 5.91 2.25 8.25.64 1.07 1.12 2.21 1.38 3.43.95 10.03-2.93 13.26-12.8 12.25-4.92-.5-9.86-.89-14.77-1.58-6.78-2.92-8.36-7.17-5.45-13.72 2.54-5.7.33-11.7.67-17.56.49-8.64-.82-15.42-11.71-17.38C5.25 52.81.61 47.87.05 41c-.33-4.03 1.08-7.26 4.73-9.04 3.67-1.78 7.54-1.74 10.64 1.19 2.15 2.03 3.99 2.75 6.35.63 2.14-2.62 5.38-3.68 8.03-5.58 4.94-3.48 10.27-6.29 15.51-9.27 10.23-4.39 20.58-7.14 31.5-2.4 5.49 2.34 9.6 6.31 13.03 11.05 3.97 5.5 4.37 5.67 10.17 2.57 2.58-1.38 5.01-1.2 7.59-.05 1 .45 3.14 1.71 2.87-.63-1.14-9.77 5.72-12.26 12.82-14.71 2.7-1.16 5.5-2.15 8-3.66 5.78-3.52 11.1-3.06 16.18 1.3 2 1.98 2.6 4.36 2.05 7.07-.28 1.12-.9 2.09-1.44 3.1q-2.62 4.87 2.74 7.86c-.27-3.3-.82-6.45.15-9.53 1.72-4.09 4.12-7.56 8.49-9.24 4.24-2.12 8.63-2.31 13.13-.99 5.83 1.87 9.24 5.93 10.96 11.68 1.43 4.79 8.01 7.57 12.57 5.25 3.5-1.78 6.7-1.45 9.78.66 3.93 2.7 8 5.2 11.85 8.02 2.29 2.15 3.48 2.21 3.47-1.47-.01-4.79-.05-9.52-1.79-14.1-.64-1.67-1.19-3.44-.96-5.31.18-1.2.64-2.3 1.26-3.34 1.77-2.86 4.58-4.04 7.7-4.7 4.61-1.69 9.2-3.46 13.85-5.05 4.48-1.54 8.65-.97 11.37 3.19 1.43 2.19 2.74 1.11 4.12.61 4.78-1.75 9.44-3.83 14.27-5.38 7.27-2.34 12.45 1.14 13.22 8.54.94 1.06 1.09 2.27.69 3.59-1.61 3.04-5.25 5.13-4.44 9.32.02.96.01 1.91.01 2.87-.05 3.46.01 6.93-.05 10.39-.05 2.79.86 3.78 3.5 2.15 1.97-1.22 4.02-2.31 5.97-3.57 4.92-3.18 9.64-2.78 14.34.54 2.73 1.93 5.29 4.08 7.25 6.72 2.3 3.09 4.67 3.07 7.68 1.31 2-1.17 4.03-2.29 6.03-3.44 6.12-3.52 9.97-3.21 15.47 1.14 2.07 1.64 4.07 3.34 5.78 5.39 3.61 4.32 6.33 3.94 9.37-1.11 1.49-6.86 5.18-11.93 11.93-14.5Z" fill="#2d2829"/>
        <path d="M138.67 89.53c5.08 1.22 7.9-2.12 10.83-5.29 3.87-4.19 7.42-4.22 11.2.2 1.43 1.67 2.51 3.17 5.06 3.28 2.77.12 3.35 2.28 3.88 4.81 2.39 11.32 5.08 22.57 7.66 33.85-.9.91-2.06 1.11-3.27 1.2-19.8 1.31-39.46 3.84-59.11 6.53-20.49 2.81-40.9 6.14-61.19 10.16-1.63.32-3.3.32-4.96.24-5.48-.28-6.92-1.72-8.43-7.17-.66-2.39-.59-4.85-1.35-7.18-1.03-5.48-2.75-10.94-2.91-16.44-.18-6.32-2.4-10.1-8.72-11.25 5.97-.06 11.91-.24 17.84.9 4.6.88 8.81-3.2 8.74-7.95-.02-1.32.04-2.64.07-3.95 4.51.96 5.7 5.51 2.61 9.95 1.02 1.52 4.32.38 4.09 2.66-.22 2.19-2.91 2.28-4.76 2.83-2.84.85-5.62 1.88-8.48 2.66-1.43.39-2.97.7-3.06 2.64 1 7.14 2.39 14.2 4.15 21.18.43 1.08.75 2.26 2.24 2.35 11.55-1.02 22.76-3.98 34.17-5.74 4.57-.71 9.09-1.74 13.7-2.24 22.71-3.23 45.51-5.73 68.34-8.01 4.48-.45 5.58-2.02 4.12-6.21-1.15-3.29-1.81-6.65-2.34-10.06-.77-2.16-1.36-4.42-3.28-5.98-.49-.4-1.18-.9-.91-1.63 2.1-5.62-3.28-5.9-5.91-7.65-2.83-1.87-6.14-1.89-9.04.99-2.97 2.94-6.75 4.22-10.95 2.96-1.33-.4-3.64-.33-2.89-2.95 1-.34 1.96-.32 2.85.29Z" fill="#6e3d1d"/>
        <path d="m227.41 7.36-7.05 4.79c-1.11.91-2.41.95-3.75.86-9.89-.66-19.8-.3-29.69-.25-4.77.03-9.47-.57-14.21-.74-4.58-1.62-9.01-1.13-13.32.95-4.25.49-8.51.75-12.78.16-4.81-3.91-9.55-5.12-14.98-.74-2.2 1.78-5.32 2.42-8.02 3.58-5.34-1.93-10.81-.48-16.14-.28-10.17.4-20.31 1.61-30.49 2.23-9.62-4.94-19.03-2.88-28.39.86-1.2.48-2.44.87-3.67 1.3-3.09.94-6.08 2.11-9.38 2.37-5.44.44-6.01 1.29-5.47 6.68-2.52 1.98-5.14 3.79-8.29 4.63-.21-1.14-.45-2.27-.61-3.41-1.24-9.14 1.34-12.09 10.64-13.31 39.17-5.14 78.51-8.25 117.98-9.54 25.86-.84 51.75-1.83 77.63-.16Z" fill="#6f3d1d"/>
        <path d="M367.77 30.05c-4.56 4.24-10.11 7.77-10.73 14.83-3.48 1-6.42-.01-9.06-2.15.28-1.12 1.03-1.47 1.78-1.82 9.84-4.53 8.56-6.49 8.94-15.52.15-3.48-2.51-4.34-5.3-4.71-10.19-1.38-20.43-2.32-30.68-3.13-10.74-.85-21.47-1.83-32.25-2.19-2.27-.08-4.67-.36-6.37-2.29.04-1.27.08-2.53.13-3.8 23.87 2.08 47.79 3.56 71.56 6.67 8.22 1.08 9.68 2.7 10.31 10.8.11 1.39.29 2.62 1.67 3.32Z" fill="#6e3d1e"/>
        <path d="M48.97 137.12c-1.27-.62-1.01-1.82-1.11-2.88 1.69-2.46 4.88-2.12 7.03-3.72 1.9-.6 3.82-1.09 5.83-1.17 9.03-1.1 17.8-3.41 25.93-5.62-5.18.34-10.5 4.43-17.01 2.75.95-2.56 3.01-2.39 4.54-3.06l-.06-.06c-3.32.87-6.36 2.96-10.04 2.33-4.16-4.29-3.86-6.42 1.3-8.66 1.66-.72 3.27-1.61 5.06-2.03.22-.05.84-.1.6-.3-.3-.26-.92-.23-1.39-.43-6.45-1.74-13.03-1.44-19.6-1.47-2.43-.01-4.98.39-7.07-1.39.2-2.42 2.18-2.51 3.91-3.02 4.37-1.28 8.72-2.63 13.33-4.02-1.19-1.44-2.37-.74-3.38-.91-.94-.16-2.08.15-2.59-.97-.6-1.32.34-2.16 1.17-2.97 2.46-2.41 1.96-5.32-1.39-8.05-.39-.96-.79-1.92-1.18-2.89-2.05-2.86-2.66-6.1-.61-8.94 1.72-2.37 4.42-3.8 7.6-1.96 2.55 5.33 3.4 11.34 6.71 16.38 1.54 2.34 2.98 4.71 5.34 6.35 5.94 4.08 10.45 3.53 15.85-1.5 2.26-2.11 4.12-5.66 8.32-3.85 6.74 1.95 13.76 1.16 20.62 1.99 8.56 1.04 17.11 2.03 25.36 4.62 1.99.63 4.57 1.08 4.89 3.6.34 2.62-2.2 3.39-3.99 4.48-7.83 4.79-16.44 7.83-25.08 10.72-21.86 7.32-44.5 11.49-67.02 16.13-.64.13-1.32.08-1.87.51Z" fill="#915027"/>
        <path d="M284.11 13.06c13.99 1.03 27.99 1.93 41.97 3.12 9.52.81 19.02 1.87 28.5 3.07 4.3.54 7.19 2.57 5.52 7.69-.34 1.05-.1 2.3-.12 3.45-.14 7.7-3.21 11.05-11.68 11.86 3.45 1.03 6.1 1.83 8.75 2.62-.28 3.87-3.84 4.19-6.3 5.51-1.97 1.06-2.97-1.12-3.88-2.27-2.07-2.6-4.39-4.87-6.96-6.97-4.99-4.09-7.81-4.43-13.54-1.28-.58.32-1.14.67-1.71 1.01-9.38 5.65-9.32 5.58-17.12-1.97-6.93-6.7-11.27-8.11-19.15-2.69-2.61 1.79-5.8 5.33-8.52 3.7-2.05-1.23-.5-5.84-.65-8.94-.09-1.97.06-3.96.1-5.94 2.08-1.88 4.67-1.42 7.12-1.44 18.91-.16 37.81-.24 56.68.8 2.03 0 2.64 1.44 3.37 3.02 1.21 2.62 3.52 3.31 6.19 2.64 1.31-.33 2.49-1.15 2.68-2.62.26-1.95-1.06-2.56-2.72-2.72-1.63-.25-3.26-.46-4.92-.28-1.36.24-2.68-.06-4-.33-15.66-.1-31.25-2.38-46.97-.85-5.74.56-11.84 1.72-17.48-1.18-.87-4.33 1.87-6.74 4.85-9.03Z" fill="#925128"/>
        <path d="M172.71 12.02c1.36-1.4 3.12-.8 4.7-.81 11.72-.06 23.44-.11 35.16-.01 2.6.02 5.2.62 7.79.95-.34.98-.68 1.96-1.02 2.95-1.67 2.91-.5 5.77.41 8.49.9 2.7 1.28 5.47 1.27 8.21 0 2.32-.16 5.12-3.68 5.28-4.12-2.68-8.24-5.33-12.35-8.03-3.08-2.02-6.31-2.4-9.04.2-2.22 2.12-3.66 1.22-6 .23-4.46-1.89-7.76-3.87-8.71-9.33-.71-4.11-4.28-6.86-8.54-8.12Z" fill="#9e582e"/>
        <path d="M76.97 17.94c.63-1.39 1.8-1.72 3.22-1.82 12.92-.92 25.82-1.96 38.75-2.71 1.63-.09 4.15-.12 4.66 2.58-1.08.42-2.16.81-3.23 1.26-8.63 3.61-9.8 5.76-8.17 14.98-.42.73-1.24.77-1.73.47-4.7-2.87-8.68-3.03-13.46.78-3.21 2.56-5.66-1.65-7.37-4.09-3.38-4.82-7.27-8.92-12.67-11.45" fill="#945229"/>
        <path d="M178.26 105.55c-.93-.71-.6-1.8-.82-2.72-2.68-11.32-2.69-11.36 8.71-14.13 3.99-.97 8.02-1.87 12.08-2.47 4.27-.63 8.47-.03 10.97 3.94 2.58 4.09 2.31 8.4-.29 12.54-.28.45-1.14.87-.38 1.6-2.79 3.34-7.34 3.53-12.02.52-.44-.81-.24-1.53.23-2.29.68-1.09 1.75-2.24.56-3.55-.9-.98-2.16-.59-3.29-.36-1.42.29-2.48.91-2.44 2.6.03 1.32.06 2.65-.67 3.86-4.13 2.82-8.36 2.28-12.65.45Z" fill="#f3e1a2"/>
        <path d="M277.11 99.56c1.57-8.74 7.07-13.78 16.11-14.77 8.71-.96 18.5 3.97 21.31 10.71.71 1.71 1.5 3.76.6 5.22-1 1.63-3.02.27-4.58.08-3.54-.45-6.56-.87-9.01-4.63-2.76-4.24-8.45-2.24-11.57 3.46-4.15 3.24-9.61 3.21-12.87-.07Z" fill="#f2e0a1"/>
        <path d="M316.82 103.36c1.73-8.28 7.57-12.57 18.21-13.38 10.55-.8 18.9 4.91 21.15 14.45-.91 3.1-3.61 2.15-5.7 2.39-1.77.2-3.59.1-5.37-.21-1.76-.3-2.76-1.56-3.83-2.85-4.2-5.1-6.74-5.12-10.97-.19-.65.76-1.29 1.49-2.27 1.82-2.52.69-5.09.59-7.63.35-1.53-.15-3.33-.2-3.59-2.38" fill="#f3e0a1"/>
        <path d="M68.66 35.06c-6.08-3.55-12.33-2.69-18.65-.77-2.01.61-3.84 1.98-6.12 1.58-2.69-.64-5.73.15-8.07-1.93 8.12-5.62 16.31-11.13 26.55-12.06 9.48-.86 16.59 2.95 21.31 11.16-.6 1.62-2.01 2.14-3.49 2.08-3.85-.16-7.7.42-11.55-.06Z" fill="#90c24a"/>
        <path d="M214.4 108.39c2.91 4.87 3.05 9.55-.96 13.96-5.11-.03-10.48 1.82-15.05-2.08-.44-1.51.87-1.93 1.69-2.64 1.19-1.03 3.16-1.79 2.05-3.85-.74-1.37-2.3-1.03-3.6-.81-1.93.33-3.55.98-3.24 3.45.22 1.81.38 3.64-1.26 5.02-3.96 1.82-7.92 1.98-11.86-.05-1.23-3.94-2.51-7.87-2.8-12.03 5.89-2.59 12.27-1.98 18.4-2.25 5.49-.25 11.13.28 16.63 1.27Z" fill="#f4ac35"/>
        <path d="M258.61 61.56c-.29-3.78-.3-7.54.12-11.33.53-4.74-3.43-7.6-8.02-6.03-5.57 1.91-9.64 4.87-8.45 11.63-2.29 1.08-3.4-.47-3.22-2.15.55-5.02-1.91-6.79-6.46-6.88-.66-.01-1.2-.49-1.67-.97-.63-1.05-.54-2.22-.53-3.36.02-2.27-.44-4.87 2.74-5.51 2.84-.57 6.1-.86 7.52 2.07 1.86 3.83 4.32 3.11 6.78 1.5 4.94-3.24 10.44-3.57 16.03-3.85 5.96-.29 7.67 1.04 8.8 6.79.71 3.59.35 7.2.43 10.8-3.04 1.49-2.56-1.46-2.97-2.63-.85-2.43-1.36-4.83-4.79-4.3s-3.14 3.08-3.31 5.58c-.21 3.11.07 6.48-3.02 8.63Z" fill="#f2d45f"/>
        <path d="M256.28 117.33c-2.41-4.6-4.82-9.19-7.23-13.79 3.2-2.39 6.73-1.62 10.25-1.08 1.14.37.72 2.46 2.24 2.15.4-.08.54-1.38.8-2.12 3.9-2.4 7.8-1.39 11.7.02-.65 4.94-1.3 9.88-1.96 14.82-5.27 2.21-10.53 2.45-15.8 0" fill="#f5af34"/>
        <path d="M29.84 84.62c-1.1-7.2-.66-14.46-.88-21.69-.26-8.73-.22-8.73-6.27-13.31 5.01-3.46 20.08-9.5 23.8-9.28-6.07 7.34-3.09 15.7-3.24 23.67-.15 8.07.09 16.14.15 24.21-3.18-3.37-1.43-8.14-3.42-11.84-.42-1.9-.44-3.82-.42-5.75-.06-1.93-.05-3.86 0-5.78-.03-1.57-.05-3.15.01-4.72-.08-5.37-1.03-6.58-4.6-5.91-3.77.72-2.28 3.74-2.63 5.96.12 1.63.03 3.24.04 4.87.01 4.97.16 9.95-.33 14.91-.59 1.62-.65 3.49-2.21 4.65Z" fill="#e7de87"/>
        <path d="M349.25 73.53c-.63-1.21.81-3.08-1.24-3.84-3.23-3.31-6.78-2-10.33-.7-2.96-2.55-2.99-6.85-5.75-9.53-.93-.9-1.62-2.58-2.97-2.3-1.86.38-1.21 2.39-1.52 3.73-.73 3.21 1.29 7.01-2.13 9.65-3.73.69-7.46 1.49-10.96-.79-.65-4.87 1.09-9.69.11-14.61-.48-2.42 2.12-2.37 3.65-3.06.56.57.61 1.25.44 1.98-.23.79-.68 1.51-.77 2.34-.21 1.9.89 2.73 2.59 2.89 1.85.17 2.79-.76 2.78-2.61-.01-1.98-.2-4.02 1.87-5.27 2.11-.67 3.74.54 5.47 1.37q4.23 2.715 6.84 6.99c1.41 2.3 3.37 3.44 6.39 3.05 0-3.55-3.64-5.56-3.58-8.96.07-.75.33-1.4.97-1.85 3.88 3.58 5.7 8.31 7.71 13.45-.77-7.36 5.36-8.64 9.57-11.65 2.72-1.94 5.41-2.85 8.69-1.42 1.46.63 3.32 1.19 3.59-1.49.47-.34.96-.38 1.48-.1.91 1.1.98 2.36.69 3.68-.48 1.48-1.69 2.39-3.01 1.7-6.74-3.52-11.13 1.24-16.03 4.26-.28.17-.5.43-.71.67-1.75 3.53-1.41 7.47-2.19 11.19-.32.72-.7 1.34-1.65 1.23" fill="#ebc93c"/>
        <path d="M272.03 54.76c.14-3.78.11-7.47-.63-11.27-1.02-5.28-4.15-5.53-8.59-5.6-6.81-.11-12.67 2.38-18.58 5.07-2.19.99-3.73 1.38-3.95-1.88-.28-4.15-3.62-2.92-6.07-3.09-3.09-.22-2.85 2.01-2.86 4.01 0 1.32.03 2.64.04 3.96 1.45 2.66 2.03 5.03-1.95 5.93.04-6.63.07-13.27.11-19.9 4.27-2.71 8.55-1.69 12.83-.02l-.02-.02c.91 2.17.21 4.45.44 6.66.11 1.01-.47 2.41 1.33 2.56 4.39-1.71 7.96-5.33 13.12-5.32 2.72 0 1.07-2.63 1.87-3.84 4.34-2.27 8.69-2.31 13.03 0 .93 11.45 1.01 22.92.34 34.39-1.49-.92-1.48-2.45-1.62-3.93.02-2.62-.63-5.35 1.14-7.71Z" fill="#ddca44"/>
        <path d="M237.22 97.64c.07-1.98-.17-4.04.28-5.93.7-2.92-1.32-7.46 2.41-8.5 5.59-1.56 10.86 1.41 13.11 5.96 1.53 3.09 2.93 6.25 4.39 9.37-.17 1.75-1.59 2.04-2.88 2.17-4.96.5-9.95.27-14.92.55-2.33.13-3.26-1.32-2.39-3.62" fill="#f3e0a1"/>
        <path d="M198.46 119.46c2.87 2.02 6.15 1.8 9.43 1.88 1.88.04 3.98-.77 5.57 1.01-7.86 7.71-18.91 7.6-28.4 12.03-.89-4.73-2.72-8.65-2.87-12.97 4.17-.59 8.54.9 12.56-1.23 1.08-1.06 2.15-2.14 3.72-.72Z" fill="#f5b834"/>
        <path d="M354.16 117.39c-8.89 11.37-27.37 11.45-34.21.15-.15-2.46 1.86-2.32 3.3-2.46 2.72-.26 5.42-.82 8.16-.81 3.67 1.19 7.38 1.93 11.23.77 3.93.34 8.36-1.72 11.52 2.35" fill="#f6ba35"/>
        <path d="m292.23 113.33 5.83.96c5.06-.15 10.22-1.71 15.07 1.05-.26 1.57-.55 3.13-.77 4.7-.56 4.07-5.46 6.42-7.58 3.21-2.09-3.17-3.42-1.35-5.18-.93-7.66 1.83-14.28.35-19.45-5.9-.16-2.76 1.92-3.11 3.85-3.3 2.73-.27 5.51-.63 8.23.21" fill="#f5bb35"/>
        <path d="M201.32 48.94c-.5-.4-1.03-.78-1.5-1.21-4.52-4.09-4.98-3.94-6.46 2.07-1.15.4-1.78-.29-2.36-1.11-.62-1.4-.42-3.41-2.78-3.49-2.08-.07-3.44.85-4.25 2.71-.33.75-.66 1.5-1.27 2.09-.46.25-.87.17-1.24-.2-.5-2.34-.04-5.06-2.61-6.59-1.32-.79-.63-1.56.03-2.34.85-1 1.84-1.93 2.51-3.05 2.17-3.61 4.6-3.89 7.75-1.09 3.47 3.09 6.92 4.17 9.84-.85.92-1.59 2.19-1.51 3.69-.33 2.06 1.64 4.17 3.4 6.55 4.42 5.89 2.52 6.94 6.53 4.47 11.99-1-.27-1.42-1.08-1.82-1.91-.7-1.86.43-4.35-1.97-5.63-2.29-2.17-5.07-1.77-7.76-1.28-3.17.58-.32 1.59-.07 2.42.78 1.03 1.29 2.1.59 3.37-.44.37-.89.38-1.34.02Z" fill="#b6d06d"/>
        <path d="M378.83 84.28c-3.72 2.62-2.47 10.14-7.75 10.03-4.52-.1-9.23-1.78-13.99-2.3-3.48-.38-7.71-6.06-7.83-9.45.42-.36.9-.55 1.45-.59 4.49.77 8.9-.26 13.33-.7 1.36-.04 2.73-.04 4.09.03 3.46 1.37 7.88-.64 10.7 2.99Z" fill="#f4e1b7"/>
        <path d="M248.57 103.54c-.41 5.23-1.02 10.46-1.16 15.7-.08 3.07-.81 4.39-4.22 4.11-10.16-.81-7.96.21-7.68-8.5.14-4.42.79-8.82 1.21-13.22 3.88 1.04 8.24-.79 11.85 1.91" fill="#f4b135"/>
        <path d="M279.26 22.08c8.72-.06 17.42-.3 26.14-.85 11.82-.75 23.66 1.55 35.53.85 1.75-.1 3.3.22 4.13 2.02.2.23.26.44.16.64-.09.19-.17.29-.25.29-3.25 1.85-6.87 1.27-10.21.92-18.47-1.93-36.98-.35-55.45-.92l-.06-2.95Z" fill="#a35b30"/>
        <path d="M87.03 57.78c-1.82-5.78.12-9.73 5.55-12.51 2.9-1.49 5.6-3.6 7.94-5.88 2.55-2.48 4.74-2.3 7.27-.32 3.89 3.04 7.76 6.09 9.69 10.86-.16.76-.58 1.23-1.41 1.21-3.32-2.96-7.03-2.92-10.93-1.38-.8.41-1.61.78-2.5.94-2.01.1-2.66 1.29-2.69 3.13-.02 1.4 0 2.85-1.02 4.02-1.09.48-1.84-.08-2.54-.81-.4-.62-.62-1.3-.72-2.02-.07-.48-.02-.97-.11-1.44-.3-1.59.83-4.33-1.6-4.37-2.5-.05-4.52 1.7-4.06 4.84.05.32.03.64.04.97-.03 1.01-.22 1.96-.84 2.79-.7.5-1.39.56-2.07-.03" fill="#bdd479"/>
        <path d="M219.54 101.37c0-2.31-.1-4.63.02-6.93.52-9.67.54-9.53 9.94-8.9 3.04.2 4.15 1.16 3.73 4.17-.49 3.59-.73 7.22-1.08 10.83-3.97 3.76-8.25 2.88-12.61.83" fill="#f2dfa1"/>
        <path d="M229.45 51.88c2.53-1.37 1.67-3.83 1.95-5.93.82-.02 1.64-.05 2.46-.05 6.32-.01 6.97.51 6.4 6.57-.18 1.94-.35 3.21 2 3.36l-.09 8.91c-4.24 2.3-8.49 2.17-12.73 0 0-4.29.01-8.58.02-12.86Z" fill="#f7db8c"/>
        <path d="M123.85 51.89c-.09-3.35-.17-6.7-.26-10.04-.15-.46-.35-.89-.37-1.4-.41-9.23 3.6-11.67 12.27-7.44v6.71c1.81.58 2.4-.68 3.24-1.31 5.4-4.06 6.27-4.05 10.74 1.07 2.69 3.07 5.03 6.4 6.01 10.47-.61.53-1.28.52-1.98.23-1.63-1.39-2.51-3.31-3.63-5.07-1.05-1.85-2.38-3.51-4.17-4.65-2.99-1.91-5.11.3-6.66 2.16-1.85 2.22 1.39 2.14 2.14 3.24 1.34 1 2.76 1.96 2.78 3.89-.26.7-.73 1.18-1.44 1.43-2.61-.8-5.19-2.98-7.87-.15-1.95-.92-2.07-2.74-2.28-4.53-.21-1.73-.01-3.94-2.6-3.91-2.86.03-2.35 2.45-2.78 4.29-.45 1.96 1.09 5.33-3.13 5.02Z" fill="#c7c747"/>
        <path d="M272.03 54.76c.01 2.65.03 5.31.04 7.96-1.74 1.72-4.01 1.48-6.08 1.32-3.36-.26-5.31 1.11-6.14 4.27-.34.51-.78.62-1.32.35l.09-7.1c.98-3.68 2.1-7.33 1.69-11.23-.33-3.25 1.65-4.41 4.49-4.39 2.41.02 5.49-1.09 5.61 3.29.05 1.86 1.05 3.69 1.62 5.53" fill="#f8dd8f"/>
        <path d="M35.83 33.94c2.8.2 5.83-.59 8.07 1.93-7.4 4.36-15.17 7.92-23.41 10.42-4.3 1.3-8.25.56-11.76-2.1-2.06-1.56-3.15-4.04-1.04-5.93 1.78-1.6 3.31-.06 4.67 1.86 2.53 3.57 6.13 2.3 9.46 1.19 5.07-1.69 9.2-5.19 14.01-7.38Z" fill="#bcc547"/>
        <path d="M313.13 115.34c-5.02-.47-10.17 1.06-15.07-1.05.87-1.19 2.91-.9 3.4-2.88-1.82-1.06-5.27-.64-4.21-4.71.83-3.18 1.54-5.21 5.37-3.6 1.16.49 2.6.31 3.89.54q9.91 1.76 6.62 11.71Z" fill="#f4ae35"/>
        <path d="M41.07 76.51c2.33 3.6 1.14 7.9 2.33 11.73 1.11 2.09 4.78 3.6 3.57 5.9-1.61 3.06-4.83.63-7.15-.04-3.02-.86-5.52.21-8.17 1.04-1.44.45-3 .92-4.14-.43-1.17-1.39.2-2.52.92-3.46 1.56-2.03 1.38-4.32 1.4-6.62.46-1.35-.15-2.97 1.07-4.12 1.24.67.83 2.53 2.27 3.04 4.78.02 6.29-3.57 7.9-7.04" fill="#f3e3c5"/>
        <path d="M258.53 68.66q.36.03.72 0c4.32-2.14 8.63-2.22 12.93.07.24 2.51 1.26 4.7 2.46 6.91 1.66 3.06.22 4.59-2.91 3.93-4.27-.89-8.4-1.6-12.65 0-1.06.4-2.3.1-3.1-1-.95-1.31-.64-2.62.36-3.58 1.87-1.78 1.97-4.05 2.19-6.34Z" fill="#f3e2c2"/>
        <path d="M160.82 65.58c.04-4.28-.22-8.6.2-12.84.37-3.73-.02-6.88-3.38-9.15 1.16-1.43 2.37-2.61 3.21-4 2.28-3.78 4.87-4.17 8.99-2.32 4.06 1.83 5.24 3.09 4.17 8.07-1.46 6.81-.61 14.11-.76 21.2-1.97-.16-1.65-1.79-1.98-3.01-.25-2.86.21-5.76-.63-8.58-.24-.98-.36-1.98-.4-2.98a33 33 0 0 1-.04-2.44c.02-2.22-1.02-3.31-3.31-3.25-2.06.06-2.92 1.17-2.98 3.1-.03 1.14 0 2.29-.04 3.43-.03 1.01-.16 1.99-.38 2.97-.86 2.5-.41 5.13-.77 7.68-.31.99-.41 2.18-1.9 2.13Z" fill="#e0d466"/>
        <path d="M151.81 69.78c-1.75 2.24-3.5 4.47-5.24 6.71-6.61-.65-13.22-.66-19.84-.12-5-.96-6.21-3.48-3.23-7.74 4.18-2.48 8.91-.75 13.29-1.72 3.37.04 6.61 1.99 10.08.73 2-.09 3.94-.07 4.94 2.13Z" fill="#f5e0b1"/>
        <path d="M229.72 25.89c-.37-3.03.22-6.28-2.56-8.67-1.3-1.12-.43-1.99.84-2.5 5.21-2.08 10.4-4.19 15.63-6.23 1.31-.51 2.64-.51 3.51.87.9 1.43.19 2.58-.91 3.43-2.74 2.13-3.37 5.14-3.77 8.29-1.03.96-2.33 1.43-3.66 1.26-3.72-.47-6.6.98-9.08 3.55" fill="#99c248"/>
        <path d="M280.16 48.74c4.85-2.73 9.77-5.36 14.52-8.25 1.93-1.17 3.32-.75 4.9.41 3.75 2.76 7 5.94 9.24 10.07-.15.84.15 1.93-1.18 2.12-2.92-2.43-5.81-4.97-9.79-1.86-.51.44-1.05.83-1.66 1.09-1.68.52-2.85-.58-4.14-1.28-1.39-.64-2.06.84-3.15 1.08-2.17-2.02-4.72-2.41-7.52-1.78-.68-.33-1.11-.84-1.21-1.6Z" fill="#bdd57e"/>
        <path d="M64.94 69.74c-1-2.24-1.86-4.56-3.03-6.7-1.88-3.44-3.59-3.38-5.5.06-.71 1.29-1.17 2.71-1.88 4-.68 1.23-1.68 2.19-3.2 1.26-1.29-.79-2.31-1.75-1.71-3.6.59-1.82 1.7-3.15 3.15-4.3 5.42-4.29 10.94-8.43 17.14-11.58 1.22-.85 2.63-.35 3.93-.56.46.05.87.21 1.24.49.39.67.3 1.26-.29 1.77-1.04 1.07-4.04 1.41-1.72 3.82 4.15 4.32 4.36 10.06 5.84 15.34-1.1.5-1.91-.07-2.69-.73-1.67-1.9-2.12-4.3-2.73-6.63-.4-1.77-.99-3.46-2.19-4.87-1.62-1.9-2.61-4.51-6.2-2.26-3.51 2.19-2.12 4.01-.59 6.26.46.67.8 1.43 1.17 2.16.73 1.57 1.41 3.14.94 4.93-.31.73-.75 1.29-1.66 1.13Z" fill="#edc749"/>
        <path d="M96.73 56.76c.61.33 1.22.67 1.84 1 1.64 1.1 1.37 2.86 1.46 4.44.15 2.72.52 5.25 3.49 6.44 2.82 1.13 5.12.26 7.14-1.77.35-.35.8-.56 1.26-.78 2.26-.23 4.51-.45 4.86 2.7-1.03 1.89-2.21 3.67-3.95 5.02-6.25-1.13-12.46.58-18.7.26-2.79-.14-5.62.02-8.18-1.42 1.88-4.85.91-9.91 1.07-14.88.61-.02 1.21-.03 1.82-.04 1.97 2.11.93 4.83 1.47 7.21 4.01 1.84 4.72 1.31 5.13-3.88.07-1.54.02-3.12 1.28-4.3Z" fill="#f3d57f"/>
        <path d="M262.38 99.47c-.4-2.81.79-5.55.62-8.26-.32-5.1 2.43-5.08 6.06-4.28 1.43.32 2.9.54 4.37.67 1.76.16 2.9.8 2.37 2.77-.81 3-.21 6.23-1.56 9.13-3.96 2.11-7.91 2.2-11.86-.03" fill="#f0dea0"/>
        <path d="M123.85 51.89c3.27-1.42 1.54-4.31 1.7-6.49.2-2.79.37-4.62 4.01-4.59 3.36.03 4.34 1.28 4.17 4.37-.11 2.05-.54 4.38 1.81 5.74 2.54 3.79 1.94 7.73.6 11.71-3.12 2.07-6.05 2.28-8.61-.9-.04-2.32 2.3-1.85 3.41-2.83.94-.83 1.4-1.79 1.09-3-.34-1.36-1.41-1.66-2.64-1.61-1.34.05-2.1.81-2.28 2.09-.23 1.6-.09 3.24-.51 4.83-.34.98-.63 2.02-2.06 1.62-.84-3.6-.72-7.26-.69-10.92Z" fill="#f0db79"/>
        <path d="M191.51 48.89c.62.31 1.24.61 1.85.92-.05 5.29-.09 10.58-.14 15.87-4.12.73-8.35.1-12.46.97-.34-5.64-.12-11.25.7-16.84.35 0 .71 0 1.06.01.58.43.9 1.05 1.16 1.69 3.71 3.38 5.28 2.92 7.29-2.17.17-.15.35-.3.53-.46Z" fill="#f3cc4f"/>
        <path d="M135.49 33c-.82 0-1.65 0-2.47-.01q-9.16-.02-9.43 8.86c-.26-2.75-.6-5.49-.74-8.25-.09-1.71-.24-3.37-1.8-4.34-4.99-3.11-2.35-4.47 1.24-5.64.77-.25 1.57-.41 2.35-.61 2.31.28 4.57-.63 6.88-.25 2.1.35 4.4.5 4.27 3.53-.1 2.24-.21 4.47-.31 6.71Z" fill="#a6c446"/>
        <path d="M354.16 117.39c-3.96-2.01-8.23-.59-12.32-1.14.84-3.6.13-7.48 2.07-10.87 4.08-.5 8.31 1.03 12.27-.94 1.52 4.66 1.15 9.02-2.02 12.96Z" fill="#f4ad39"/>
        <path d="M231.7 104.47c-.44 5.98.12 12.03-1.22 17.96-1.31-4.35-3.96-6.62-8.78-5.84-1.1.18-2.22-.35-3.04-1.23l.81-10.96c4.09-2.1 8.17-2.24 12.24.07Z" fill="#f3a836"/>
        <path d="M306.31 71.99c-1.16 1.73-2.28 3.5-4.19 4.53-7.3-.59-14.6-.86-21.9.02-3.73-1.09-6.91-2.41-2.95-6.81 4.38-2.67 9.16-1.19 13.78-1.29 3.75.94 7.49 2.36 11.37.43 1.94.25 3.96.4 3.89 3.12" fill="#f5db93"/>
        <path d="M292.23 113.33c-2.21 1.4-4.69.99-7.1 1.01-1.96.02-3.98-.18-4.97 2.08-3.14-3.43-4.16-7.52-3.75-12.05 4.26-3.18 8.33-3.18 12.58-.01-.18 3.44.38 6.62 3.25 8.97Z" fill="#f4aa37"/>
        <path d="M317.12 81.25c-1.01-.51-1.98-1.15-3.05-1.49-3.49-1.1-3.23-2.9-1.09-5.13 4.37-2.55 9.11-1.11 13.69-1.3 3.44.34 6.82 1.99 10.35.5 1.99.19 4.17.02 4.91 2.57-2.06 1.29-2.51 4.11-4.9 5.08-6.63-.72-13.27-.6-19.92-.22Z" fill="#f4da93"/>
        <path d="M214.4 108.39c-4.5 1.59-8.96.57-13.52.16-7.15-.64-14.29 1.51-21.5.82-1.1-1.07-.8-2.53-1.12-3.83 2.8-.05 5.6-.1 8.4-.16 1.61-.03 3.42.34 3.99-1.88 1.89.48 3.91-1.18 5.75.33 3.94 2.63 8.02 2.02 12.13.49 3.16-.37 4.65 1.66 5.87 4.07" fill="#f4bc62"/>
        <path d="M229.72 25.89c.34-3.94 2.35-5.51 6.37-4.87 2.07.33 4.24.06 6.37.06-.02 3.63-.04 7.25-.07 10.88-4.28 0-8.55.01-12.83.02.05-2.03.11-4.06.16-6.09" fill="#bcc641"/>
        <path d="M174.65 68.66c2.77.91 3.29 2.27.94 4.33-.73.64-1.29 1.48-1.94 2.21-5.35 6.09-5.16 5.78-11.95 1.4-3.68-2.37-2.71-4.32-.96-6.89 4.48-2.46 9.21-1.54 13.91-1.05" fill="#f3e0b7"/>
        <path d="M73.84 48.8c-1.27 1.89-2.64-.24-3.94.08 5.94-4.64 5.85-5.67-1.24-13.82 2.98-1.66 6.16-1.4 9.39-1.12 1.92.17 3.89.2 5.64-.9 1.65 1.68 2.12 4.17 4.92 5.19 2.49.9 1.2 2.83-.39 4.15-4.08 3.38-8.57 6.09-13.43 8.19l.15-1.72c1.54-2.74 4.46-3.76 6.82-5.49 1.1-.81 3.3-1.4 2.57-3.07-.71-1.63-2.9-1.06-4.5-1.08-1.64-.02-3.06.51-2.94 2.48.19 2.92.12 5.64-3.04 7.11Z" fill="#b5c64e"/>
        <path d="M218.65 115.36c1.49 0 2.98-.01 4.47-.01q7.04 0 7.36 7.08c.37 2.7-.03 4.12-3.55 3.99-9.15-.35-9.16-.14-8.27-11.06Z" fill="#f6bc35"/>
        <path d="M280.16 48.74c.33.41.65.82.98 1.23.64 2.05 0 4.76 3.23 5.41 2.99.6 3.44-1.9 4.73-3.42.45-1.54.51-3.57 3.09-2.45.01 5.31.26 10.66-2.04 15.68-3.98 1.43-7.93 1.87-11.77-.43-.02-4.42 0-8.84-.07-13.26-.03-1.44.02-2.65 1.86-2.76Z" fill="#ecc83b"/>
        <path d="M89.74 86.46c-2.61 2.2-5.31 4.3-7.79 6.63-3.45 3.23-5.28 3.23-8.35-.5-1.24-1.5-2.42-3.08-2.74-5.1-1.03-2.46.91-2.92 2.44-3.07 4.4-.41 8.81-.74 13.23-.75 1.77 0 3.28.56 3.22 2.78Z" fill="#f1dfbe"/>
        <path d="M280.22 76.54c.7-1.28 1.79-1.87 3.25-1.86 5.13.01 10.27.01 15.4 0 1.45 0 2.56.55 3.25 1.85q-6.62 7.73-15.78 3.17c-2.05-1.02-4.08-2.1-6.12-3.16" fill="#f2deb2"/>
        <path d="M242.23 71.69c.47.86.92 1.74 1.41 2.58.84 1.42 1.92 2.9.49 4.46-1.2 1.32-2.68.58-4.15.25-2.56-.57-5.14-1.03-7.82-.4-1.91.44-4.18 2.51-5.79 0-1.63-2.54.98-4.12 2.2-5.94 4.3-3.91 8.94-2.9 13.65-.95Z" fill="#f0e0c6"/>
        <path d="M64.94 69.74c.34-.36.67-.72 1.01-1.08 5.23 3.77 5.97 3.77 11.01-.05.65.38 1.29.76 1.94 1.13 1.26 3.3 2.52 6.59 3.78 9.89-4.33 2.74-9.41.6-13.93 2.13-1.74-3.86-2.95-7.88-3.81-12.02" fill="#f5da8e"/>
        <path d="M175.66 25.05c-.32 5.78-2.96 8.33-8.59 8.3-5.61-.02-8.29-2.61-8.62-8.3 5.74-2.43 11.47-2.43 17.21 0" fill="#a3c347"/>
        <path d="M332.39 115.2c-3.98 1.65-8.58.02-12.44 2.34-2.76-3.51-3.63-7.58-3.53-11.93 4.1.8 8.38-.16 12.43 1.21 2.14 2.39 3.89 4.95 3.53 8.38Z" fill="#f5a938"/>
        <path d="M95.74 95.47c-4.59-.75-5.87 3.41-8.28 5.71-3.7 3.53-12.19 3.28-15.58-.76 9.45 5.82 14.55-2 20.11-6.88 3.58-3.14 6.27-5.49 11.36-3.21 3.34 1.5 6.33-.55 8.47-3.43 1.16-1.56 1.87-3.52 3.9-4.29 1.43 2.19-.69 3.63-1.14 5.42-3.18 4.92-7.14 8.02-13.5 6-1.65-.52-3.19.42-4.63 1.23-.23.07-.47.13-.7.19Z" fill="#603820"/>
        <path d="M257.36 16.89c-1.48-1.4-3.47-2.71.18-4 5.12-1.82 10.18-3.82 15.26-5.75 1.64-.63 3.29-.87 4.46.75 1.47 2.05-.73 2.82-1.61 4.03-1.05 1.44-2.11 2.88-3.17 4.32-5.01.8-10.1-.14-15.12.65" fill="#8abd49"/>
        <path d="M272.17 32.01h-13.03c-.44-2.98-.35-5.97 0-8.95 4.33-2.23 8.65-2.28 12.98 0 .01 2.98.03 5.96.04 8.94Z" fill="#bfc640"/>
        <path d="M308.14 52.91c.23-.65.45-1.3.68-1.95 2.59 3.29 4.23 6.96 4.42 11.18.08 1.8.17 3.66-1.75 4.75-2.68.58-5.33.28-7.98-.2-.98-.32-1.92-.89-2.12-1.87-.93-4.68-4.56-8.23-5.37-12.94.39-.28.77-.57 1.16-.85 2.22.29 3.36 2.01 4.52 3.57 1.62 2.18 3.6 3.33 6.48 2.86 1.2-1.5-1.12-3.05-.04-4.56Z" fill="#f4cc40"/>
        <path d="M109.82 77.76q-4.34 6.77-11.67 3.72c-3.13-1.31-6.21-2.71-9.32-4.06.1-2.42 1.94-2.91 3.76-3.05 4.43-.34 8.88-.36 13.31 0 1.97.16 4.04.63 3.91 3.39Z" fill="#f3e0b6"/>
        <path d="M68.75 81.76c.33-2.25 2.03-2.15 3.69-2.14 3.41.02 6.83 0 10.24.01 1.43 2.08 3 3.85 5.94 3.31 1.03-.19 2.49-.75 2.8.87.22 1.13-.48 2.17-1.68 2.65-.59-.55-1.2-1.6-1.75-1.57-5.53.32-11.05.8-16.57 1.31-.23.02-.38.85-.56 1.3-1.3-1.69-1.9-3.64-2.1-5.74Z" fill="#f5dfac"/>
        <path d="M317.12 81.25c.32-1.43 1.39-1.63 2.63-1.63q7.17.03 14.34 0c1.4 0 2.68.1 2.94 1.85q-6.08 7.09-13.98 3.01c-2-1.04-3.96-2.15-5.94-3.23Z" fill="#f1deb2"/>
        <path d="M272.12 23.07h-12.98c-.34-2.13-.16-4.41-1.78-6.18 4.91-3.25 10.02-1.9 15.12-.65l-.36 6.84Z" fill="#a5c446"/>
        <path d="M256.28 117.33h15.8c-.1.31-.1.73-.31.91-2.2 1.88 2.62 6.86-3.19 7.12-8.11.35-9.76-.72-12.3-8.03" fill="#f6c037"/>
        <path d="M201.32 48.94c.42-.05.84-.11 1.26-.16.35-.05.74-.03.91.22 3.54 5.19 4.54 5.29 8.91.86.43.7.85 1.4 1.28 2.1-.14 3.27-.29 6.54-.43 9.81-3.91 2.2-7.82 2.15-11.74.02-.07-4.28-.13-8.56-.2-12.85Z" fill="#f6cc43"/>
        <path d="m341.11 52.01-.23 2.03c-3.48-1.29-6.98-1.66-10.54-.28l-5.31-1.74c-2.37.51-4.08 3.45-7.02 1.89.03-.61.05-1.22.08-1.83 4.17-2.27 8.38-4.44 12.47-6.84 1.98-1.16 3.4-.42 4.83.76 2.14 1.77 4.35 3.49 5.7 6.01Z" fill="#c2d07f"/>
        <path d="M175.66 25.05h-17.21c.98-5.36 3.25-7.28 8.6-7.27 5.37 0 7.63 1.91 8.61 7.27" fill="#8bc04a"/>
        <path d="M180.76 66.65c3.91-3.46 8.2-1.99 12.46-.97.19 2.13 7.08 2.53 1.6 6.13-5.32 1.7-10.61 3.02-15.47-1.18.47-1.33.94-2.65 1.41-3.98" fill="#f5db95"/>
        <path d="M126.72 76.37c6.63-2.56 13.24-2.98 19.84.12-.94 1.33-1.99 2.6-2.81 4-1.23 2.12-2.62 2.42-4.87 1.3-3.96-1.98-8.1-3.63-12.16-5.42" fill="#f0e0c3"/>
        <path d="M109.82 77.76c-.62-1.26-1.57-2.07-3.04-2.07-5.06 0-10.12-.02-15.18 0-1.26 0-2.13.7-2.76 1.73-2.55-.64-5.49-1.04-2.88-4.77 7.01-.32 14.04.55 21.03-.85 2.03-.41 4.21.4 5.84 2.01a9.7 9.7 0 0 1-3.01 3.95" fill="#f4dc9e"/>
        <path d="M116.78 68.79c-1.3-1.65-3.07-2.14-5.08-2.01-2.7-5.75-6.07-11.15-8.83-16.87.63-.3 1.25-.6 1.88-.9 3.07.72 4.21 3.46 5.92 5.61 1.06 1.46 1.78 3.08 2.36 4.77.59 1.72 1.53 2.95 3.58 2.23 2.2-.78 1.61-2.48 1.19-4.06-.29-1.1-.75-2.14-1.16-3.2-.37-1.13-.92-2.26-.03-3.4.29-.34.57-.69.86-1.03 5.75 7.55 5.59 12.07-.7 18.86Z" fill="#ebc94f"/>
        <path d="M369.75 45.19c-2.44-3.95-1.77-7.08 2.12-9.85 2.59-1.84 4.36-4.77 7.87-6.44v27.92c-.76.58-1.48.5-2.19-.09-.66-.93-.85-1.99-.91-3.09-.1-1.59-.08-3.18-.07-4.77-.03-2.01.01-4.02.03-6.03 0-.66.08.18-.01-.47-.24-1.55 1.11-4.1-1.47-4.29-1.96-.15-3.4 1.59-3.38 3.89.02.7-.06 1.37-.33 2.02-.38.64-.89 1.08-1.65 1.21Z" fill="#96c14b"/>
        <path d="M242.23 71.69c-4.54.43-9.21-.99-13.65.95.28-2.63.57-5.26.85-7.9h12.73l.06 6.95Z" fill="#f5e0b4"/>
        <path d="m142.65 50.8.99-.99c2.17-.47 2.97 1.19 3.97 2.52.17.28.33.57.46.87.82 1.93 1.95 3.9 4.34 3.07 2.77-.96.32-3.08.52-4.66-.03-.74.14-1.4.74-1.89l1.81.21c1.86 4.96 4.33 9.92.21 14.96-2.4-.53-4.84-.81-7.23-1.38-2.94-3.78-4.99-7.97-5.81-12.71" fill="#f6d471"/>
        <path d="M248.57 103.54c-3.88-1.03-8.4 1.77-11.85-1.91-.07-1.36-.27-2.74.49-3.99.28.91.29 2.67 1.18 2.45 6.27-1.57 12.84.84 19.01-1.54 1.12 1.07 1.63 2.43 1.89 3.91-3.23 2.08-6.87.38-10.24 1.08h-.47Z" fill="#f1bc63"/>
        <path d="M378.01 56.55c.58.09 1.15.18 1.73.26 0 6.95 0 13.89.01 20.84-2.77 2.02-5.68 1.67-8.63.49-1.49-1.39-1.45-3.08-.95-4.86.71-1.59 2.15-2.32 3.6-3.03 2.15-.38 2.92-1.75 2.89-3.83-.03-2.12-.08-4.23-.04-6.36.11-1.32.23-2.63 1.39-3.53Z" fill="#f7d87d"/>
        <path d="M179.36 70.63c5.05 1.82 10.32.67 15.47 1.18-.43.48-.91.93-1.28 1.45-1.67 2.37-3.61 6.44-5.83 5.85-3.36-.89-6.13-4.16-9.03-6.56-.71-.59-.18-1.48.67-1.92" fill="#f2deb6"/>
        <path d="M272.18 68.72c-4.31-.02-8.62-.04-12.93-.07-.77-4.69 1.13-6.58 5.92-5.94 2.26.3 4.6.03 6.9.01.14 1.23.29 2.46.43 3.68l-.33 2.31Z" fill="#f6dfa5"/>
        <path d="M201.57 71.69c-.27-1.65-.7-3.29-.13-4.96 3.85-2.21 7.92-1.72 12.01-.98 1.57 2.17 6.66 3.81 1.06 7.05-4.36.16-8.81 1.42-12.94-1.1Z" fill="#f5da94"/>
        <path d="M127.76 60.92c2.04 3.21 5.29 1.3 7.96 1.85 1.24 1.41 2.43 2.85 1.92 4.93-4.61 1.97-9.43.64-14.15.92.34-1.94.69-3.88 1.03-5.82.92-.39 1.11-1.18 1.17-2.06.74-.57 1.43-.49 2.07.17Z" fill="#f6da8e"/>
        <path d="M217.34 37.08c4.62-3.89 1.94-8.44 1.23-12.84-.5-3.09-2.91-6.38.78-9.13 1.34 6.79 4.16 13.37 3.04 20.52-.24 1.56.85 3.95-.69 4.53-2.1.78-3.15-1.64-4.36-3.07Z" fill="#704023"/>
        <path d="M174.65 68.66c-4.51 2.06-9.28.59-13.91 1.05.03-1.38.05-2.75.08-4.13.27-.61.54-1.23.81-1.84 3.58-2.08 7.15-2.21 10.7.06.2.95-.07 2.05.93 2.73.46.71.93 1.42 1.39 2.14Z" fill="#f5dd9e"/>
        <path d="M30.06 29.15c-3.41-3.83-2.9-6.43 1.89-7.46 4.24-.92 8.64-1.09 12.97-1.59l-14.85 9.06Z" fill="#96532a"/>
        <path d="M135.8 26.29c-.97-2.32-3-2.14-5.02-2.27-2.06-.13-4.35.87-6.13-1.01 5.5-1.97 10.03-6.94 17.98-5.9-3.89 2.99-5.5 6-6.84 9.19Z" fill="#8bbf4a"/>
        <path d="M201.57 71.69c4.3.53 8.8-1.28 12.94 1.1-.62.76-1.14 1.63-1.87 2.25-1.68 1.44-2.61 5.07-4.86 4.21-3.05-1.17-6.12-3.45-6.21-7.57Z" fill="#f2dfb7"/>
        <path d="M328.44 74.5c-5.15.04-10.31.08-15.46.13.46-1.62.91-3.25 1.37-4.87l11.59-.03c1.57 1.21 2.37 2.82 2.5 4.78Z" fill="#f8d365"/>
        <path d="M278.37 64.75c3.91 0 7.82.02 11.73.02 1.44 1.32 2.51 2.8 2.12 4.9-4.99.02-9.97.03-14.96.05.37-1.66.74-3.32 1.1-4.97Z" fill="#f5d061"/>
        <path d="m370.85 77.62 8.9.03c-.24 2.22 1.55 4.72-.92 6.63-3.63-.56-7.26-1.12-10.88-1.68-.18-2.32.31-4.26 2.91-4.98Z" fill="#f4db9b"/>
        <path d="M151.72 21.19c-.08 3.74-.69 7.52 1.4 11.21-10.47-3.98-10.57-4.26-4.52-12.31 1.23-.16 2.36-.04 3.11 1.11Z" fill="#744223"/>
        <path d="M151.72 21.19c-1.1-.18-2.37.08-3.11-1.11.16-2.55.18-5.07-2-6.95 4.24-1.69 8.5-1.5 12.78-.16-3.99 1.41-5.52 5.1-7.66 8.22Z" fill="#9b562d"/>
        <path d="M213.44 65.75c-3.88 1.84-8.01.59-12.01.98.03-1.65.05-3.29.08-4.94 3.91 0 7.82-.01 11.74-.02.06 1.33.13 2.65.19 3.98" fill="#f8d56c"/>
        <path d="M59.83 77.69c-6.85 1.37-8.55.3-6.99 10.9-4.28-2.26-3.02-6.23-2.72-9.65.27-3.03 3.34-3.35 5.64-4.02 2.24-.66 3.95.06 4.07 2.78Z" fill="#603820"/>
        <path d="M337.94 68.92c1.3-3.64 4.39-2.22 6.88-2.34 2.04-.09 3.47.71 3.19 3.1-.03 1.41-.84 2.29-2.03 2.89-2.73.51-5.44.88-8.02-.6-.75-1.01-.82-2.03-.02-3.06Z" fill="#f3cc45"/>
        <path d="m349.97 82.55-.36.02-.36-.02v-9.02c.27-.3.53-.6.8-.89 2.96-1.9 5.74-1.78 8.32.72.74 1.35.79 2.73.11 4.12-2.55 2.14-7.11.98-8.5 5.07Z" fill="#f5d67f"/>
        <path d="M288.98 104.36c-4.2-1.29-8.39-1.29-12.58.01-.11-1.66-.43-3.34.71-4.82 4.28 1.62 8.58 1.3 12.87.07-.33 1.58-.67 3.16-1 4.73Z" fill="#f2bd64"/>
        <path d="M148.4 62.83c2.55.25 5.6-1.23 7.28 2.06-1.01 1.85-2.15 3.6-3.88 4.88-1.61-.93-3.36-1.18-5.19-1.09-.63-2.32.54-4.1 1.78-5.85Z" fill="#f3d88f"/>
        <path d="M231.7 104.47c-4.08-.02-8.16-.05-12.24-.07.03-1.01.05-2.02.08-3.03 4.2-.29 8.5.91 12.61-.83.02 1.33.4 2.7-.45 3.93" fill="#f2c36f"/>
        <path d="M262.38 99.47c3.95 0 7.91.02 11.86.03l-.21 3.02c-3.9 0-7.8-.02-11.7-.02.01-1.01.03-2.01.04-3.02Z" fill="#f5c067"/>
        <path d="M328.9 107.38c-4.13-.8-8.76 1.9-12.48-1.77-.18-.8-.27-1.59.4-2.25 3.86 2.21 8.06.55 12.08 1.03 1.01 1 1.01 1.99 0 2.99" fill="#f5bc60"/>
        <path d="M302.91 65.87c2.92-.12 5.88-.61 8.58 1.03l-5.17 5.08c-.98-1.57-2.55-2.07-4.25-2.33-1.02-1.55-.31-2.72.85-3.79Z" fill="#f1ce6a"/>
        <path d="M113.72 87.56c.67-1.65 1.33-3.29 2-4.94 2.32 0 4.64.02 6.95.03 2.34 1.49 5.05 2.23 7.4 3.71.89.56 2.3.88 1.53 2.48-1.5 1.06-3.32 1.19-4.62.18-4.19-3.26-8.62-3.02-13.26-1.45Z" fill="#6e3d1d"/>
        <path d="M131.67 88.52c-2.33-2.97-7.13-2.2-9-5.87 5.75 1.33 11 3.81 15.99 6.88-1 0-2.01.01-3.01.02-1.72 1.17-2.92.33-3.98-1.03" fill="#603820"/>
        <path d="M338.19 71.67c2.59.4 5.38-.9 7.8.91-1.11 1.52-2.21 3.05-4.06 3.8-1.64-.58-3.29-1.16-4.93-1.74-.52-1.35.01-2.3 1.19-2.98Z" fill="#edcd71"/>
        <path d="M369.75 45.19c.39-.43.79-.86 1.18-1.29 2.87 1.94 2.81 4.3 1.01 6.91l-1.28.09c-1.06-1.78-.6-3.81-.92-5.71Z" fill="#b3ca5c"/>
        <path d="M244.15 41.16c-1.92.99-1.78-.54-1.8-1.57-.06-2.55 0-5.1.03-7.66 1.75 2.85-.99 6.56 1.77 9.22Z" fill="#bcc641"/>
        <path d="M48.97 137.12c8.25-3.41 17.07-4.75 25.68-6.76 17.66-4.14 35.37-7.98 52.34-14.58 5.87-2.28 11.53-4.92 16.97-8.04.96-.55 2.41-.85 2.2-2.31-.19-1.35-1.61-1.54-2.66-1.89-8.81-2.88-17.9-4.37-27.12-5.04-5.92-.43-11.81-1.48-17.78-1.02-1.48.11-2.64-.29-2.85-2 5.29-2.96 11.15-1.33 16.5-1.12 17.16.66 34.33 2 51.22 5.56 1.62.34 3.27.57 4.63 1.62 2.59 3.74-.77 4.6-2.99 5.63-9.63 4.47-19.67 7.94-29.69 11.42-10.47 3.65-21.04 7.04-31.99 9.02-1.64.3-3.14.97-4.66 1.58-14.16 2.45-28.33 4.81-42.46 7.42-2.48.46-4.88.47-7.33.52Z" fill="#a35b30"/>
        <path d="M168.52 102.46c-11.32-2.18-22.64-4.17-34.18-5.07-12.86-1.01-25.69-2.09-38.6-1.91.62-2.69 3.02-3.53 4.89-2.79 6.18 2.43 9.81-.68 13.08-5.12 4.05-4.3 8.43-3.4 12.5-.33 1.82 1.37 3.56 1.19 5.45 1.29 1.33.34 2.66.69 3.98 1.03 6.17 3.13 9.66 2.66 14.01-2.11 3.64-3.99 7.43-1.19 10.86-.03 2.34.8 4.19 3.1 6.19 4.8.61.52 1.46 1.83 1.43 1.85-4.32 3.61 2.9 5.3 1.39 8.38-.33.36-.67.36-1.01.01Z" fill="#915027"/>
        <path d="M168.52 102.46c.34 0 .68 0 1.01-.01 1.72 4.19 2.08 8.74 3.84 12.98 1.46 3.53-.99 5.69-4.54 5.75-13.87.26-27.44 3.28-41.25 4.22-9.65.66-19.22 2.48-28.83 3.79 7.26-4.14 15.55-5.27 23.37-7.69 15.02-4.65 29.66-10.2 44.2-16.12 1.41-.58 2.17-1.42 2.2-2.92" fill="#915127"/>
        <path d="M54.86 131.27c-1.52 2.89-4.77 1.74-7 2.97-2.9-7.34-3.54-15.17-4.88-22.84 8.35.23 16.74-.76 25.04.93 1.36.28 2.66.23 2.81 2-4.2 2.94-8.89 4.89-13.82 6.05-2.35.55-4.75.87-5.64 3.26-.84 2.23.55 4.08 2.21 5.6.61.56 1.15 1.18 1.29 2.04Z" fill="#a35b30"/>
        <path d="M54.86 131.27c-3.5-1.31-5.87-4.18-5.15-7.48.72-3.29 4.11-4.17 7.75-4.74 4.59-.72 8.92-3.07 13.37-4.71.49.15 2.6-1.18 1.07.74-1.1 1.38-3.26 2.3-5.1 2.65-5.27 1.01-4.89 3.89-2.96 7.53 1.01 2.85-.36 4.28-2.98 4.96-2 .35-4 .7-6 1.06Z" fill="#70401f"/>
        <path d="M60.86 130.22c1.57-1.31 2.27-3.14 2.98-4.96 3.95-.93 7.9-1.87 12.18-2.88-1.16 2.4-4.03 1.45-5.53 3.86 6.66-.06 12.4-2.94 18.45-3.82l.33 1.21c-5.4 1.53-10.73 3.34-16.21 4.5-4.02.85-7.83 3.21-12.2 2.09" fill="#a35b30"/>
        <path d="M344.97 25.03c.03-.31.06-.62.08-.93 1.07-.56 2.14-1.14 3.42-.85.12 1.66-1 3.59 1.03 4.83 1.76.88 3.04.39 3.88-1.34.11-1.04-.51-1.99-.39-3.02 2.24-1.18 2.94.73 3.64 2.03.76 1.4.32 2.88-.9 3.97-1.92 1.72-3.86 2.47-6.66 1.54-3.32-1.1-4.3-3.14-4.1-6.24Z" fill="#71411f"/>
        <path d="M353 23.72c1.17.79 2.21 1.65 1.86 3.28-1.8 1.12-4.24.4-5.86 2.04-3.47-1.63-2.98-3.63-.53-5.79 1.51.16 3.02.32 4.53.47" fill="#ede2b2"/>
        <path d="M196.4 103.84c-1.92-.03-3.98 2.22-5.75-.33-.67-3.13-1.31-6.07 3.58-6.25 1.95-.07 4.05-1.06 4.99 1.36 1.01 2.58-.25 4.35-2.83 5.22Z" fill="#36312e"/>
        <path d="M328.9 107.38v-2.99c.43-3.12 2.16-5.06 5.29-5.69 3.33-.67 5.76.85 7.68 3.33.79 1.03 1.37 2.22 2.04 3.34.25 3.8 1.31 7.75-2.07 10.87-3.34 1.33-6.52 1.31-9.45-1.05-1.51-2.45-2.86-4.98-3.49-7.82Z" fill="#2f2a29"/>
        <path d="m198.46 119.46-3.72.72c-.37-1.58-.72-3.16-1.11-4.74-.42-1.7-.03-2.85 1.93-3.15 3.02-.47 6.86-3.13 8.45 1.33 1.53 4.29-3.02 4.49-5.56 5.85Z" fill="#332c29"/>
        <path d="M41.07 76.51c1.2 7.22-4.66 7.42-9.08 9.06-1.13-4.05-.56-8.2-.4-12.27.17-4.08 4.03-5.03 9.32-2.58.05 1.93.11 3.86.16 5.79" fill="#fef9f2"/>
        <path d="M40.91 70.71c-1.15 0-2.3.11-3.43-.04-4.37-.55-5.92 1.41-5.57 5.62.25 3.07.07 6.18.09 9.28-1.75-1.39-.71-3.38-1.08-5.06l.27-15.69c3.22-2.2 6.45-2.08 9.69-.04.01 1.98.03 3.96.04 5.94Z" fill="#f9eed0"/>
        <path d="M31.14 59.95c-.26-3.74-1.43-7.42 5.06-7.31 6.5.1 4.47 4.04 4.56 7.32-3.21 1.79-6.41 1.8-9.62 0Z" fill="#f6e396"/>
        <path d="M31.14 59.95h9.62c.04 1.61.08 3.21.11 4.82-3.23.01-6.46.03-9.7.04-.01-1.62-.02-3.24-.04-4.87Z" fill="#fcedbc"/>
        <path d="M338.19 71.67c-.4.99-.79 1.99-1.19 2.98-2.9 2.47-5.73.86-8.56-.16-1.26-1.37-2.64-2.68-2.5-4.77.76-5.01-.09-10.17 1.34-15.34 6.72 2.69 8.5 8.76 10.67 14.54.08.92.16 1.83.25 2.75Z" fill="#2f2a29"/>
        <path d="m378.01 56.55-.33 4.47c-2.61 1.82-5.73.74-8.54 1.49-1.19.13-2.31-.13-3.33-.74-2.77-1.65-4.69-.38-6.35 1.8-1.54 2.02-2.66 5.27-6.02 3.62-3.27-1.61-1.96-4.71-1.42-7.38 1.37-.86 2.72-1.76 4.12-2.58 4.45-2.62 8.82-5.88 14.18-1.83.27.21 1.11-.33 1.69-.53.39-.67.7-1.4 1.48-1.75 1.6-.56 3.1-.46 4.43.69.03.91.06 1.83.1 2.74Z" fill="#ebdd93"/>
        <path d="M330.35 53.76c3.65-3.24 6.58-3.16 10.54.28.97 2.98 3.58 5.02 4.48 8.12.65 2.25.02 2.82-1.94 2.39-2.99-.66-5.93-1-7.5-4.62-1.04-2.41-3.67-4.13-5.58-6.16Z" fill="#e2df98"/>
        <path d="M352.02 59.8c-.01 1.48-.1 2.96-.02 4.43.07 1.31.97 2.04 2.2 2.33 1.26.29 2-.13 2.8-1.3 4.65-6.79 4.7-6.76 11.87-3.46 4.57 1.47 4.29 5.56 4.99 9.12-.57 1.11-1.46 1.74-2.74 1.76-1.75-1.17-1.16-3.33-2.07-4.86-1.31-2.19-2.93-4.3-5.71-4.09-2.82.22-3.32 2.8-3.93 5.05-.45 1.67.19 3.72-1.71 4.89-2.37-1.69-5.11-.72-7.67-1.04-.21-4.41.28-8.72 1.98-12.84Z" fill="#f8d362"/>
        <path d="M318.03 53.91c2.56.18 4.22-2.95 7.02-1.89-.86 1.29-1.28 2.72-.73 4.17.75 1.96.55 3.78-1.48 4.39-2.01.6-4.58.53-5.93-1.28-1.31-1.77-1.33-4.02 1.12-5.38Z" fill="#dee19d"/>
        <path d="M373 53.83c-.33.34-.66.69-1 1.03l-.06-4.05c-.1-2.34.39-4.76-1.01-6.92v-1.97c2.32-1.82 4.64-1.69 6.95.03v6.93c-2.09 1.2-3.77 2.8-4.89 4.95Z" fill="#ced678"/>
        <path d="M212.4 49.87c.84 5.64-4.03 4.06-6.55 4.66-3.11.74-2.13-2.32-2.51-4.01-.13-.6-.5-1.15-.76-1.73-.38-.97-.76-1.93-1.14-2.9 2.24-4.12 5.86-1.91 9-1.96 4.8.62 1.39 3.94 1.97 5.94Z" fill="#d7d77b"/>
        <path d="M182.67 51.92c-.05-.7-.09-1.4-.14-2.1-.08-2.04.43-3.99 2.08-5.19 1.81-1.33 4.14-1.08 6.08-.39 2.54.9.25 3.13.82 4.65l-.04.09c-2.76 1.5-6.07 1.35-8.8 2.94" fill="#d2d778"/>
        <path d="M210.43 43.93c-2.61 2.43-6.4-.51-9 1.96-1.14-.81-3.43-.88-3.19-2.51.31-2.16 2.57-1.31 4.07-1.44 2.92-.25 6.19-1.8 8.12 1.99" fill="#bad16f"/>
        <path d="M357.71 73.68c.07-1.15.18-2.3.21-3.45.11-4.04 1.04-7.87 5.66-8.6 3.08-.49 7.17 5.02 7.39 9.08.04.66.1 1.31.16 1.97l-.27 4.94-2.91 4.98c-1.31 0-2.62-.01-3.93-.02-2.62-.94-6.22-.66-6.15-4.92l-.15-3.98Z" fill="#3b342b"/>
        <path d="M357.86 77.65c1.14 2.77 4.06 3.33 6.15 4.92-4.68.13-9.36 2.48-14.04-.03-.84-7.16 4.57-4.37 7.89-4.9Z" fill="#f4db9c"/>
        <path d="M102.87 49.91c5.25 4.42 7.59 10.36 8.83 16.87-1.33 3.41-3.77 4.72-7.35 3.77s-5.6-3.01-5.37-6.98c.11-1.92-.26-3.88-.42-5.82.04-1.64.26-3.3.08-4.92-.4-3.7.71-4.96 4.22-2.92Z" fill="#39372c"/>
        <path d="m109.86 54.86-5.1-5.85c4.41-2.07 8.67-3.32 11.86 1.95.34 1 .68 1.99 1.02 2.98-2.44 1.58-4.99 2.31-7.78.92" fill="#dada87"/>
        <path d="M88.97 66.74c-.04-3-.08-6-.13-9.01l.06-2.84c2.58-1.95 5.17-1.94 7.75 0 .02.62.05 1.25.07 1.87l-.06 5.06c-3.08.85-5.43 2.83-7.71 4.92Z" fill="#f5e7a6"/>
        <path d="M96.66 54.89h-7.75c.3-1.61-1.71-3.62.67-4.82 1.81-.91 3.26-3.53 5.57-2.31 2.99 1.58 1.16 4.7 1.52 7.13Z" fill="#dedf8f"/>
        <path d="M148.4 62.83c.33 2.23-.47 4.12-1.78 5.85-3.23 1.9-6.09.3-8.97-.97-1.19-1.43-1.71-3.13-1.92-4.93-.06-3.95-.13-7.9-.19-11.85.65-1.21-.64-3.25 1.12-3.78 1.4-.42 2.63.95 3.78 1.8.77.57 1.48 1.23 2.22 1.86 3.09 3.45 4.23 7.83 5.76 12.03Z" fill="#4b422f"/>
        <path d="M140.64 46.85q-5.36-3.33-.4-6.95c4.29-3.13 7.13-1.77 10.43 4.95-2.99 2.44-6.79.83-10.03 2" fill="#e6d66b"/>
        <path d="M140.64 46.85c2.73-3.74 6.72-1.18 10.03-2 1.2 1.5 2.65 2.85 2.99 4.87l-.06 2.11c-2.07 1.77-4.46 1.57-6.9 1.1-.68-1.37-1.71-2.4-3.07-3.11-1-.99-2-1.98-2.99-2.97" fill="#f3d876"/>
        <path d="m172.33 63.8-10.7-.06c.27-2.66-.94-5.49.91-7.98 3.03-.1 5.93-1.38 9.02-.99 1.82 2.87.77 5.99.78 9.02Z" fill="#f4d777"/>
        <path d="M162.66 52.93c-.03-.82-.02-1.64-.1-2.46-.32-3.47-.04-5.8 4.75-5.75 4.86.05 4.27 2.81 4.21 5.76-.01.49-.05.98-.08 1.47-2.77 1.72-5.76 1.53-8.79.97Z" fill="#f4d777"/>
        <path d="M162.66 52.93c2.76-1.84 5.83-.94 8.79-.97.03.94.07 1.88.1 2.82-2.93 1.04-5.71 3.34-9.01.99z" fill="#fbe49b"/>
        <path d="M302.91 65.87c-.28 1.26-.56 2.52-.85 3.79-3.27 3.26-6.55 1.44-9.83.02-1.25-1.4-2.19-2.94-2.12-4.9.27-4.15.55-8.31.81-12.46.07-1.11-.13-2.31 1.27-2.81 1.28.8 2.55 1.59 3.83 2.39 3.77 3.94 5.39 8.93 6.89 13.98Z" fill="#3c3a2c"/>
        <path d="M308.14 52.91c.85 1.74 1.7 3.48 2.55 5.24-7.67 2.92-9.97-3.22-13.52-7.12 2.21-2.97 5.88-3.64 8.18-1.41 1.02.99 1.86 2.18 2.78 3.28Z" fill="#dadb8a"/>
        <path d="M289.1 51.96c-.26 1.61 1.08 3.92-1.34 4.59-2.18.61-4.78.67-6.53-.95-1.69-1.56-1.57-3.73-.08-5.64 3.2-1.5 6.21-2.25 7.96 1.99Z" fill="#dedf91"/>
        <path d="M76.97 68.61c-.19 4.76-4.4 3.67-7.02 4.44-3.61 1.06-2.14-3.34-3.99-4.39l-1.11-4.9c2.68-3.71 6.17-3.22 9.83-1.89.17 2.44 1.2 4.6 2.29 6.73Z" fill="#fcf2d1"/>
        <path d="M74.67 61.87c-3.23.89-6.75.22-9.83 1.89-.47-.66-.84-1.43-1.43-1.96-4.13-3.64-2.22-5.63 1.64-7.87 2.75-1.6 4.06-2.2 5.96 1.16 1.25 2.23 3.17 4.1 3.66 6.77Z" fill="#f7e49d"/>
        <path d="M73.84 48.8c1.71-1.98 2.65-4.3 1.8-6.8-1.17-3.44.54-4.08 3.34-4.04.99.01 1.98-.01 2.97 0 2.04.04 4.46.37 5.03 2.31.5 1.72-2.1 2.21-3.31 3.12-2.74 2.05-5.81 3.67-8.74 5.46l-1.09-.06Z" fill="#c9d167"/>
        <path d="M88.97 66.74c.4-5.01 3.62-5.63 7.71-4.92.08 5.47-2.35 7.02-7.71 4.92" fill="#fceec0"/>
        <path d="M127.76 60.92c-.69-.06-1.38-.12-2.07-.17.01-1.15.09-2.3.02-3.44-.17-2.76.16-4.84 3.87-4.55 2.36.19 4.12.2 4.15 3.34.03 3.27-.96 5.05-4.49 4.75-.49-.04-.98.05-1.48.08Z" fill="#fbe7ab"/>
        <path d="M182.67 51.92c1.73-4.54 5.59-2.77 8.8-2.94-.02 5.85-1.11 6.71-6.64 5.9-2.05-.3-2.29-1.36-2.15-2.96Z" fill="#eae08e"/>
        <path d="M109.86 54.86c2.61-.13 5.07-1.6 7.78-.92.6 1.51 1.36 2.98 1.74 4.53.46 1.9.91 3.83-2.12 4.41-2.38.45-4.37 1.26-5.15-2.12-.47-2.03-1.48-3.94-2.26-5.91Z" fill="#f6e7a6"/>
        <path d="M377.89 41.95c-2.32 0-4.63-.02-6.95-.03-2.54-2.74.87-3.04 1.84-4.26.93-1.18 2.33-2.23 3.83-1.43 2.44 1.3.94 3.78 1.29 5.72Z" fill="#b3ca5c"/>
        <path d="M373 53.83c-.56-3.8 1.11-5.41 4.89-4.95 0 1.64.01 3.29.02 4.93-1.64 0-3.28.02-4.91.03Z" fill="#e4e090"/>
        <path d="M146.7 52.93c2.1-1.61 4.56-.94 6.9-1.1.8 1.89 3.6 4.29.53 5.67-3.8 1.71-6.57-.42-7.43-4.57" fill="#fbe5a2"/>
        <path d="M373.87 70.92c-3.23-2.19-1.1-7.28-4.99-9.12 2.78-1.91 5.84-.87 8.8-.79.06 2.42-.04 4.85.22 7.25.4 3.69-1.45 3.64-4.03 2.66" fill="#fcf0c8"/>
        <path d="M54.92 128.27c-2.42-.83-3.39-2.49-2.53-4.9.73-2.04 2.41-3.16 4.56-2.99 2.29.17 4.13 1.12 3.92 3.93-2.29.87-3.5 3.34-5.95 3.97Z" fill="#f5ecbd"/>
        <path d="M54.92 128.27c.84-3.02 2.55-4.75 5.95-3.97-.22 3.94-2.01 5.55-5.95 3.97" fill="#c0bca7"/>
        <path d="M349 29.04c.61-4.52 3.59-2.26 5.86-2.04-1.22 2.77-3.03 3.85-5.86 2.04" fill="#c1bca6"/>
    </g>
</svg>
