<svg width="140" height="43" viewBox="0 0 140 43" fill="none" xmlns="http://www.w3.org/2000/svg">
<rect width="42.5" height="42.5" rx="17" fill="#174D3A" fill-opacity="0.1"/>
<path d="M20.1829 29.7416C18.3179 29.7473 16.519 29.0518 15.1428 27.7932C13.7666 26.5345 12.9137 24.8046 12.7533 22.9466C12.5929 21.0885 13.1367 19.238 14.2768 17.7621C15.4169 16.2862 17.0701 15.2927 18.9084 14.9787C24.9623 13.8104 26.5554 13.2581 28.6796 10.6241C29.7416 12.7483 30.8037 15.0637 30.8037 19.1208C30.8037 24.9623 25.727 29.7416 20.1829 29.7416Z" stroke="#174D3A" stroke-width="2.12417" stroke-linecap="round" stroke-linejoin="round"/>
<path d="M10.6241 30.8031C10.6241 27.6171 12.5889 25.1107 16.0192 24.431C18.5892 23.9213 21.2443 22.307 22.3063 21.245" stroke="#174D3A" stroke-width="2.12417" stroke-linecap="round" stroke-linejoin="round"/>
<path d="M59.6939 28.125L56.7525 22.9298H55.4919V28.125H52.8179V14.7932H57.8221C58.8535 14.7932 59.7321 14.9778 60.4579 15.3471C61.1837 15.7036 61.7249 16.1939 62.0814 16.8178C62.4507 17.429 62.6353 18.1166 62.6353 18.8806C62.6353 19.7592 62.3806 20.555 61.8713 21.2681C61.362 21.9684 60.6043 22.4523 59.5984 22.7197L62.7881 28.125H59.6939ZM55.4919 20.9243H57.7266C58.4524 20.9243 58.9936 20.7524 59.3501 20.4086C59.7066 20.0521 59.8849 19.5618 59.8849 18.9379C59.8849 18.3267 59.7066 17.8556 59.3501 17.5245C58.9936 17.1807 58.4524 17.0088 57.7266 17.0088H55.4919V20.9243ZM69.7524 28.2969C68.7338 28.2969 67.817 28.0741 67.002 27.6284C66.1871 27.17 65.5441 26.527 65.0729 25.6993C64.6145 24.8716 64.3853 23.9166 64.3853 22.8343C64.3853 21.752 64.6209 20.797 65.092 19.9693C65.5759 19.1416 66.2317 18.505 67.0593 18.0593C67.887 17.6009 68.8102 17.3717 69.8288 17.3717C70.8475 17.3717 71.7707 17.6009 72.5983 18.0593C73.426 18.505 74.0754 19.1416 74.5465 19.9693C75.0304 20.797 75.2723 21.752 75.2723 22.8343C75.2723 23.9166 75.024 24.8716 74.5274 25.6993C74.0436 26.527 73.3814 27.17 72.541 27.6284C71.7134 28.0741 70.7838 28.2969 69.7524 28.2969ZM69.7524 25.9667C70.2363 25.9667 70.6883 25.8521 71.1085 25.6229C71.5415 25.381 71.8853 25.0244 72.1399 24.5533C72.3946 24.0822 72.5219 23.5092 72.5219 22.8343C72.5219 21.8284 72.2545 21.058 71.7197 20.5232C71.1977 19.9757 70.5546 19.7019 69.7906 19.7019C69.0266 19.7019 68.3836 19.9757 67.8615 20.5232C67.3522 21.058 67.0975 21.8284 67.0975 22.8343C67.0975 23.8402 67.3458 24.617 67.8424 25.1645C68.3518 25.6993 68.9884 25.9667 69.7524 25.9667ZM81.9324 28.2969C80.9138 28.2969 79.997 28.0741 79.182 27.6284C78.3671 27.17 77.7241 26.527 77.2529 25.6993C76.7945 24.8716 76.5653 23.9166 76.5653 22.8343C76.5653 21.752 76.8009 20.797 77.272 19.9693C77.7559 19.1416 78.4117 18.505 79.2393 18.0593C80.067 17.6009 80.9902 17.3717 82.0088 17.3717C83.0275 17.3717 83.9507 17.6009 84.7783 18.0593C85.606 18.505 86.2554 19.1416 86.7265 19.9693C87.2104 20.797 87.4523 21.752 87.4523 22.8343C87.4523 23.9166 87.204 24.8716 86.7074 25.6993C86.2236 26.527 85.5614 27.17 84.721 27.6284C83.8934 28.0741 82.9638 28.2969 81.9324 28.2969ZM81.9324 25.9667C82.4163 25.9667 82.8683 25.8521 83.2885 25.6229C83.7215 25.381 84.0653 25.0244 84.3199 24.5533C84.5746 24.0822 84.7019 23.5092 84.7019 22.8343C84.7019 21.8284 84.4345 21.058 83.8997 20.5232C83.3777 19.9757 82.7346 19.7019 81.9706 19.7019C81.2066 19.7019 80.5636 19.9757 80.0415 20.5232C79.5322 21.058 79.2775 21.8284 79.2775 22.8343C79.2775 23.8402 79.5258 24.617 80.0224 25.1645C80.5318 25.6993 81.1684 25.9667 81.9324 25.9667ZM92.5271 19.7401V24.8589C92.5271 25.2154 92.6099 25.4765 92.7754 25.642C92.9537 25.7948 93.2465 25.8712 93.654 25.8712H94.8955V28.125H93.2147C90.9609 28.125 89.834 27.0299 89.834 24.8398V19.7401H88.5734V17.5436H89.834V14.9269H92.5271V17.5436H94.8955V19.7401H92.5271ZM111.488 17.5436L108.393 28.125H105.509L103.58 20.7333L101.651 28.125H98.7479L95.6346 17.5436H98.3468L100.219 25.6038L102.243 17.5436H105.07L107.056 25.5847L108.928 17.5436H111.488ZM114.291 16.283C113.819 16.283 113.425 16.1366 113.106 15.8437C112.801 15.5381 112.648 15.1625 112.648 14.7168C112.648 14.2711 112.801 13.9019 113.106 13.609C113.425 13.3034 113.819 13.1506 114.291 13.1506C114.762 13.1506 115.15 13.3034 115.456 13.609C115.774 13.9019 115.933 14.2711 115.933 14.7168C115.933 15.1625 115.774 15.5381 115.456 15.8437C115.15 16.1366 114.762 16.283 114.291 16.283ZM115.608 17.5436V28.125H112.934V17.5436H115.608ZM122.3 28.2969C121.434 28.2969 120.657 28.1441 119.969 27.8385C119.282 27.5202 118.734 27.0936 118.327 26.5588C117.932 26.024 117.716 25.4319 117.677 24.7825H120.37C120.421 25.19 120.619 25.5274 120.963 25.7948C121.319 26.0622 121.758 26.1959 122.28 26.1959C122.79 26.1959 123.184 26.094 123.465 25.8903C123.757 25.6866 123.904 25.4255 123.904 25.1072C123.904 24.7634 123.726 24.5087 123.369 24.3432C123.025 24.1649 122.471 23.9739 121.707 23.7702C120.918 23.5792 120.269 23.3818 119.759 23.1781C119.263 22.9744 118.83 22.6624 118.46 22.2422C118.104 21.822 117.926 21.2554 117.926 20.5423C117.926 19.9566 118.091 19.4218 118.422 18.9379C118.766 18.454 119.25 18.072 119.874 17.7919C120.51 17.5118 121.255 17.3717 122.109 17.3717C123.369 17.3717 124.375 17.69 125.126 18.3267C125.878 18.9506 126.291 19.7974 126.368 20.867H123.808C123.77 20.4468 123.592 20.1157 123.274 19.8738C122.968 19.6191 122.554 19.4918 122.032 19.4918C121.548 19.4918 121.173 19.5809 120.905 19.7592C120.651 19.9375 120.523 20.1858 120.523 20.5041C120.523 20.8606 120.701 21.1344 121.058 21.3254C121.415 21.5037 121.968 21.6883 122.72 21.8793C123.484 22.0703 124.114 22.2677 124.611 22.4714C125.107 22.6751 125.534 22.9935 125.89 23.4264C126.26 23.8466 126.451 24.4069 126.463 25.1072C126.463 25.7184 126.291 26.2659 125.948 26.7498C125.617 27.2337 125.133 27.6157 124.496 27.8958C123.872 28.1632 123.14 28.2969 122.3 28.2969ZM138.495 22.6051C138.495 22.9871 138.469 23.3309 138.418 23.6365H130.683C130.747 24.4005 131.014 24.999 131.485 25.4319C131.956 25.8648 132.536 26.0813 133.223 26.0813C134.216 26.0813 134.923 25.6547 135.343 24.8016H138.227C137.922 25.8203 137.336 26.6607 136.47 27.3228C135.604 27.9722 134.541 28.2969 133.281 28.2969C132.262 28.2969 131.345 28.0741 130.53 27.6284C129.728 27.17 129.098 26.527 128.639 25.6993C128.194 24.8716 127.971 23.9166 127.971 22.8343C127.971 21.7392 128.194 20.7779 128.639 19.9502C129.085 19.1225 129.709 18.4859 130.511 18.0402C131.313 17.5945 132.236 17.3717 133.281 17.3717C134.286 17.3717 135.184 17.5882 135.974 18.0211C136.776 18.454 137.393 19.0716 137.826 19.8738C138.272 20.6633 138.495 21.5737 138.495 22.6051ZM135.725 21.8411C135.713 21.1535 135.464 20.606 134.98 20.1985C134.497 19.7783 133.904 19.5682 133.204 19.5682C132.542 19.5682 131.982 19.7719 131.523 20.1794C131.078 20.5741 130.804 21.128 130.702 21.8411H135.725Z" fill="#174D3A"/>
</svg>
