<?xml version="1.0" encoding="UTF-8"?>
<svg id="Layer_1" xmlns="http://www.w3.org/2000/svg" version="1.1" viewBox="0 0 366.7 130.3">
  <!-- Generator: Adobe Illustrator 30.0.0, SVG Export Plug-In . SVG Version: 2.1.1 Build 123)  -->
  <defs>
    <style>
      .st0 {
        fill: #f16e93;
      }
    </style>
  </defs>
  <path class="st0" d="M51,68.4c3.5-1.1,7-2,10.5-2.8,9.3-2.1,12.6-2.3,13.5-1.6.5.5.4.6-.3.8l-12.3,3.4-8.8,2.6c1.9,2.2,3,4.9,3,8.3,0,11.9-15.6,20.6-30,23-1.4.2-2.9.4-4.5.4-5.6,0-11.4-1.8-11.4-7.8.2-3.1,2.3-6.3,5.7-9.3,7.2-6.5,18.7-11.9,30.9-15.9-5.9-3.7-15.3-5-22.3-6-9.7-1.3-21.4-4.1-24-12.5C.3,48.9,0,46.8,0,44.8,0,34.2,8.4,24.7,17.7,18.4c7.6-5,16.9-8.6,25.3-8.6s9.7,1.3,13.4,4.3c2.5,2.5,3.5,5.2,3.5,8.2s-1.7,8.1-4,12.7c-1.7,3.3-4.3,4.2-3.3,1.6,2.3-4.7,4-9.7,4-13.9s-.7-5.2-2.5-6.9c-2.3-1.8-5.3-2.6-8.7-2.6-8.5,0-19.1,4.8-24.8,8.7C10.4,28.9,3.4,37.2,3.4,46.1s.2,2.9.6,4.4c1.7,6.4,11.8,9.1,20.6,10.3,6.8,1,19.2,2.2,26.4,7.6h0ZM50.3,71.9c-15.2,5.1-25,10.4-31,15.7-4,3.5-5.7,6.3-5.7,8.4s2.8,4,7,4c1.6,0,3.4-.2,5.4-.6,11.2-2.2,26.3-9.6,26.9-20.8,0-2.7-1-4.9-2.6-6.7h0Z"/>
  <path class="st0" d="M69.2,66.8c0-2.2,1.1-4.4,3.6-6.1,2.7-1.8,6.1-2.7,9.6-2.7s5.6.6,8.1,1.7h0l1.7-2.3c.6-1.1,4,1.1,3.3,2.3-.5,1.5-1.4,3.3-1.6,5.2,0,1.7.4,3.7,2.2,4.2,5.1,1,13.7-4.1,17.3-8.1,1.7-1.7,3.2.8-2.3,6.3-2.5,2.5-9.4,5.7-13.6,4.7-3.3-.8-5.8-2.7-7.1-6.3-2.8,2.5-9.4,7.6-14.7,7.6s-2.5-.3-3.6-1c-2-1.5-3-3.4-3-5.5M88.8,61.7c-1-.3-2.4-.5-3.9-.5-5,0-11.6,1.9-12.7,6.5-.3,1.2.3,2.3,1.8,2.4,4.8-.6,11.3-4.7,14.8-8.4"/>
  <path class="st0" d="M113.1,57.1c0-.7,1-.7,2-.2.9.5,1.5,1.5,1.5,2.1v3.9c2.4-3.2,9.8-9,15.3-8.1,2.3.4,3.7,2.5,3,3.3-1.4,1.6-2.8,1-2.7.2v-.8c-4.9,0-13.2,6-15.6,12.9-.3.8-.3,1.4-.7,4.3,0,1.3-3.2,0-3.6-1.5-.4-.9-.6-3.5.8-16.1"/>
  <path class="st0" d="M177.1,73.7c-3.6,0-6.8-.3-9.3-.9-3.3-.9-9-5.1-9-8h0c-3.5,2.5-8,6.7-13,6.7s-5.3-1.6-6.7-3.8c-.7-1.2-1-2.3-1-3.4,0-1.7.8-3.3,2.6-4.7,1.9-1.5,5.1-2.5,9.1-2.5s5,.4,7.8,1.2l1.4.4c1.5-2,1.7-2.1,1.7-2.2.6-1.1,4,1.1,3.5,2.3l-.2.3c-1,1.6-1.5,3.5-1.5,5.2s.9,4.1,3.1,4.8c2.1.6,5.4.8,9.5.8,11.8,0,29-2,33.5-3.3.7-.2,4.4-1.1,4.9-.3.8.8-3.4,2.4-4.1,2.6-7,2.3-21.3,4.8-32.3,4.8M156.9,60.9l.2-.2-1.2-.2c-1.3-.3-2.7-.4-4.1-.4-2.8,0-5.7.6-8,2.2-1.4.9-2.5,2.8-2.5,4.2s.7,2,2.5,2c4.1,0,10.3-4.5,13.1-7.6h0Z"/>
  <path class="st0" d="M182.4,21.7c8.3-3.5,22.9-8.8,36-13,.3-2.2.6-3.8,1.2-4.8.5-.3,1.3-.3,2.5.5,1,.5,1.4,1.5,1.2,1.9-.2.2-.4.5-.5,1,6-1.9,11.6-3.4,15.7-4.5C244.7,1.3,253.1,0,260.7,0s17.2,1.9,18.7,7.9c.2,1.2-.8,1.4-1.1.8-2.5-4-8.3-5.9-16.3-5.9s-14.3,1.2-23,3.4c-4.4,1.2-10.2,2.8-16.8,4.8-1.5,18.7-1.5,30.5-1.6,44.9,5.8,0,17.7-.2,24.4-.2h7.6c.8,0,1.9.7,2.5,1.6.8.8.4,1.4-.4,1.4-4,0-7.7,0-11.2,0-6.1,0-17.5,0-22.8.3l.3,24.1c1.5,2.4,2.2,7.4,2.2,11.7s-.6,7.5-1.6,7.6c-.8,0-1.9-.9-2.4-1.7.1,0,0-.2,0-.3-.8-2-1.5-16.4-1.5-18.9-.8-1.1-1.1-2.1-1.8-3-5.2-8.7-14.9-15.6-22.6-17.7h-.2c-.5.2-1.3,0-2.1-.6,0,0-.1,0-.1-.2-.3-.2-.4-.3-.5-.5-.7-.8-.5-1.5.1-1.6,9.8-.9,18.3-1.5,26.9-1.8-.1-4.9-.1-9.3-.1-13.4,0-11.6.3-20.9,1-30.3-13.3,4.2-28.4,9.6-38.4,14.2-1.1.4-3-1.3-1.9-3l4.5-1.8h0ZM217.5,75.9l-.2-16.8c-6,.2-12.5.6-18.9,1.2,8.2,4,15.1,10.1,19.1,15.6"/>
  <path class="st0" d="M262.3,68.3c-.3-.9-.5-1.9-.5-2.9,0-4.4,3-8.9,7.9-9.1,3.1,0,6,3,4.9,5.9-1.3,3.2-5.6,5.6-9.1,5.6.3,1.9,3.8,5.1,7.3,5.1,9.4,0,16.4-7,20.6-11.4,2.3-2.4,1.9,0,.5,2.7-2.8,5.8-9.2,10.7-16.1,11.1-5.9.3-13.5-.8-15.5-7h0ZM265.4,65.4c4.2-1.9,7-4.6,5.9-5.7-2.1-2.1-6,3.2-5.9,5.7"/>
  <path class="st0" d="M300,109.9c-6.1-5.2-7.5-18.1-7.5-29.8s.3-11.1.6-15.2l-1.7-.8c-2.1-.6-2.9-3.2-.8-2.7l2.5.5v-1.9c0-6,1.6-25.5,2.4-29.6.1-.6,1-.6,1.9-.1,1,.5,1.7,1.5,1.5,2.1-.6,4-2.2,23.4-2.4,29.3v.6h.5c1.2,0,19.3-.4,21.1-1.1,2-.6,2.1,1.7-1.9,3-2.9.9-9.5,1.2-13.9,1.2s-2.9,0-3.7,0h-.9c0,0,1.7,1.3,1.7,1.3,2.3,2.2,3.9,4.8,5.5,7.5,2.8,5.5,4.3,11.7,4.7,17.5.1,1.3.1,2.5.1,3.7,0,4.3-.5,8.2-1.6,11-.6,1.8-1.6,3.2-2.7,4s-2.8,1-5.1-.2c-.1,0-.2,0-.3-.2h0ZM306.3,94.8c0-1.4-.1-3-.2-4.5-.4-5.5-1.7-11.3-4.2-16.2-1.3-2.4-2.9-4.5-4.5-6.2l-1.1-.8c-.4,3.7-.7,8.9-.7,14.3,0,10,1.1,20.9,5.2,26l.3.4h-.2c1,.5,2.7,0,3.9-3.5,1-2.4,1.5-5.7,1.5-9.5h0Z"/>
  <path class="st0" d="M313.2,68.3c-.3-.9-.5-1.9-.5-2.9,0-4.4,3-8.9,7.9-9.1,3.1,0,6,3,4.9,5.9-1.3,3.2-5.6,5.6-9.1,5.6.3,1.9,3.8,5.1,7.3,5.1,9.4,0,16.4-7,20.6-11.4,2.3-2.4,1.9,0,.5,2.7-2.8,5.8-9.2,10.7-16.1,11.1-5.9.3-13.5-.8-15.5-7h0ZM316.3,65.4c4.2-1.9,7-4.6,5.9-5.7-2.1-2.1-6,3.2-5.9,5.7"/>
  <path class="st0" d="M344.7,57.1c0-.7,1-.7,2-.2.9.5,1.5,1.5,1.5,2.1v3.9c2.4-3.2,9.8-9,15.3-8.1,2.3.4,3.7,2.5,3,3.3-1.4,1.6-2.8,1-2.7.2v-.8c-4.9,0-13.2,6-15.6,12.9-.3.8-.3,1.4-.7,4.3.1,1.3-3.2,0-3.6-1.5-.4-.9-.6-3.5.8-16.1"/>
  <path d="M2.7,129.8v-24.9h5.9c1.5,0,2.7.2,3.8.7s2,1,2.7,1.8c.7.8,1.2,1.6,1.6,2.5s.5,1.9.5,2.9-.2,1.9-.5,2.9-.9,1.8-1.6,2.5-1.6,1.3-2.7,1.8c-1.1.4-2.3.7-3.8.7h-3.8v9.2h-2.2ZM4.9,118.7h3.6c1.5,0,2.8-.3,3.7-.8s1.7-1.3,2.2-2.2c.5-.9.7-1.9.7-2.9s-.2-2-.7-2.9-1.2-1.6-2.1-2.2-2.2-.8-3.7-.8h-3.6v11.8h0Z"/>
  <path d="M34.2,129.8v-24.9h2.2v8.6h10v-8.6h2.2v24.9h-2.2v-14.4h-10v14.4h-2.2Z"/>
  <path d="M78.6,130.3c-1.8,0-3.4-.3-5-1-1.6-.7-2.9-1.6-4.1-2.8-1.2-1.2-2.1-2.6-2.7-4.1-.7-1.6-1-3.2-1-5s.3-3.4,1-5,1.6-2.9,2.8-4.1,2.5-2.1,4.1-2.8,3.2-1,4.9-1,3.4.3,5,1,2.9,1.6,4.1,2.8,2.1,2.5,2.8,4.1,1,3.2,1,5-.3,3.4-1,5-1.6,2.9-2.8,4.1c-1.2,1.2-2.5,2.1-4.1,2.8-1.5.7-3.2,1-5,1M78.6,128.2c1.5,0,2.8-.3,4.1-.8s2.4-1.3,3.3-2.3,1.7-2.1,2.2-3.4.8-2.7.8-4.2-.3-2.9-.8-4.2-1.3-2.4-2.2-3.4c-.9-1-2.1-1.8-3.3-2.3s-2.7-.8-4.1-.8-2.8.3-4.1.8-2.4,1.3-3.3,2.3-1.7,2.1-2.2,3.4-.8,2.7-.8,4.2.3,2.9.8,4.2,1.3,2.4,2.2,3.4,2.1,1.8,3.3,2.3,2.6.8,4.1.8"/>
  <path d="M110.9,129.8v-22.9h-6.9v-2h16v2h-6.9v22.9h-2.2,0Z"/>
  <path d="M145.3,130.3c-1.8,0-3.4-.3-5-1-1.6-.7-2.9-1.6-4.1-2.8-1.2-1.2-2.1-2.6-2.7-4.1-.7-1.6-1-3.2-1-5s.3-3.4,1-5,1.6-2.9,2.8-4.1,2.5-2.1,4.1-2.8,3.2-1,4.9-1,3.4.3,5,1,2.9,1.6,4.1,2.8,2.1,2.5,2.8,4.1,1,3.2,1,5-.3,3.4-1,5-1.6,2.9-2.8,4.1c-1.2,1.2-2.5,2.1-4.1,2.8-1.5.7-3.2,1-5,1M145.3,128.2c1.5,0,2.9-.3,4.1-.8s2.4-1.3,3.3-2.3,1.7-2.1,2.2-3.4.8-2.7.8-4.2-.3-2.9-.8-4.2-1.3-2.4-2.2-3.4c-.9-1-2.1-1.8-3.3-2.3s-2.7-.8-4.1-.8-2.9.3-4.1.8-2.4,1.3-3.3,2.3-1.7,2.1-2.2,3.4-.8,2.7-.8,4.2.3,2.9.8,4.2,1.3,2.4,2.2,3.4,2.1,1.8,3.3,2.3,2.6.8,4.1.8"/>
  <path d="M186.4,130.3c-1.8,0-3.5-.3-5-1-1.6-.7-2.9-1.6-4.1-2.8s-2.1-2.5-2.8-4.1-1-3.2-1-5,.3-3.4,1-5c.7-1.6,1.6-2.9,2.7-4.1,1.2-1.2,2.5-2.1,4.1-2.8,1.5-.7,3.2-1,5-1s3.4.3,4.9,1c1.6.6,2.9,1.5,4.1,2.7l-.6,2.7c-1-1.3-2.2-2.3-3.6-3.1s-3-1.1-4.7-1.1-2.9.3-4.1.8-2.4,1.3-3.3,2.3-1.7,2.1-2.2,3.4-.8,2.7-.8,4.2.3,2.9.8,4.2,1.3,2.4,2.2,3.4,2.1,1.8,3.4,2.3c1.3.6,2.7.8,4.2.8s2.3-.2,3.4-.5c1.1-.3,2.1-.8,2.9-1.4v-7.4h-7.9v-1.9h9.9v10.4c-1.1.9-2.4,1.6-3.9,2.1s-3,.7-4.5.7h0Z"/>
  <path d="M213.3,129.8v-24.9h5.9c1.5,0,2.7.3,3.8.9s1.9,1.4,2.5,2.4c.6,1,.9,2.1.9,3.3s-.2,1.9-.6,2.7c-.4.8-1,1.5-1.7,2.1-.8.6-1.7,1-2.6,1.3l8.7,12.2h-2.6l-8.4-11.9h-3.7v11.9h-2.2ZM215.5,116.1h3.5c1.2,0,2.2-.2,3-.7s1.4-1,1.8-1.7.6-1.5.6-2.3-.2-1.7-.6-2.3-1-1.2-1.8-1.6-1.7-.6-2.7-.6h-3.6v9.2h0Z"/>
  <path d="M243.4,129.8l10-25.7h0l10,25.7h-2.3l-3.4-8.8h-8.8l-3.4,8.8h-2.2ZM249.7,119.1h7.4l-2.2-5.9c-.3-.8-.6-1.5-.8-2.1-.3-.7-.5-1.5-.7-2.2-.2.9-.5,1.6-.7,2.2s-.5,1.3-.8,2.1l-2.2,5.9h0Z"/>
  <path d="M279.9,129.8v-24.9h5.9c1.5,0,2.7.2,3.8.7s2,1,2.7,1.8c.7.8,1.2,1.6,1.6,2.5s.5,1.9.5,2.9-.2,1.9-.5,2.9-.9,1.8-1.6,2.5-1.6,1.3-2.7,1.8c-1.1.4-2.3.7-3.8.7h-3.8v9.2h-2.2ZM282.1,118.7h3.6c1.5,0,2.8-.3,3.7-.8s1.7-1.3,2.2-2.2c.5-.9.7-1.9.7-2.9s-.2-2-.7-2.9-1.2-1.6-2.1-2.2-2.2-.8-3.7-.8h-3.6v11.8h0Z"/>
  <path d="M311.5,129.8v-24.9h2.2v8.6h10v-8.6h2.2v24.9h-2.2v-14.4h-10v14.4h-2.2Z"/>
  <path d="M349.7,129.8v-12.1l-7.6-12.8h2.5l4.6,7.8c.3.5.6,1,.8,1.5.3.5.6,1,.8,1.6.3-.6.6-1.1.8-1.6.3-.5.6-1,.9-1.5l4.6-7.8h2.4l-7.6,12.8v12.1h-2.2Z"/>
</svg>