<?xml version="1.0" encoding="UTF-8"?>
<svg data-bbox="0.01 0 366.721 130.28" viewBox="0 0 366.73 130.26" xmlns="http://www.w3.org/2000/svg" data-type="color">
    <g>
        <path d="M51.03 68.44c3.5-1.1 7-2 10.51-2.8 9.3-2.1 12.61-2.3 13.51-1.6.5.5.4.6-.3.8l-12.31 3.4-8.8 2.6c1.9 2.2 3 4.9 3 8.3 0 11.91-15.61 20.61-30.02 23.01-1.4.2-2.9.4-4.5.4-5.6 0-11.41-1.8-11.41-7.8.2-3.1 2.3-6.3 5.7-9.31 7.2-6.5 18.71-11.91 30.92-15.91-5.9-3.7-15.31-5-22.31-6-9.71-1.3-21.41-4.1-24.01-12.51-.7-2.1-1-4.2-1-6.2 0-10.61 8.4-20.11 17.71-26.41 7.6-5 16.91-8.6 25.31-8.6 5 0 9.71 1.3 13.41 4.3 2.5 2.5 3.5 5.2 3.5 8.2 0 3.8-1.7 8.1-4 12.71-1.7 3.3-4.3 4.2-3.3 1.6 2.3-4.7 4-9.71 4-13.91 0-2.8-.7-5.2-2.5-6.9-2.3-1.8-5.3-2.6-8.7-2.6-8.5 0-19.11 4.8-24.81 8.7-10.22 7-17.23 15.31-17.23 24.21 0 1.5.2 2.9.6 4.4 1.7 6.4 11.81 9.1 20.61 10.31 6.8 1 19.21 2.2 26.41 7.6Zm-.7 3.5c-15.21 5.1-25.01 10.41-31.02 15.71-4 3.5-5.7 6.3-5.7 8.4 0 2.6 2.8 4 7 4q2.4 0 5.4-.6c11.21-2.2 26.31-9.6 26.91-20.81 0-2.7-1-4.9-2.6-6.7Z" fill="#f16e93" data-color="1"/>
        <path d="M69.24 66.83c0-2.2 1.1-4.4 3.6-6.1 2.7-1.8 6.1-2.7 9.61-2.7 2.8 0 5.6.6 8.1 1.7h.1l1.7-2.3c.6-1.1 4 1.1 3.3 2.3-.5 1.5-1.4 3.3-1.6 5.2-.1 1.7.4 3.7 2.2 4.2 5.1 1 13.71-4.1 17.31-8.1 1.7-1.7 3.2.8-2.3 6.3-2.5 2.5-9.4 5.7-13.61 4.7-3.3-.8-5.8-2.7-7.1-6.3-2.8 2.5-9.41 7.6-14.71 7.6-1.3 0-2.5-.3-3.6-1-2-1.5-3-3.4-3-5.5m19.61-5.1c-1-.3-2.4-.5-3.9-.5-5 0-11.61 1.9-12.71 6.5-.3 1.2.3 2.3 1.8 2.4 4.8-.6 11.31-4.7 14.81-8.4" fill="#f16e93" data-color="1"/>
        <path d="M113.06 57.13c0-.7 1-.7 2-.2.9.5 1.5 1.5 1.5 2.1l-.1 3.9c2.5-3.2 9.91-9 15.41-8.1 2.3.4 3.7 2.5 3 3.3-1.4 1.6-2.8 1-2.7.2l.1-.8c-5-.1-13.31 6-15.71 12.91-.3.8-.3 1.4-.7 4.3.1 1.3-3.2 0-3.6-1.5-.4-.9-.6-3.5.8-16.11" fill="#f16e93" data-color="1"/>
        <path d="M177.1 73.74c-3.6 0-6.8-.3-9.3-.9-3.3-.9-9-5.1-9-8v-.1c-3.5 2.6-8 6.8-13.01 6.8-2.5 0-5.3-1.6-6.7-3.8-.7-1.2-1-2.3-1-3.4 0-1.7.8-3.3 2.6-4.7 1.9-1.5 5.1-2.5 9.11-2.5 2.3 0 5 .4 7.8 1.2l1.4.4c1.5-2 1.7-2.1 1.7-2.2.6-1.1 4 1.1 3.5 2.3l-.2.3c-1 1.6-1.5 3.5-1.5 5.2 0 2.2.9 4.1 3.1 4.8 2.1.6 5.4.8 9.5.8 11.81 0 29.02-2 33.52-3.3.7-.2 4.4-1.1 4.9-.3.8.8-3.4 2.4-4.1 2.6-7 2.3-21.31 4.8-32.32 4.8m-20.21-12.81.2-.2-1.2-.2c-1.3-.3-2.7-.4-4.1-.4-2.8 0-5.7.6-8 2.2-1.4.9-2.5 2.8-2.5 4.2 0 1.1.7 2 2.5 2 4.1 0 10.31-4.5 13.11-7.6Z" fill="#f16e93" data-color="1"/>
        <path d="M182.45 21.71c8.3-3.5 22.91-8.8 36.02-13.01.3-2.2.6-3.8 1.2-4.8.5-.3 1.3-.3 2.5.5 1 .5 1.4 1.5 1.2 1.9-.2.2-.4.5-.5 1 6-1.9 11.61-3.4 15.71-4.5 6.1-1.5 14.51-2.8 22.11-2.8 9.1 0 17.21 1.9 18.71 7.9.2 1.2-.8 1.4-1.1.8-2.5-4-8.3-5.9-16.31-5.9-6.4 0-14.31 1.2-23.01 3.4-4.4 1.2-10.21 2.8-16.81 4.8-1.5 18.71-1.5 30.52-1.6 44.92 5.8-.1 17.71-.2 24.41-.2h7.6c.8 0 1.9.7 2.5 1.6.8.8.4 1.4-.4 1.4-4 0-7.7-.1-11.21-.1-6.1 0-17.51.1-22.81.3l.3 24.11c1.5 2.4 2.2 7.4 2.2 11.71 0 4-.6 7.5-1.6 7.6-.8.1-1.9-.9-2.4-1.7.1-.1 0-.2 0-.3-.8-2-1.5-16.41-1.5-18.91-.8-1.1-1.1-2.1-1.8-3-5.2-8.7-14.91-15.61-22.61-17.71h-.2c-.5.2-1.3-.1-2.1-.6 0 0-.1-.1-.1-.2-.3-.2-.4-.3-.5-.5-.7-.8-.5-1.5.1-1.6 9.8-.9 18.31-1.5 26.91-1.8-.1-4.9-.1-9.3-.1-13.41 0-11.61.3-20.91 1-30.32-13.31 4.2-28.41 9.6-38.42 14.21-1.1.4-3-1.3-1.9-3l4.5-1.8Zm35.02 54.23-.2-16.81c-6 .2-12.51.6-18.91 1.2 8.2 4 15.11 10.1 19.11 15.61" fill="#f16e93" data-color="1"/>
        <path d="M262.29 68.34c-.3-.9-.5-1.9-.5-2.9 0-4.4 3-8.9 7.9-9.1 3.1 0 6 3 4.9 5.9-1.3 3.2-5.6 5.6-9.1 5.6.3 1.9 3.8 5.1 7.3 5.1 9.4 0 16.41-7 20.61-11.41 2.3-2.4 1.9-.1.5 2.7-2.8 5.8-9.2 10.71-16.11 11.11-5.9.3-13.51-.8-15.51-7Zm3.1-2.9c4.2-1.9 7-4.6 5.9-5.7-2.1-2.1-6 3.2-5.9 5.7" fill="#f16e93" data-color="1"/>
        <path d="M300.01 109.86c-6.1-5.2-7.5-18.11-7.5-29.82 0-5.7.3-11.11.6-15.21l-1.7-.8c-2.1-.6-2.9-3.2-.8-2.7l2.5.5-.1-1.9c.1-6 1.7-25.51 2.5-29.62.1-.6 1-.6 1.9-.1 1 .5 1.7 1.5 1.5 2.1-.6 4-2.2 23.41-2.4 29.32l.1.6h.4c1.2.1 19.31-.4 21.11-1.1 2-.6 2.1 1.7-1.9 3-2.9.9-9.5 1.2-13.91 1.2-1.6 0-2.9 0-3.7-.1l-.9-.1 1.7 1.4c2.3 2.2 3.9 4.8 5.5 7.5 2.8 5.5 4.3 11.71 4.7 17.51.1 1.3.1 2.5.1 3.7 0 4.3-.5 8.2-1.6 11.01-.6 1.8-1.6 3.2-2.7 4s-2.8 1-5.1-.2c-.1 0-.2-.1-.3-.2Zm6.3-15.11c0-1.4-.1-3-.2-4.5-.4-5.5-1.7-11.31-4.2-16.21-1.3-2.4-2.9-4.5-4.5-6.2l-1.1-.8c-.4 3.7-.7 8.9-.7 14.31 0 10.01 1.1 20.91 5.2 26.01l.3.4-.2-.1c1 .6 2.7.2 3.9-3.4 1-2.4 1.5-5.7 1.5-9.5Z" fill="#f16e93" data-color="1"/>
        <path d="M313.22 68.34c-.3-.9-.5-1.9-.5-2.9 0-4.4 3-8.9 7.9-9.1 3.1 0 6 3 4.9 5.9-1.3 3.2-5.6 5.6-9.1 5.6.3 1.9 3.8 5.1 7.3 5.1 9.4 0 16.41-7 20.61-11.41 2.3-2.4 1.9-.1.5 2.7-2.8 5.8-9.2 10.71-16.11 11.11-5.9.3-13.51-.8-15.51-7Zm3.1-2.9c4.2-1.9 7-4.6 5.9-5.7-2.1-2.1-6 3.2-5.9 5.7" fill="#f16e93" data-color="1"/>
        <path d="M344.74 57.13c0-.7 1-.7 2-.2.9.5 1.5 1.5 1.5 2.1l-.1 3.9c2.5-3.2 9.91-9 15.41-8.1 2.3.4 3.7 2.5 3 3.3-1.4 1.6-2.8 1-2.7.2l.1-.8c-5-.1-13.31 6-15.71 12.91-.3.8-.3 1.4-.7 4.3.1 1.3-3.2 0-3.6-1.5-.4-.9-.6-3.5.8-16.11" fill="#f16e93" data-color="1"/>
        <path d="M2.71 129.84v-24.86h5.94c1.46 0 2.72.22 3.79.66s1.96 1.04 2.67 1.78c.71.75 1.24 1.58 1.59 2.51s.52 1.89.52 2.89-.17 1.93-.52 2.86-.88 1.77-1.59 2.53-1.6 1.35-2.67 1.8c-1.07.44-2.33.66-3.79.66H4.89v9.17zm2.18-11.1h3.59c1.51 0 2.75-.28 3.73-.83s1.69-1.28 2.16-2.18c.46-.9.69-1.87.69-2.9s-.23-2-.69-2.9-1.17-1.63-2.14-2.18-2.21-.83-3.74-.83H4.9v11.82Z" fill="#ffffff" data-color="2"/>
        <path d="M34.25 129.84v-24.86h2.18v8.56h9.95v-8.56h2.18v24.86h-2.18v-14.36h-9.95v14.36z" fill="#ffffff" data-color="2"/>
        <path d="M78.62 130.26c-1.77 0-3.43-.34-4.97-1.01-1.55-.67-2.9-1.59-4.06-2.76a13.1 13.1 0 0 1-2.74-4.09c-.66-1.56-.99-3.22-.99-4.99s.33-3.43.99-4.99 1.58-2.92 2.75-4.09 2.53-2.09 4.07-2.76 3.2-1.01 4.95-1.01 3.42.34 4.96 1.01 2.89 1.59 4.06 2.76 2.09 2.53 2.75 4.09.99 3.22.99 4.99-.33 3.43-.99 4.99-1.58 2.92-2.75 4.09a13 13 0 0 1-4.06 2.76c-1.54.67-3.19 1.01-4.96 1.01m0-2.07c1.47 0 2.85-.28 4.13-.83s2.39-1.33 3.34-2.32 1.69-2.14 2.22-3.44.8-2.69.8-4.19-.27-2.89-.8-4.19-1.28-2.44-2.22-3.44c-.95-.99-2.06-1.77-3.34-2.32s-2.66-.83-4.13-.83-2.85.28-4.12.83-2.38 1.33-3.34 2.32-1.7 2.14-2.24 3.44-.8 2.69-.8 4.19.27 2.89.8 4.19 1.28 2.44 2.24 3.44 2.07 1.77 3.34 2.32 2.64.83 4.12.83" fill="#ffffff" data-color="2"/>
        <path d="M110.88 129.84v-22.9h-6.91v-1.96h15.97v1.96h-6.91v22.9h-2.16Z" fill="#ffffff" data-color="2"/>
        <path d="M145.3 130.26c-1.77 0-3.43-.34-4.97-1.01-1.55-.67-2.9-1.59-4.06-2.76a13.1 13.1 0 0 1-2.74-4.09c-.66-1.56-.99-3.22-.99-4.99s.33-3.43.99-4.99 1.58-2.92 2.75-4.09 2.53-2.09 4.07-2.76 3.2-1.01 4.95-1.01 3.42.34 4.96 1.01 2.89 1.59 4.06 2.76 2.09 2.53 2.75 4.09.99 3.22.99 4.99-.33 3.43-.99 4.99-1.58 2.92-2.75 4.09a13 13 0 0 1-4.06 2.76c-1.54.67-3.19 1.01-4.96 1.01m0-2.07c1.47 0 2.85-.28 4.13-.83s2.39-1.33 3.34-2.32 1.69-2.14 2.22-3.44.8-2.69.8-4.19-.27-2.89-.8-4.19-1.28-2.44-2.22-3.44c-.95-.99-2.06-1.77-3.34-2.32s-2.66-.83-4.13-.83-2.85.28-4.12.83-2.38 1.33-3.34 2.32-1.7 2.14-2.24 3.44-.8 2.69-.8 4.19.27 2.89.8 4.19 1.28 2.44 2.24 3.44 2.07 1.77 3.34 2.32 2.64.83 4.12.83" fill="#ffffff" data-color="2"/>
        <path d="M186.38 130.26c-1.8 0-3.49-.33-5.04-.99-1.56-.66-2.92-1.58-4.1-2.76s-2.1-2.54-2.76-4.09-.99-3.21-.99-5 .33-3.43.99-4.97c.66-1.55 1.58-2.91 2.74-4.09a12.9 12.9 0 0 1 4.05-2.78c1.54-.67 3.19-1.01 4.96-1.01s3.37.32 4.92.97c1.55.64 2.91 1.54 4.09 2.68l-.64 2.65c-.96-1.31-2.16-2.34-3.62-3.09s-3.03-1.13-4.72-1.13c-1.47 0-2.85.28-4.12.83s-2.38 1.32-3.34 2.31-1.7 2.13-2.24 3.43-.8 2.7-.8 4.21.27 2.89.8 4.2 1.28 2.45 2.25 3.44 2.09 1.75 3.38 2.31c1.29.55 2.7.83 4.23.83 1.18 0 2.31-.16 3.38-.48 1.08-.32 2.06-.78 2.94-1.37v-7.38h-7.87v-1.93h9.92v10.36c-1.12.94-2.41 1.65-3.87 2.14s-2.96.73-4.53.73Z" fill="#ffffff" data-color="2"/>
        <path d="M213.31 129.84v-24.86h5.86c1.46 0 2.72.29 3.8.88s1.92 1.38 2.51 2.38c.6.99.9 2.08.9 3.26 0 .98-.2 1.87-.61 2.69q-.615 1.23-1.71 2.1a7.6 7.6 0 0 1-2.6 1.31l8.7 12.24h-2.6l-8.42-11.91h-3.67v11.91zm2.16-13.7h3.48c1.18 0 2.16-.22 2.96-.65s1.39-1 1.8-1.71.61-1.47.61-2.28c0-.87-.22-1.65-.65-2.35s-1.04-1.25-1.81-1.64-1.69-.59-2.74-.59h-3.65v9.23Z" fill="#ffffff" data-color="2"/>
        <path d="m243.45 129.84 10-25.69h.06l10 25.69h-2.29l-3.37-8.84h-8.84l-3.37 8.84h-2.18Zm6.27-10.69h7.43l-2.24-5.88c-.31-.81-.58-1.52-.8-2.13a30 30 0 0 1-.69-2.21c-.24.87-.47 1.6-.68 2.21s-.47 1.32-.79 2.13l-2.24 5.88Z" fill="#ffffff" data-color="2"/>
        <path d="M279.94 129.84v-24.86h5.94c1.46 0 2.72.22 3.79.66s1.96 1.04 2.67 1.78c.71.75 1.24 1.58 1.59 2.51s.52 1.89.52 2.89-.17 1.93-.52 2.86-.88 1.77-1.59 2.53-1.6 1.35-2.67 1.8c-1.07.44-2.33.66-3.79.66h-3.76v9.17zm2.18-11.1h3.59c1.51 0 2.75-.28 3.73-.83s1.69-1.28 2.16-2.18c.46-.9.69-1.87.69-2.9s-.23-2-.69-2.9-1.17-1.63-2.14-2.18-2.21-.83-3.74-.83h-3.59v11.82Z" fill="#ffffff" data-color="2"/>
        <path d="M311.49 129.84v-24.86h2.18v8.56h9.95v-8.56h2.18v24.86h-2.18v-14.36h-9.95v14.36z" fill="#ffffff" data-color="2"/>
        <path d="M349.66 129.84v-12.1l-7.65-12.76h2.54l4.59 7.76c.28.5.56 1 .84 1.51q.435.765.84 1.62.42-.855.84-1.62c.29-.51.58-1.01.87-1.51l4.59-7.76h2.35l-7.65 12.76v12.1z" fill="#ffffff" data-color="2"/>
    </g>
</svg>
