<?xml version="1.0" encoding="UTF-8"?>
<svg data-bbox="-0.026 -0.01 484.786 478.69" viewBox="0 0 484.79 478.68" xmlns="http://www.w3.org/2000/svg" data-type="color">
    <g>
        <path d="M371.94 259.25c-.6-.77-1.21-1.41-1.67-2.15-.53-.86-.93-1.8-1.37-2.71-.3-.63-.48-1.34-.89-1.88-1.76-2.33-2.79-2.5-5.4-1.1-1.18.64-2.4 1.21-3.61 1.79-1.56.75-3.12 1.53-4.71 2.22-1.09.47-2.26.77-3.36 1.22-4.34 1.78-8.66 3.6-13.01 5.36-.76.31-1.05.75-1.28 1.53-.2.69-.72 1.43-1.31 1.83-.84.57-.84 1.22-.74 2.06.28 2.37.51 4.75.77 7.15-.64.48-1.19.9-1.75 1.31.09.96.26 1.83.25 2.69-.03 1.47-.64 2.05-2.11 2.48-1.27.37-1.99-.26-2.54-1.22-.47-.83-.88-1.7-1.29-2.56-.85-1.79-1.72-3.56-2.48-5.38-.27-.64-.31-1.39-.36-2.09-.15-2.22-1.04-3.37-3.24-3.32-5.18.12-10.38-.35-15.53.69-2.34.47-4.71.87-7.08 1.16-1.8.22-3.64.2-5.45.34-3 .24-6.01.5-9 .83-.6.07-1.37.28-1.73.71-1.82 2.15-3.53 4.39-5.55 6.95h2.3c.87 1.02-.62 3.12-2.93 3.91-.36 2.49-.69 5.08-1.11 7.65-.19 1.15-.12 2.43-1.18 3.29-.16.13-.23.41-.27.64q-.36 2.17-2.27 3.05c-2.26-1.31-3.89-3.18-4.82-5.75-.31-.85-1.09-1.52-1.65-2.28-.8-1.08-1.7-2.11-2.33-3.28-.47-.88-.54-1.93-1.57-2.55-.34-.21-.4-1.14-.33-1.71.15-1.29.34-2.52-.69-3.58-.2-.21-.23-.59-.34-.89-1.65-4.56-1.7-3.72-5.71-3.39-3.57.3-7.21.42-10.67 1.25-3.97.95-7.96.77-11.94 1.13-2.43.22-4.83.34-7.26.17-2.09-.15-2.99 1.03-2.56 3.17.3 1.47.49 2.85-1.35 3.55-.37.14-.72.64-.87 1.05-.62 1.71-1.29 3.42-1.71 5.19-.56 2.33-1.47 3.35-3.45 3.39-.35-.5-.58-1.25-1.07-1.5-1.99-1-3.08-2.63-3.78-4.65-.65-1.86-1.39-3.7-2.13-5.52-.49-1.2-.78-2.36.47-3.59-.97-.25-1.62-.41-2.36-.6-.27-.6-.53-1.26-.87-1.89-.96-1.8-2.22-2.21-4.19-1.61-.87.26-1.87.41-2.76.26-3.7-.62-7.36-1.44-11.07-2.04-3.23-.52-6.49-.84-9.73-1.28-1.81-.24-3.6-.67-5.42-.78-2.24-.15-2.35.14-1.14 2.36-3 .95-3.72 3.38-3.97 6.16-.08.84-.5 1.65-.8 2.47-.87 2.37-1.97 4.65-1.32 7.35.34 1.42-.55 2.19-2.03 2.2-.56 0-1.12-.05-1.68-.03-1.01.03-1.64-.43-2-1.37-.94-2.45-2.04-4.84-2.83-7.34-.41-1.32-.32-2.81-.42-4.22-.05-.78.14-1.61-.06-2.34-.43-1.57-1.04-3.09-1.68-4.92-2.9-1.5-6.09-3.11-9.8-3.63-2.06-.29-3.98-1.5-6-2.21-2.4-.84-4.83-1.57-7.24-2.35-.76-.25-1.57-.68-2.07.35-.48.99.3 1.43.96 1.9.11.08.14.26.2.4-.01.08 0 .19-.05.23-2.22 1.86-2.71 4.57-3.51 7.13-.85 2.73-1.66 5.48-2.66 8.15-.3.82-1.15 1.43-1.67 2.05-1.44-.17-2.1-.83-2.24-2.03-.1-.87-.18-1.74-.3-2.61-.21-1.42-.26-2.83-2.29-3.07-1.38-.16-1.05-1.54-1.2-2.59.59-.32 1.13-.61 1.61-.87.03-.26.1-.42.07-.56-.74-3.58-1.53-7.16-2.2-10.75-.29-1.59-1.24-2.34-2.54-3.18-2.48-1.6-5.16-1.26-7.82-1.4-1.6-.09-3.17-.15-4.61-1.05-1.05-.65-2.23-.51-3.09.4-1.51 1.58-3.35 2.9-3.93 5.24-.35 1.43-1.33 2.45-2.55 3.35-1 .73-1.69 1.87-2.58 2.76-.6.6-1.22 1.32-1.97 1.58-1.61.55-2.65-.41-2.06-1.97.89-2.37.83-4.69.24-7.06-.35-1.38-.82-2.73-1.23-4.09-.51-1.67-1.04-3.34-1.53-5.03-.41-1.41-1.31-2.35-2.66-2.87-1.21-.46-2.18-1.12-2.96-2.27-.51-.76-1.62-1.3-2.56-1.54-2.61-.69-5.28-1.18-8.1-1.79 1.04-1.97-.37-2.85-1.8-3.79-1.17-.77-2.24-1.69-3.48-2.64-1.13 1.03-2.35 2.13-3.56 3.25-1.28 1.18-2.48 2.45-3.83 3.54-.71.58-1.67.85-2.52 1.26-.69.33-1.37.66-2.08.94-.56.22-1.63.55-1.65.5-.65-1.61-2.94-1.85-3.13-3.81-.23-2.41.02-4.75.84-7.04.82-2.32 1.64-4.64 2.32-7 .84-2.93.66-3.76-1.89-5.17-1.86-1.03-3.33-2.43-4.89-3.78-2.15-1.87-4.35-3.69-6.46-5.61-.93-.84-1.68-1.86-2.54-2.78-1.78-1.92-2.78-2.11-5.17-.97-.72.34-1.4.81-2.15 1.01-3.35.87-6.19-.36-8.88-2.17.1-.28.11-.49.21-.56 2.18-1.54 2.44-3.77 2.32-6.19-.05-.93.14-1.88.34-2.8.34-1.53.97-3.03 1.14-4.57.17-1.56.45-2.9 1.62-4.09 1-1.02.66-2.43.07-3.57-2.09-4.02-4.32-7.96-6.42-11.98-1.1-2.11-1.96-4.35-3.05-6.47-1.37-2.67-1.81-5.66-2.85-8.38-1.15-3.02-1.25-6.15-2.17-9.15-.92-3.03-1.42-6.19-2.23-9.26-1.18-4.43-2.54-8.82-3.65-13.27-.25-.98.02-2.25.46-3.2.42-.91.6-1.72.61-2.71.01-1.74.28-3.48.41-5.22.08-1.03.2-2.07.14-3.1-.29-4.6-.64-9.2-.97-13.79-.02-.32-.03-.64 0-.95.38-3.95.56-7.94 1.23-11.84.48-2.79 1.56-5.49 2.52-8.18.4-1.12 2.34-1.79 3.43-1.38 1.18.44 1.29 1.44 1.3 2.56.03 2.78.11 5.56.21 8.34.06 1.53-.65 3.19.75 4.53.16.16.18.71.04.9-1.09 1.5-.28 2.7.53 3.93.7 1.07.8 2.2.35 3.43-.21.57-.25 1.25-.17 1.86.41 3.22.54 6.47 1.49 9.61 1.53 5.02 2.75 10.14 4.52 15.08 1.73 4.86 3.89 9.57 6.05 14.26.64 1.39 1.93 2.47 2.91 3.7 2.46 3.11 4.88 6.26 7.39 9.33 2.1 2.57 4.11 5.26 6.52 7.51 1.97 1.84 3.82 3.77 5.67 5.72 2.52 2.64 5.05 5.29 7.75 7.75 3.38 3.07 6.85 6.05 10.44 8.87 1.66 1.31 3.72 2.11 5.54 3.24 1.74 1.08 3.37 2.35 5.13 3.41 3.45 2.09 6.75 4.4 9.64 7.21.57.55.66 1.6.8 2.52 1.75 1.91 4.34 2.31 6.66 3.26 3.08 1.26 6.18 2.48 9.33 3.53 2.3.76 4.71 1.21 7.07 1.8 1.23.31 2.47.61 3.69.94 1.6.43 3.18.92 4.78 1.33 2.53.65 5.11 1.12 7.59 1.91 2.67.85 5.53.98 7.99.32 3.16-.86 5.97-.18 8.9.34 2.11.38 4.16 1.16 6.28 1.48 2.19.33 4.44.34 6.66.42 1.89.07 3.78.02 5.67.03.31 0 .64.05.94.14 6.09 2 11.98.63 17.89-.93 1.67-.44 3.44-.51 5.16-.72.18-.02.38.14 1 .4-1.72.44-3.03.77-4.35 1.1 1.49.93 3.05.77 4.51.66 3.4-.27 6.78-.79 10.16-1.22.31-.04.66-.07.93-.22 2.47-1.41 5.23-1.13 7.9-1.39 4.29-.43 8.59-.74 12.85-1.36 1.94-.28 3.84-1.08 5.68-1.83 1.88-.77 2.79-2.55 3.79-4.16-1.47-3.27-4.04-5.65-6.31-8.25-4.08-4.67-7.87-9.5-10.32-15.28-1.37-3.22-3.08-6.3-4.5-9.5-.64-1.43-.97-3-1.39-4.52-.69-2.53-1-5.12-.98-7.73.01-1.78-.06-3.63 1.12-5.43 1.75 1.53 3.46.78 5.04-.1 4.25-2.36 8.92-3.26 13.6-4.13 4.53-.84 9.07-1.66 13.64-2.32 3.45-.5 6.94-.75 10.41-1.11 1.03-.11 2.06-.29 3.09-.32 3.81-.13 7.63-.5 11.42-.24 4.08.28 8.29.48 11.94 2.82.26.17.58.26.88.34 2.07.55 2.88 2.1 3.21 4.03.13.78.12 1.6.36 2.34.97 3.06.06 5.81-1.24 8.52-1 2.07-1.98 4.16-2.98 6.23-.13.28-.27.61-.51.78-1.76 1.29-2.41 3.34-3.43 5.11-1.13 1.96-2.43 3.72-4.17 5.15-.24.2-.46.44-.65.69-2.39 3.07-4.68 6.23-7.18 9.21-2.91 3.47-5.99 6.79-9.04 10.22.18.6.39 1.19.54 1.8.94 3.84 4.34 6.11 8.23 5.62.96-.12 2.18-.05 2.95.45 2.57 1.68 5.55 1.95 8.38 2.6 6.99 1.59 14.14 1.28 21.25 1.28 3.98 0 7.97-.12 11.95 0 4.43.12 8.75-.63 13.07-1.36 3.7-.63 7.42-1.17 11.1-1.9s7.34-1.57 10.97-2.5c1.45-.37 2.8-1.1 4.38-1.74 1.53 1.2 3.19.76 5 .03 3.47-1.4 7.02-2.64 10.58-3.83 9.28-3.1 18.23-6.93 26.52-12.17 7.24-4.57 13.95-9.87 20.54-15.33 1.97-1.63 3.86-3.35 5.85-4.96 1.57-1.27 2.91-2.67 3.97-4.42.72-1.19 1.95-2.07 2.93-3.1.87-.91 1.81-1.78 2.56-2.79.99-1.34 2.02-2.56 3.39-3.57 1.19-.88 2.15-2.11 3.12-3.26 2.65-3.13 5.26-6.29 7.87-9.45 2.07-2.5 4.1-5.04 6.18-7.54.86-1.04 1.8-2.02 2.66-3.06.76-.91 1.57-1.81 2.17-2.82 1.57-2.66 3.47-5.23 4.45-8.11 1.67-4.91 4.83-8.92 7.17-13.41 1.59-3.04 3.24-6.05 4.91-9.06 1.77-3.19 3.59-6.36 5.39-9.54.08-.14.11-.32.23-.42 3.32-2.69 3.98-6.72 5.23-10.44.73-2.18 1.22-4.45 1.79-6.69.57-2.22 2.04-3.71 3.83-5 .71-.51 1.31-1.16 1.97-1.76.17.6.43 1.28.55 1.97.17 1.01.45 1.84 1.63 2.06.94.18 1.26.91 1.28 1.78.04 1.52.01 3.03.07 4.55.12 3.34.31 6.68-.41 9.99-.2.91-.06 1.78.65 2.66.97 1.2 1.22 2.76.96 4.3-.38 2.28-.77 4.55-1.24 6.81-1.13 5.39-1.91 10.89-3.55 16.12-2.22 7.07-4.87 14.04-7.77 20.87-4.84 11.39-9.98 22.66-15.12 33.93-1.15 2.52-2.79 4.82-4.18 7.23-.82 1.42-.8 1.43-.21 3.05-.04.15-.04.35-.14.44-1.85 1.69-2.79 3.5-2.44 6.28.42 3.28-.12 6.67.02 9.99.09 2.05.5 4.13 1.07 6.11.47 1.65-.37 2.81-1.02 4.03-.4.76-1.32.94-2.04.22-.56-.55-1.23-1.14-1.46-1.84-.9-2.83-3.31-4.13-5.47-6.08-.85 1.04-1.52 1.87-2.2 2.7-1.39-.77.12-1.85-.3-2.78-.4-.87-.48-1.89-.77-3.17-2.18 1.55-4 2.76-5.16 4.92-.79 1.48-2.24 2.61-3.42 3.87-.8.85-1.65 1.66-2.49 2.48-.79.78-1.56 1.59-2.38 2.34-2.27 2.09-4.62 4.1-6.81 6.27-.79.78-1.6 1.73-1.05 3.17.2.53-.32 1.3-.32 1.96-.01 2.23-.55 4.36-1.04 6.52-.38 1.68.13 3.63-.51 5.15a8.1 8.1 0 0 0-.55 4.31c.53 3.92-.61 7.88.54 11.79.36 1.22.32 2.93-1.76 3.79-.57-.98-1.35-1.9-1.69-2.97-.37-1.16-1-1.99-1.96-2.59-4.85-3.04-7.82-7.63-10.52-12.48-1-1.8-2.28-2.07-3.89-.78-.56.44-.99 1.03-1.53 1.5-1.26 1.08-2.48 2.24-3.84 3.17-2.66 1.83-5.4 3.55-8.12 5.29-1 .64-2.04 1.22-3.06 1.84-1.54.93-1.66 1.1-1.18 2.87.36 1.33-.02 2.51-.46 3.71-.21.57-.64 1.27-.47 1.73.62 1.67-.05 3.07-.45 4.63-.41 1.6-1.18 2.13-2.83 1.96Zm-271.1-45.49c-.57-.61-1.16-1.13-2.1-.23.72.06 1.44.11 2.17.17.92 1.08 1.98 1.85 3.88 1.7-1.33-1.16-2.37-2.01-3.94-1.64Zm140.01-.62c-1.79 1.15-1.99 2.65-2.28 4.01-1.09 4.99-2.57 9.84-4.53 14.55-.85 2.05-1.66 4.12-2.3 6.24-1.94 6.4-3.78 12.83-5.69 19.24-.48 1.6.26 3.82 1.78 4.17 3.32.76 6.52 2.17 10.05 1.91 5.09-.37 10.18-.69 15.27-.99 1.24-.07 2.1-.71 2.17-1.82.17-2.8.69-5.58-1.22-8.26-1.35-1.89-2.12-4.27-2.79-6.54-1.25-4.24-2.09-8.6-3.39-12.82-1.16-3.77-3.07-7.29-3.91-11.21-.48-2.23-1.34-4.38-2.09-6.55-.22-.63-.64-1.18-1.06-1.95Zm31.13 52.5c2.36-.06 3-1.41 3.07-3.32.04-1.03.32-2.05.47-3.08.4-2.76 1-5.52 1.14-8.3.16-3.3.92-6.45 1.9-9.54 1.11-3.49 2.53-6.88 3.65-10.37.81-2.5 1.1-5.2 2.12-7.59.94-2.2-.55-3.12-1.58-4.23-.93-1.01-2.32-.84-3.55-.32-.51.22-1.01.48-1.47.8-1.03.71-2.13.9-3.39.87-1.9-.05-3.82.2-5.73.28-2.32.1-4.73 1.12-6.9-.61-.16-.13-.47-.07-.7-.14-1.75-.46-3.49-.96-5.25-1.38-.5-.12-1.23-.22-1.54.05-.3.25-.36 1.03-.23 1.5.79 2.82 1.62 5.63 2.52 8.42.48 1.49.85 3.15 1.78 4.35 1.94 2.51 2.75 5.34 3.3 8.35.65 3.52 1.54 6.95 3.54 10.01.29.45.42 1.03.52 1.57 1.17 6.11 2.27 12.23 3.52 18.32.17.83.9 1.67 1.59 2.24.79.66 1.57.2 1.64-.83.03-.47-.13-.95-.15-1.42-.1-1.82-.18-3.64-.27-5.6Zm-57.85-.77c.18.04.35.07.53.11.25-.28.65-.54.71-.86.75-3.61 2.37-6.9 3.6-10.34 1.17-3.28 1.99-6.68 3.03-10.01 1.21-3.87 2.42-7.75 3.76-11.57 1.02-2.92 1.97-5.93 3.47-8.61 1.19-2.15 1.83-4.39 2.47-6.67.29-1.02.26-2.14.38-3.31-10.64 3.4-21 6.7-31.34 10 .02 2.05 1.2 3.39 2.08 4.9 1.04 1.78 2.15 3.57 2.8 5.51 1 3.01 1.63 6.14 2.43 9.21.24.92.53 1.83.8 2.75.41.05.8.1 1.37.18.43 1.7 1.25 3.46 1.23 5.22-.05 4.74 2.04 8.96 2.68 13.51Zm115.57-48.05c-.11-.17-.22-.35-.32-.52-.9.12-1.8.24-2.7.37-1.81.27-3.63.83-5.43.75-2.06-.09-3.93.29-5.86.85-2.89.83-5.73 1.98-8.86 1.46-1.43-.24-2.89-.33-4.33-.4-.7-.04-1.44.02-2.12.19-.55.13-1.41.4-1.49.75-.13.59.05 1.61.46 1.88.93.6 1.14 1.45 1.48 2.34.25.66.58 1.35 1.04 1.87 2.22 2.5 4.5 4.95 6.76 7.41.91 1 1.94 1.9 2.74 2.99 1.88 2.58 3.51 5.34 5.49 7.84 3.65 4.59 6.68 9.52 8.79 15 .67 1.73 2.07 2.62 3.75 4.12.04-1.61.21-2.71.05-3.75-.27-1.79-.35-3.47 1.29-4.74-.26-.47-.39-.86-.64-1.14-1.24-1.37-1.65-3.01-1.86-4.81-.81-6.92-.58-13.8.16-20.72.34-3.17 1.5-6.42-.09-9.42.67-.91 1.19-1.61 1.72-2.32Zm55.27-18.33c1.14 1.32 2.35 2.42 3.16 3.76.86 1.42 1.32 3.07 1.97 4.61.28.66.56 1.33.91 1.95 2.9 5.14 5.82 10.27 8.75 15.39.91 1.59 1.86 3.16 2.84 4.71.46.72 1.2 1.31 1.99.68.88-.7 1.85-1.39 1.62-2.92-.24-1.62-.19-3.32-.05-4.96.24-2.77.8-5.52.94-8.29.21-4.21.22-8.42.24-12.64.02-2.89.3-5.73 1.06-8.52.42-1.53 1.07-3.06 1.13-4.61.06-1.57-.02-3.03.67-4.56.41-.9.07-2.14.07-3.22-.16-.08-.33-.16-.49-.24-.8.67-1.55 1.42-2.4 2-2.46 1.67-4.15 4.52-7.45 4.89-.07 0-.17.07-.19.14-1.02 2.52-3.57 3.56-5.3 5.39-1.23 1.3-2.73 2.39-4.23 3.4-1.62 1.09-3.38 1.97-5.22 3.03Zm-94.45 31.61c-.68 2.32-1.26 4.69-2.08 6.99-1.27 3.56-2.78 7.03-4.06 10.59-.93 2.58-1.7 5.21-2.44 7.85-.29 1.02-.54 2.13-.16 3.34 1.35-.1 2.78.13 3.86-.37 1.29-.6 2.54-1.01 3.88-.84 1.12.15 1.73-.61 2.58-.88.88-.27 1.96.21 2.9.04.9-.16 1.72-.78 2.6-1.11.4-.15 1.01-.31 1.3-.12.82.55 1.46.21 2.23-.08 1.56-.57 3.16-1.01 4.76-1.48.44-.13.99-.33 1.35-.18 2.03.84 3.09-.3 4.06-1.68-.51-1.3-.82-2.55-1.45-3.62-2.59-4.38-5.38-8.64-8.8-12.42-2.7-2.99-5.34-6.21-10.53-6.04Zm-111.55-4.88c-.46-.08-.84-.22-1.19-.18-3.23.37-6.46.79-9.69 1.16-4.97.57-9.95 1.09-14.92 1.68-.88.11-1.73.49-2.56.73.37 1.77 1.08 2.87 2.26 3.85 1.26 1.04 2.1 2.47 2.81 4.06 1.15 2.62 1.07 5.42 1.81 8.07.27.99.64 1.98.72 2.99.25 2.85.38 5.71.54 8.56.12 2.15.29 4.29.87 6.54.54-.61.9-1 1.36-1.51.59 1.98-.72 3.76.26 6 .87-2.53 1.8-4.54 2.23-6.66.65-3.13 2.02-5.95 3.22-8.85.99-2.4 1.92-4.83 2.96-7.21 1.05-2.4 2.08-4.82 3.32-7.13 1.07-2.01 2.55-3.79 3.19-6.04.19-.66.69-1.25 1.08-1.84.84-1.25 1.64-2.52 1.73-4.23Zm14.39-.88c-1.2 2.61-2.23 4.9-3.32 7.17-1.37 2.84-2.66 5.74-4.26 8.45-1.65 2.8-3.67 5.38-5.46 8.1-.73 1.11-1.03 2.65-1.99 3.43-1.85 1.5-2.42 3.71-3.68 5.51-.28.4-.26 1-.43 1.74 9.32.12 18.41 1.19 27.48.18.2-2.34-.76-4.05-1.5-5.89-.94-2.33-1.47-4.83-2.18-7.26-.53-1.82-1.01-3.65-1.6-5.44-.59-1.8-1.25-3.58-1.94-5.35-.93-2.4-1.11-4.77-.1-7.2.46-1.1.27-2.18-1.03-3.46ZM75.93 204.49c-6.39-3.83-11.86-8.64-19.26-10.52-.97 2.9-1.52 5.9-1.82 8.95-.49 4.91-.34 9.87-1.48 14.73-.58 2.47-.84 5.02-1.14 7.55-.14 1.2.03 2.38 1.38 3.12.5-.38 1.03-.72 1.49-1.15 2.4-2.2 4.82-4.39 7.16-6.66 1.48-1.44 2.83-3.02 4.22-4.55 1.16-1.29 2.21-2.68 3.44-3.9 2.21-2.19 4.16-4.55 6.02-7.57Zm291.46 1.85c-1.98.59-3.82 1.09-5.61 1.69-4.97 1.68-9.93 3.4-14.89 5.11-.3.1-.61.2-.9.32-1.49.65-1.77 1.03-1.09 2.57.59 1.35 1.52 2.57 2.36 3.81.4.58 1.07 1 1.39 1.61.62 1.2 1.41 1.79 2.84 1.67.62-.05 1.5.32 1.91.79 1.17 1.36 2.84 2.3 3.43 4.18.23.73.78 1.37 1.24 2.01 1.25 1.74 1.76 1.87 3.52.8 1.49-.9 2.82-2.2 4.42-2.77 2.48-.89 2.87-2.68 2.88-4.87 0-3.1.17-6.21.02-9.3-.12-2.58-.09-5.25-1.5-7.61Zm-228.02 20.82c-.71 1.15-1.27 1.76-1.51 2.48-.88 2.63-1.85 5.25-2.43 7.95-.63 2.96-1.8 5.68-2.96 8.43-.81 1.94-1.35 4-2.01 6.02.52.27.78.47 1.07.54 3.32.79 6.64 1.62 9.99 2.31 2.25.47 4.53.78 6.81 1.1 1.31.18 2.26-.38 2.12-1.29-.38-2.34-.55-4.79-1.41-6.95-2.45-6.11-5.19-12.1-7.86-18.12-.33-.75-.98-1.36-1.81-2.46Zm-24.59-1.45q2.59.22 3.32 2.64c.67 2.22.68 4.49.7 6.8.03 3 .49 5.99.8 8.98.04.37.24.82.52 1.04 1.07.85 1.1 2.03 1.26 3.23.43 3.2.92 6.4 1.4 9.6.02.12.19.22.36.41.15-.31.33-.58.4-.87.95-3.77 1.92-7.54 2.79-11.33.2-.88.26-1.91.02-2.77-.7-2.52-.2-4.62 1.46-6.64 2.29-2.79 3.71-6.06 4.7-9.52.12-.42.02-.91.02-1.53-2.1-.52-4.06-1.23-6.08-1.44-3.23-.34-6.39-.9-9.49-1.81-1.88-.55-2.51-.12-2.4 1.84.03.47.14.93.21 1.36Zm224.44-6.54c-1.62.48-2.62 1.36-3 2.91-.43 1.77-.6 3.66-1.36 5.27-1.13 2.4-1.47 4.85-1.42 7.41.07 3.46.2 6.92.31 10.49 1.86.92 3.13-.78 4.46-1.4 4.89-2.32 10.06-4.37 13.49-9.19-2.37-2.44-4.86-4.66-6.92-7.22s-3.7-5.47-5.55-8.26Zm99.43-31.36c.17-.07.34-.15.5-.22-.49-3.68-1-7.36-1.45-11.05-.4-3.31-.9-6.62-1.01-9.95-.12-3.79.15-7.6.23-11.4.01-.54 0-1.53-.16-1.56-1.37-.26-1-1.7-1.68-2.44-1.63.76-1.38 2.43-1.98 3.64-.41.83-.74 1.79-1.38 2.39-2.64 2.49-5.39 4.87-8.08 7.31-.39.36-.72.79-1.18 1.31 5.44 7.38 10.81 14.67 16.18 21.95ZM35.53 177.1c-1.52.04-2.18.96-2.71 1.95-2.93 5.47-5.85 10.95-8.74 16.44-.51.96-.62 2.05.18 2.9.75.8 1.75.65 2.67.22 1.58-.74 3.15-1.53 4.72-2.3 5.41-2.63 10.81-5.26 16.23-7.89-.05-1.23-.7-1.97-1.85-2.46-1.01-.43-2.06-.93-2.86-1.66-2.64-2.38-5.17-4.87-7.63-7.21Zm30.91 49.05c3 2.22 5.51 4.26 8.2 6.03 2.68 1.76 5.53 3.26 8.75 5.13 0-1.19.21-1.94-.04-2.49-.63-1.39-.5-2.77-.4-4.2.06-.93-.05-1.88-.09-2.82-.12-2.92-.26-5.83-.35-8.75-.06-1.98-.11-3.96-.02-5.94.06-1.45-.62-2.34-1.96-3.25-4.6 5.34-9.53 10.34-14.1 16.27Zm25.85-10.36c-.14.56-.28.8-.24 1.01.81 4.49.18 9.05.78 13.61.55 4.15-.3 8.49-.61 12.75-.08 1.1-.47 2.18-.69 3.27-.1.48-.11.98-.16 1.48.16.04.33.09.49.13.28-.86.57-1.71.85-2.57.29-.9.5-1.83.88-2.69.57-1.3 1.27-2.54 1.89-3.81.48-.99.85-2.05 1.41-2.99 1.26-2.1 2.61-4.14 3.92-6.2.6-.94 1.26-1.84 1.78-2.82.56-1.04 1.15-2.11 1.43-3.24.34-1.38-.26-2.27-1.57-2.83-.42-.18-.87-.29-1.36-.45-.29-.89.15-2.09-1.14-2.44-2.51-.69-5.01-1.42-7.67-2.19Zm290.58-3.91c-.44-1.08-.69-1.94-1.12-2.7-.5-.86-1.17-1.62-1.75-2.43-.79-1.09-1.58-2.19-2.35-3.29-.44-.62-.89-1.11-1.77-.81-.82.28-1.48.75-1.52 1.64-.07 1.57-.41 3.3.09 4.7.93 2.62 1.11 5.21.99 7.93-.07 1.53.21 3.08.34 4.83 3.92-1.44 6.69-4.09 9.71-6.33.37-.27.43-.94.84-1.88-1.93.51-1.53-2.58-3.44-1.65Zm-268.66 35.97c-.21-.79-.21-1.04-.33-1.23-1.44-2.21-3.36-4.2-3.18-7.13 0-.07-.09-.13-.11-.21-.48-1.42-.92-2.85-1.44-4.25-.18-.47-.62-1.25-.85-1.22-.54.08-1.12.46-1.5.89-.66.74-1.17 1.62-1.76 2.42-.33.45-.77.83-1.02 1.31-.85 1.68-1.63 3.4-2.52 5.27 4.01 1.75 8.16 2.91 12.72 4.14Zm-64.99-38.33c.13-.83.3-1.58.35-2.33.21-3 .41-6 .55-9.01.07-1.52.34-2.81 2.13-3.12.03 0 .02-.27.04-.67-4.15 1.17-7.71 3.11-10.76 5.94 1.15 2.88 5.45 8.04 7.69 9.18Zm344.75 18.85-.35-.43c-.83.39-1.73.7-2.49 1.2-2.51 1.66-4.98 3.39-7.45 5.1-2.09 1.44-4.19 2.87-6.24 4.37-.66.48-1.35 1.08-1.08 2.21 2.23-.21 3.91-1.38 5.29-2.74 1.02-1 2.05-1.67 3.37-2.09a5.3 5.3 0 0 0 1.66-.9c1.68-1.39 3.33-2.8 4.95-4.27.84-.76 1.57-1.63 2.35-2.45Zm23.93-35.54c.63-.25 1.2-.33 1.55-.64 1.68-1.52 3.34-3.07 4.94-4.68.42-.42.91-1.14.82-1.61-.15-.76-.61-1.63-1.21-2.08-.62-.46-1.4-.27-1.97.61-.98 1.52-2.18 2.89-3.24 4.35-.82 1.13-1.05 2.42-.88 4.05Zm-225.29 74.29c4.26 1.02 8.47 1.94 13.16.65-.73-.95-1.24-2.18-1.74-2.17-1.46.03-2.89-1.37-4.33-.19-1.59 1.31-3.48 1.36-5.39 1.41-.57.02-1.14.19-1.71.3ZM47.55 182.31c-2.27-3.17-5.3-5.24-8.52-7.08 1.89 2.85 4.58 4.83 7.23 6.84.31.24.85.17 1.29.24m-15.88 21.6c.45 1.94 2.81 4.2 5.61 5.59-1.5-2.23-2.87-4.58-5.61-5.59m387.46-30.74c-1.02.05-1.13.62-.98 1.34.41 2.02 2.08 2.68 3.84 3.29-.96-1.56-1.93-3.11-2.86-4.62Zm-57.24 62.03c1.65-.01 2.61-.97 3.43-1.78.89-.88 2.76-.33 3.18-2.55-2.31 1.17-4.27 2.13-6.18 3.16-.23.12-.25.63-.43 1.17m56.88-56.31c-1.32 1.91-.13 3.19-.36 4.68 1.07-.84 2.18-1.45 1.79-2.78-.18-.62-.82-1.12-1.43-1.9m-170.84 38.67q-.17-1.99-2.22-2.12c.14 1.37 1.46 1.45 2.22 2.12m197.56-31.08c0 .79-.68 1.74.61 2.5-.25-1.01-.43-1.75-.61-2.5m-90.69 52.49c-.07-.14-.13-.28-.2-.42-.42.22-.83.43-1.25.65.05.1.11.21.16.31zM94.18 210.39c-.07.14-.14.27-.21.41.27.14.53.29.8.41.25.11.51.18.77.27.05-.11.09-.23.14-.34-.5-.25-1-.49-1.5-.74Zm197.38 16.3-.4.51c.33.23.66.46 1 .69.08-.13.25-.34.22-.38-.25-.29-.54-.55-.81-.82Z" fill="#ffffff" data-color="1"/>
        <path d="M452.64 24.11c-.38 3.69-.9 7.37-1.09 11.07-.14 2.84-.94 5.63-.37 8.56.27 1.41-.09 3.05-.54 4.47-1.39 4.36-3.06 8.59-5.38 12.6-2.42 4.18-4.41 8.61-6.49 12.99-1.22 2.56-1.99 5.35-3.39 7.8-2.62 4.61-4.96 9.4-8.3 13.59-2.27 2.85-4.18 5.99-6.42 8.87-1.51 1.93-3.31 3.64-5 5.43-1.26 1.33-2.47 2.73-3.85 3.92-2.94 2.55-5.98 4.98-8.98 7.47-1.82 1.51-3.56 3.15-5.48 4.53-3.21 2.32-6.7 4.27-9.76 6.77-2.27 1.85-5.14 2.56-7.3 4.39-2.91 2.48-6.34 3.53-9.92 4.46-4.48 1.16-8.92 2.5-13.37 3.76-2.38.67-4.75 1.38-7.15 1.96-.52.13-1.28-.09-1.73-.42-1.19-.9-2.43-.88-3.85-.78-3.57.24-7.18.55-10.74.3-3.46-.24-6.87-1.15-10.3-1.76-1.87-.33-3.77-.58-5.62-1-3.96-.91-7.9-1.9-11.85-2.89-1.47-.37-2.8-.52-4.4-.08-1.91.53-4.08.43-6.06-.38-.28-.12-.63-.3-.75-.54-.79-1.62-2.19-1.86-3.8-1.92-1.6-.06-2.95-.56-3.16-2.53-.05-.5-.6-.94-.82-1.45-.71-1.62-1.05-3.22-.62-5.07.88-3.8 1.4-7.68 2.22-11.5.2-.94.98-1.75 1.41-2.66.7-1.5 1.3-3.04 2.01-4.54 2.16-4.6 4.33-9.2 6.53-13.78.76-1.57 1.69-3.06 2.44-4.63 2.22-4.67 4.46-9.32 7.12-13.77 1.62-2.73 2.97-5.62 4.45-8.43.15-.28.26-.62.49-.81 1.15-.94 1.7-2.23 2.43-3.47 1.57-2.65 3.37-5.19 5.28-7.62 2.39-3.05 4.98-5.94 7.48-8.91.1-.12.23-.22.34-.34 2.73-2.86 5.37-5.83 8.22-8.57 3.32-3.17 6.85-6.13 10.25-9.21 1.94-1.75 3.82-3.58 5.73-5.37.35-.32.66-.74 1.08-.92 2.93-1.3 5.04-3.8 7.79-5.35 3.99-2.24 7.75-4.92 12.41-5.86 2.62-.53 5.12-1.68 7.68-2.53.92-.31 1.31-.89.99-1.83-.44-1.31.18-2.24 1.19-2.83 2.02-1.19 3.66-3.16 6.32-3.11.44 0 .88-.35 1.33-.5 1.7-.58 3.3-1.16 5.23-1.24 1.82-.07 3.72-.37 5.58-.43 5.83-.16 11.55.28 17.18 2.17 3.58 1.2 7.44 1.54 11.17 2.27.87.17 1.58 0 1.96-.91.09-.21.27-.39.43-.57 1.94-2.16 3.33-2.08 4.97.28 1.64 2.35 4.19 2.92 6.73 1.51 1.12-.62 1.97-.5 2.66.64 1.14 1.91 2.29 3.84 2.49 6.14.2 2.35.3 4.7 1.64 6.82 1.09 1.72 1.63 3.64 1.27 5.74ZM387.6 6.15l.24.98c4.01-1.2 8.24-1.51 12.1-3.56-.82-.28-1.71-.55-2.45-.33-3.29.98-6.75 1.49-9.9 2.92Zm-16.1 131.59c-1.6-.19-2.79.06-3.66.83-1.19 1.05-2.51 1.61-4.03 1.89-.55.1-1.2.24-1.27 1.4 3.05-1.39 6.26-1.71 8.97-4.12Z" fill="#ffffff" data-color="1"/>
        <path d="M152.34 154.07c-.48-.98-1.28-.6-2.04-.4-1.84.49-3.66 1.19-5.53 1.42-3.24.4-6.51.6-9.77.72-1.63.06-3.15.02-4.45 1.27-.37.36-1.19.46-1.76.37-7.64-1.22-15.28-2.47-22.91-3.77-2.29-.39-4.45-1.08-6.45-2.4-1.36-.9-3.02-1.36-4.56-2-.29-.12-.65-.09-.91-.23-2.15-1.2-4.28-2.41-6.41-3.64-2.2-1.26-4.45-2.44-6.56-3.83-5.17-3.4-10.39-6.75-15.37-10.42-4.94-3.63-9.35-7.9-13.34-12.59-2.77-3.27-5.7-6.42-8.25-9.86-2.45-3.29-4.58-6.83-6.7-10.35-2.74-4.54-5.05-9.3-8.24-13.59-3.02-4.06-5.57-8.47-7.39-13.24-.42-1.11-.93-2.29-.92-3.44.05-4.52-1.36-8.79-2.13-13.16-.53-3.03-1.21-6.07-1.39-9.13-.1-1.64.73-3.33 1.14-5 .18-.74.52-1.48.51-2.22-.03-3.05.12-6.03 1.57-8.83.91-1.75 1.49-2.01 3.35-1.15 1.61.74 4.73-.3 5.64-1.88 1.96-3.38 3.18-3.47 5.84-.45.11.12.22.23.44.47 2.52-.28 5.01-1.02 7.51-1.77 4.71-1.41 9.03-4.03 14-4.62 3.63-.43 7.26-1.01 10.9-1.04 4.77-.04 9.38 1.05 13.68 3.23 1.38.7 2.73 1.35 2.27 3.38-.23 1.02.68 1.25 1.52 1.42 3.11.65 6.24 1.24 9.3 2.07 2.44.66 4.92 1.41 7.17 2.53 2.81 1.41 5.96 2.28 8.23 4.66 3.52.74 5.87 3.44 8.67 5.33 3.73 2.52 7.18 5.47 10.77 8.21.75.58 1.62 1.01 2.34 1.62 2.78 2.34 5.61 4.65 8.26 7.13 3.53 3.3 7.01 6.65 10.32 10.16 1.89 2 3.4 4.35 5.07 6.54.05.06.06.15.12.21 4.65 4.85 7.63 10.91 11.77 16.14 1.51 1.91 2.46 4.26 3.73 6.37 1.32 2.17 2.65 4.34 4.12 6.42 2.9 4.09 5.32 8.45 7.5 12.96.41.85.88 1.78 1.59 2.34 1.42 1.13 1.49 2.68 1.9 4.22.84 3.16 1.79 6.3 2.94 9.36.58 1.55.46 2.95.08 4.41-.3 1.14-.63 2.29-1.09 3.38-.19.44-.72.86-1.19 1.05-.8.33-1.7.42-2.53.7-.58.2-1.38.39-1.63.84-1.79 3.22-4.78 2.76-7.57 2.4-1.26-.16-2.35-.13-3.48.3-2.02.77-4 1.64-6.05 2.31-3.4 1.1-6.84 2.07-10.27 3.1-.92.28-1.84.54-2.71.93-.28.12-.4.61-.68 1.06ZM79.05 24.96c-.71-.95-.71-.97-4.23-1.68-1.63-.33-3.26-.69-4.91-.8-1.46-.1-2.94.11-4.42.19 4.43 1.3 8.86 2.01 13.56 2.29m36.97 128.78c.07-.16.13-.33.2-.49-.33-.16-.64-.41-.99-.46-1.66-.24-3.19-.66-4.64-1.64-.78-.53-2-.41-3.03-.58-.04.2-.08.4-.11.61 2.53 1.98 5.72 1.68 8.57 2.57Z" fill="#ffffff" data-color="1"/>
        <path d="M202.36 344.49c3.19 1.22 3.03 2.03 1.34 4.49-2.76 4-6.58 7.07-9.75 10.73-.1.12-.25.2-.39.28-3.22 1.75-5.36 4.62-7.64 7.35-1.37 1.64-3.05 3.03-4.35 4.72-3.19 4.1-6.24 8.32-9.35 12.48-.9 1.2-1.83 2.39-2.75 3.58-.2.25-.53.45-.61.73-.79 2.91-3.34 4.67-4.65 7.23-.76 1.49-1.55 2.96-2.46 4.36-.77 1.19-1.71 2.26-2.57 3.38-.19.25-.4.5-.57.76-.98 1.51-1.89 3.07-2.94 4.53-1.67 2.33-3.2 4.73-4.42 7.34-.33.7-.99 1.23-1.41 1.9-1.66 2.66-3.49 5.22-4.65 8.17-.23.59-.55 1.16-.91 1.67-1.63 2.32-2.09 4.81-1.78 7.65.37 3.31.4 6.66.35 10-.04 2.84-.62 5.67-.56 8.5.04 2.16-.3 4.22-.65 6.31-.07.39-.07.8-.18 1.18-.42 1.36-1.64 1.7-2.77.81-1.41-1.12-2.22-2.91-4.05-3.6-.25-.09-.29-.7-.48-1.05-.36-.67-.76-1.33-1.28-2.21-1.8 2.5-2.58 5.09-3.25 7.67-1.21 4.66-2.6 9.26-4.19 13.8-.18.52-.54.97-.8 1.42-3.06.13-4.67-1.08-4.94-4.23-.38-4.43-.62-8.87.09-13.32.57-3.58.8-7.21 1.32-10.8.23-1.57.79-3.08 1.21-4.62.79-2.83 1.79-5.61 2.32-8.49.35-1.91.22-3.97 0-5.93-.49-4.41-1.06-8.83-1.82-13.2-.49-2.8-1.37-5.53-2.14-8.27-.14-.5-.59-.92-.9-1.37-.4-.59-1.01-1.12-1.18-1.77-.67-2.54-2.69-4.23-3.89-6.43-1.22-2.23-2.57-4.39-3.86-6.59-.2-.34-.37-.7-.56-1.07-2.45 1.48-3.56 3.54-4.8 5.43-1.26 1.92-2.44 3.93-3.34 6.04-1.04 2.44-2.47 4.59-3.91 6.78-.46.7-.58 1.63-1.01 2.37-.99 1.7-2.07 3.35-3.12 5.02-.17.27-.38.52-.53.8-2.06 4.02-4.05 8.07-6.18 12.04-1.08 2.01-2.5 3.83-3.59 5.84-1.38 2.56-2.83 5.05-2.08 8.3.42 1.83.58 3.81.33 5.83s.16 4.13.4 6.19c.12 1.08-.27 1.88-.93 2.6-.88.96-1.95.86-2.5-.33-.39-.84-.5-1.81-.73-2.73-.24-.97-.47-1.94-.72-2.97-1.52.26-1.71 1.35-2.1 2.27-.73 1.73-1.47 3.46-2.21 5.19-.06.14-.16.29-.28.38-2.13 1.73-4.36 3.35-5.79 5.81-.2.35-1.48.51-1.88.22-.63-.45-1.17-1.31-1.3-2.08-.17-.99.1-2.06.21-3.09.13-1.23.51-2.4.18-3.71-.16-.65.28-1.51.58-2.22.7-1.67 1.09-3.29.15-5.03-.31-.59-.49-1.38-.39-2.03.7-4.64-.12-9.21-.45-13.8-.28-3.85-.43-7.72-.76-11.56-.4-4.73-.94-9.44-2.46-13.99-1.2-3.59-2.16-7.25-3.31-10.85-.36-1.12-1.04-2.13-1.44-3.24-.73-2.01-1.44-4.04-2.03-6.09s-2.07-3.79-2.07-6.04c-1.87-1.88-1.68-4.76-3.29-6.77-.28-.35-.48-.83-.57-1.28-.51-2.46-2.12-4.36-3.27-6.5-.86-1.6-1.78-3.17-2.51-4.83-1.13-2.58-3.04-4.6-4.6-6.86-1.51-2.19-2.56-4.7-4.13-6.85-1.32-1.82-3.06-3.35-4.67-4.95-2.25-2.23-4.64-4.34-6.28-7.12-.16-.27-.36-.56-.62-.72-3.42-2.2-5.8-5.53-8.84-8.15-1.85-1.59-1.38-3.26.98-4.02.43-.14.83-.33 1.54-.62-1.75-1.21-2.28-3.03-3.93-4.18-2.51-1.76-4.68-4.04-5.69-7.14-.76-2.37.55-4.38 3-4.04 1.77.24 3.53.94 5.15 1.72 1.85.89 3.56 2.09 5.31 3.19.47.29.94.66 1.25 1.1 1.9 2.74 4.66 4.46 7.34 6.26 1.29.87 2.83 1.41 3.99 2.41 1.24 1.07 2.29 2.42 3.22 3.78 1.36 1.99 2.48 4.14 3.83 6.15.74 1.11 1.73 2.06 2.61 3.08.57.67 1.22 1.28 1.68 2.02 2.58 4.08 5.09 8.2 7.67 12.28 1.77 2.8 3.68 5.51 5.41 8.34.86 1.41 1.47 2.97 2.2 4.46 1.17 2.34 1.9 4.92 3.66 6.95.78 3.78 3.06 6.97 4.22 10.61.74 2.32 1.96 4.48 2.76 6.78 1.07 3.06 1.92 6.19 2.91 9.27.31.97.92 1.85 1.16 2.83.46 1.96.25 3.99 1.34 5.91.63 1.11.25 2.77.41 4.17.21 1.97.47 3.94.76 5.9.29 1.93.64 3.86.99 6 .82-.08 1.28-.79 1.71-1.67.96-1.99 1.97-3.96 3-5.93.36-.69.85-1.31 1.19-2 1.14-2.36 1.88-5.02 3.44-7.04 1.54-1.99 1.91-4.79 4.29-6.16.43-1.92 1.97-3.18 2.87-4.82.54-.97 1.19-1.87 1.79-2.8 1.53-2.38 3.06-4.77 4.6-7.15.64-1 1.21-2.05 1.95-2.96 1.65-2.04 1.92-3.21.44-5.16-.74-.97-.37-2.02-.78-2.92-1.26-2.74-2.45-5.54-4.03-8.09-1.54-2.48-3.56-4.66-5.31-7.02-.4-.55-.6-1.27-.78-1.95-.2-.76-.27-1.55-.49-2.88-.58.81-.88 1.22-1.26 1.75-.12-.08-.4-.2-.6-.4-.93-.97-1.16-2.43-.55-3.2.73-.92 1.95-1.05 3.22-.35 1.31.73 2.63 1.45 3.94 2.16.92.5 1.79.25 2.76-.04-.71-1.06-1.45-1.91-1.88-2.89-.24-.54-.2-1.57.16-1.91.4-.38 1.36-.43 1.98-.26.74.19 1.43.7 2.05 1.19 1.75 1.37 3.51 2.73 5.15 4.22 2.84 2.59 5.43 5.36 6.69 9.15.33.98 1.15 1.8 1.91 2.93 1.54-1.4 3.2-2.56 4.38-4.08 2.03-2.59 4.44-4.62 7.24-6.29.69-.41 1.06-1.32 1.69-1.88 3.09-2.76 5.72-5.93 8.18-9.25.66-.9 1.35-1.79 2.11-2.6.41-.44 1-.7 1.46-1.02 1.76 1.59 1.91 2.29.86 3.96-.8 1.27-1.68 2.48-2.63 3.89 1.17.63 3 .44 3.1 2.59-.94 1.41-2.04 2.97-3.62 4.24-1.15.92-1.92 2.3-2.87 3.46-.71.86-1.45 1.68-2.16 2.53-.69.84-1.34 1.73-2.04 2.57-.8.96-1.65 1.89-2.47 2.84-1.4 1.62-2.8 3.25-4.19 4.88-.31.36-.74.72-.83 1.14-.25 1.18-1.09 1.86-1.83 2.69-1.27 1.42-1.65 2.42-.52 3.83.24.3.31.72.46 1.09.93 2.34 1.73 4.74 2.82 7.01 1.05 2.2 2.49 4.22 3.59 6.4 2.25 4.43 4.57 8.82 5.98 13.63.46 1.58 1.37 3.04 2.18 4.77 1.56-1.47 2.38-3.14 3.2-4.82 1.42-2.92 2.89-5.81 4.31-8.73.44-.91.8-1.87 1.18-2.81.12-.29.16-.62.31-.88 2.09-3.47 4.15-6.96 6.32-10.37 1.47-2.32 3.05-4.57 4.7-6.77 2.86-3.81 5.81-7.56 8.71-11.34 1.65-2.14 3.23-4.35 4.94-6.44 2.67-3.26 5.42-6.44 8.15-9.65.93-1.09 1.89-2.14 2.84-3.21 1.84-2.07 3.73-4.11 5.51-6.24.81-.97 1.35-2.15 2.07-3.2.85-1.24 1.75-2.44 2.64-3.65.8-1.09 1.53-2.24 2.45-3.23.41-.45 1.21-.84 1.78-.78.95.09 1.17 1.01 1.08 1.84-.1 1-.35 1.98-.61 3.34 1.14-.78 2.18-1.38 3.11-2.14 1.64-1.35 3.41-2.3 5.6-2.38.78-.03 1.62-.17 2.3-.53 1.54-.81 3.09-.52 4.65-.28.86.13 1.37.76.91 1.54-.64 1.06-1.33 2.27-2.32 2.9-1.85 1.19-3.39 2.46-4.29 4.56-.65 1.51-1.74 2.82-2.75 4.4Zm-70.78 75.57c1.52-.71 2.07-1.53 1.78-2.67-.32-1.29-.77-2.54-1.25-3.78-.74-1.92-1.8-3.75-2.26-5.73-.66-2.83-2.46-5.11-3.37-7.79-.03-.08-.28-.09-.58-.18-.19 1.44 0 2.82.44 4.15 1.09 3.31 2.26 6.59 3.36 9.9.64 1.93 1.19 3.89 1.87 6.11ZM59.7 375.35c.56-1.02-.07-1.84-.45-2.63-1.5-3.12-3.26-6.12-4.63-9.29-1.17-2.7-2.64-5.17-4.36-7.53-.55-.75-.94-1.64-1.26-2.52-.49-1.35-1.6-2.1-2.62-2.98 3.2 8.96 8.92 16.55 13.32 24.95m79.23 66.59c-1.51 3.94-3 7.48-.72 11.32.65.11 1.09-.1 1.1-.99.01-1.02 0-2.06.21-3.05.49-2.37 0-4.62-.59-7.29ZM14.44 318.75c.84-.75 1.46-1.3 2.23-1.99-2.08-1.7-3.99-3.07-6.85-3.05 1.12 2.25 2.72 3.65 4.62 5.04m110.5 141.03c-.94.99-1.81 3.88-1.85 6.26-.01.62-.05 1.43.89 1.82 1.02-2.65 2.84-5.05.96-8.08m-53.16-35.44c-.26.64-.68 1.16-.59 1.58.35 1.72.86 3.4 1.37 5.3 1.28-1.54 1.05-3.18-.78-6.88m105.07-54.26c1.84-.18 2.28-1.78 3.57-2.84-2.1.07-3.03 1.08-3.57 2.84m10.18-10.17c-.12-.1-.25-.2-.37-.31-1.19.83-2.23 1.78-2.42 3.42.57-.39.88-.96 1.28-1.46.46-.58 1-1.11 1.5-1.66Zm-30.15 35.04c-.17.94-1.84 1.12-1.3 2.59 1.41-.48 1.14-1.65 1.3-2.59m-137.5-74.63c.71.88 1 1.75 2.26 1.37-.4-.89-.67-1.7-2.26-1.37m162.02 44.99c.17.12.34.25.51.37.57-.37 1.15-.75 1-2.16-.71.84-1.11 1.31-1.51 1.79m-7.57 8.15.47.3c.22-.38.44-.76.67-1.13-.1-.06-.19-.13-.29-.19-.28.34-.57.68-.85 1.03Zm-68.74 11c-.15 0-.3-.02-.44-.03 0 .38 0 .76.02 1.14 0 .01.28 0 .42 0v-1.12Zm-34.05 36.95c.27-.66.39-.85.43-1.07.02-.12-.09-.27-.14-.41-.18.07-.45.1-.51.22-.07.15.05.38.23 1.25Zm31.61-32.19c-.14-.2-.22-.32-.3-.44-.17.12-.35.22-.48.37-.03.03.17.35.22.34.2-.05.37-.17.57-.27Z" fill="#ffffff" data-color="1"/>
        <path d="M265.14 434.69c-.09-.92-.14-1.21-.14-1.5 0-1.61.76-2.33 2.33-2.22.94.07 1.87.16 2.76.24.96-1.39 1.21-2.61.97-4.18-.25-1.6.17-3.32.37-4.98.58-4.91.92-9.86 1.01-14.79.07-4.02.14-8.05.43-12.05.38-5.29 1.07-10.55 1.56-15.83.12-1.34.01-2.7 0-4.05 0-.64-.12-1.28-.05-1.91.44-3.93-.07-7.77-.7-11.64-.65-3.99-.86-8.04-1.38-12.05-.36-2.74-.9-5.45-1.39-8.17-.69-3.82-1.29-7.66-2.13-11.44-.51-2.3-1.39-4.53-2.25-7.21.86.44 1.36.7 2.13 1.09.18-.67.23-1.28.5-1.78.31-.57.72-1.32 1.25-1.49.87-.28 1.46.4 1.75 1.23.21.6.42 1.21.57 1.83.88 3.53 1.7 7.08 2.61 10.6.79 3.04 1.78 6.03 2.48 9.09.41 1.78.36 3.65.61 5.47.17 1.25.45 2.48.77 3.7.76 2.89 1.54 5.78 2.37 8.65.44 1.5 1 2.96 1.51 4.44.08.23.27.5.21.68-1.13 2.97 1.22 5.93 0 8.89.75 3.08-.36 6.14-.16 9.22.05.82-.25 1.65-.38 2.48-.05.31-.19.67-.09.93.99 2.44.09 4.92-.14 7.28-.4 4.13-.26 8.25-.44 12.37-.11 2.45-.35 4.9-.45 7.36-.04 1.07.12 2.16.18 3.24.17.07.34.13.51.2.45-.47.94-.92 1.34-1.43 1.57-1.99 3.12-4.01 4.67-6.01.29-.38.66-.71.89-1.12 1.22-2.11 2.31-4.31 3.65-6.35 1.28-1.95 2.84-3.73 4.22-5.62.7-.96 1.23-2.04 1.93-2.98.8-1.08 1.77-2.03 2.56-3.12.69-.95 1.21-2.02 1.82-3.04 1.47-2.45 3.1-4.82 4.37-7.36 1.38-2.76 2.4-5.69 3.61-8.53 1-2.34 2.04-4.67 3.07-7 .38-.87.94-1.62 2-1.14.94.43 1.43 1.24 1.16 2.36-.24 1-.45 2-.69 3.09.73.38 1.35.7 2.21 1.15 0 1.02.25 2.25-.08 3.3-.27.87-.63 1.61-.22 2.47.52 1.11.02 2-.53 2.9-2.41 3.92-4.79 7.87-7.23 11.77-1.81 2.89-3.77 5.69-5.52 8.61-1.87 3.13-3.6 6.34-5.34 9.55-.17.32.03.83.09 1.85 1.02-1.39 1.77-2.27 2.37-3.25 2.5-4.07 4.95-8.17 7.42-12.26.16-.27.28-.59.48-.82.89-.99 2.15-.79 2.61.47.66 1.8.15 3.6-.84 4.98-3.35 4.66-5.73 9.92-9.24 14.48-2.01 2.61-3.97 5.26-6.08 7.78-1.09 1.3-2.67 2.18-4.05 3.23-.25.19-.67.22-.83.45-2.39 3.56-6.43 5.33-9.17 8.49-.14.16-.2.4-.47.95 2.9.25 5.63.67 8.36.68 3.52.02 7.03-.04 10.45.98 1.96.59 3.94.95 5.84 1.92 2.18 1.11 3.97 2.63 5.82 4.11 1.72 1.39 3.3 2.96 5.06 4.3 1.88 1.43 3.19 3.27 4.27 5.28.81 1.5.08 2.76-1.11 3.88.23.43.41.87.68 1.23.55.75 1.51 1.39 1.65 2.19.35 2 1.78 3.28 3.02 4.51.6.6.66.94.66 1.58 0 1.35-.56 2.76 1 3.87.47.34.35 1.84.15 2.73-.3 1.29-2.17 1.63-3.11.54-.76-.87-1.27-1.97-1.87-2.99-.23-.39-.29-1.05-.61-1.2-2.44-1.11-3.56-3.55-5.37-5.28-.93-.89-1.75-1.67-3.03-2.15-1.44-.54-2.63-1.72-4.02-2.47-1.39-.76-2.82-1.52-4.33-1.95-2.5-.71-4.62-2.01-6.65-3.56-.63-.47-1.28-1.03-2-1.23-1.59-.45-2.74-1.58-4.1-2.31-2.52-1.36-4.89-3.21-7.91-3.5-2.54-.25-5.03-.69-7.37-2.5-.41 1.94-.76 3.6-1.1 5.27-.82 4.05-1.52 8.12-2.79 12.08-.63 1.95-.8 4.04-1.3 6.04-.18.73-.64 1.41-1.07 2.06-.7 1.05-1.74 1.95-2.17 3.09-.63 1.69-1.78 2.05-3.32 2.09-.96-1.08-.99-2.16-.13-3.25 1.74-2.21 1.76-4.81 1.8-7.44.02-1.32.16-2.73.66-3.93.37-.88.53-1.73.77-2.61.39-1.47.27-2.59-.67-3.76-.3-.37-.34-1.06-.27-1.58.18-1.42.49-2.82.73-4.23.21-1.23.41-2.45.67-3.99-3.33 1.34-6.2 2.64-9.17 3.62-1.6.52-3.38.56-5.04-.22-1.66-.77-1.87-.64-2.82.94-1.66 2.77-3.03 5.75-5.69 7.8-.24.18-.47.48-.55.77-.49 1.78-1.93 2.33-3.44 3.02-2.01.92-3.89 2.13-5.81 3.25-.22.13-.31.5-.57.97.51 0 .9.12 1.07-.02 1.44-1.23 3.16-1.78 4.93-2.33.97-.3 1.84-.93 2.74-1.43 1.3-.72 2.55-1.57 3.92-2.16.86-.38 1.3-.79 1.72-1.7.85-1.84 2.07-3.52 3.24-5.19.24-.34.98-.5 1.45-.45.25.03.6.71.59 1.1-.01 1.34.52 2.42 1.16 3.56 1.45 2.61 1.39 5.11-1.2 7.23-1.54 1.26-3.04 2.59-4.54 3.89-.17.15-.29.37-.54.71.31.39.58.87.97 1.19 1.54 1.25 1.99 2.2 1.51 3.38-.31.78-2.3 1.65-3.51 1.55-1.03-.09-5.84.54-6.71.87-.37.14-.79.46-1.11.38-2.79-.71-5.15 1.28-7.91 1.13-1.68-.09-3.39.89-5.11 1.24-.98.2-2.02.18-3.02.1-3.5-.28-7.02-.53-9.47-3.6-.34-.42-.82-.76-1.28-1.05-2.55-1.64-4.76-3.65-6.79-5.9-.31-.35-.68-.66-1.07-.93-2.98-2.07-5.23-4.76-6.9-7.96-.18-.34-.5-.62-.75-.92-2.73-3.32-4.09-7.23-4.85-11.38-.07-.38.11-.79.08-1.19-.1-1.57-.26-3.13-.34-4.69-.05-1.1.02-2.21 0-3.31-.04-2.38-.07-4.76-.16-7.14-.12-3.27.9-6.26 2.27-9.15.85-1.79 1.87-3.5 2.85-5.22 2.52-4.41 6.19-7.54 10.57-10.06 1.73-.99 3.16-2.67 4.42-4.28 1.67-2.15 3.66-3.56 6.19-4.63 4.46-1.89 9.07-2.28 13.77-2.1 1.72.06 3.52.4 4.54 2.18.19.33.57.55.88.8 1.86 1.52 1.91 2.4.32 4.08.52 1.64 1.2 3.16 1.47 4.76.35 2.09-.77 2.68-2.89 2.32-1.95-.33-3.12-1.78-4.74-2.55-1.4-.67-2.64-.83-4.27-.6-2.75.38-5.33 1.13-7.58 2.57-2.85 1.82-6 3.31-8.22 6.01-1.47 1.78-3.26 3.47-4.1 5.54-.76 1.89-2.31 3.65-1.89 6 .1.55-.42 1.18-.58 1.8-.5 1.91-1.06 3.81-1.41 5.75-.48 2.66-.76 5.32-.67 8.06.18 5.4 2.16 9.85 6.26 13.38 1.01.87 1.83 1.97 2.86 2.82 2.38 1.98 4.89 3.76 7.91 4.69.21.07.41.25.56.42 1.31 1.46 2.92 1.43 4.62.96 3.93-1.11 7.71-2.73 10.92-5.17 1.67-1.27 3.78-1.75 5.2-3.48 2.24-2.71 4.29-5.48 5.46-8.83.49-1.4 1.42-2.55 2.83-2.57 1.77-.03 2.32-1.12 2.9-2.35.77-1.65 1.45-3.34 2.27-4.96.26-.51.77-1.06 1.29-1.26 1.9-.7 3.8-1.87 6.28-.08Zm49.81 14.74c-2.02-1.58-3.54-2.84-5.14-3.99-1.08-.78-2.27-1.41-3.41-2.12-.6-.38-1.13-.93-1.78-1.16-1.8-.62-3.64-1.18-5.49-1.61-.58-.14-1.27.21-2.24.4 5.44 3.8 10.82 6.7 16.59 8.87.22.08.56-.13 1.47-.39m-53.66-9.91c-2.08.52-3.52 2.85-3.76 5.89 1.88-1.69 2.87-3.54 3.76-5.89m-15.06 26.3-.36-.44c-.55.42-1.09.85-1.64 1.27l.32.41c.56-.41 1.12-.83 1.69-1.24Z" fill="#ffffff" data-color="1"/>
        <path d="M449.15 398.03c0-1.38-.03-2.39 0-3.4.08-2.45.21-4.9.28-7.35.06-1.98.17-3.96.07-5.93-.15-2.89.41-5.66.91-8.46.44-2.48.6-5.02.95-7.52.11-.76.46-1.48.66-2.23.3-1.06.6-2.12.83-3.19.48-2.15.43-4.37.74-6.53.35-2.5 1.05-4.95 1.59-7.42.07-.31.25-.64.2-.93-.29-1.9-.23-3.73.78-5.43.12-.2.24-.53.16-.68-.85-1.51.49-2.74.35-4.34 1.68.34 1.92-.61 2.12-1.88.2-1.22.75-2.4 1.22-3.57s1.2-2.27 1.5-3.47c.99-4.04 2.97-7.6 5.15-11.08.83-1.33 1.6-1.35 3.52-.22-.61 1.35-.28 2.68.56 3.78 1.08 1.43 1.29 2.84.56 4.45-.12.26-.1.58-.22 1.3.9-.53 1.53-.81 2.05-1.22.86-.67 1.67-.34 2.47.01.86.38.48 1.14.6 1.81.57 3.07-1.08 5.57-1.98 8.23-.28.84-.57 1.59-.52 2.46.02.31.06.68-.07.92-1.54 2.75-1.67 5.9-2.55 8.82-.75 2.47-.76 5.15-2.23 7.43-.53.83-.64 1.97-.78 2.99-.43 3.27-1.62 6.4-2.06 9.59-.5 3.61-2.14 7-2.13 10.57 0 3.56-.86 6.95-1.48 10.34-.58 3.2-.7 6.39-.86 9.57-.19 3.73-.71 7.52.16 11.26.52 2.22.99 4.44 1.45 6.67.35 1.7.45 3.47 1.02 5.09 1.22 3.51 2.6 6.98 4.58 10.16.45.73.9 1.51 1.15 2.32.9 2.99 3.12 5.12 4.72 7.66 1.42 2.26 3.58 3.7 5.27 5.64 1.93 2.22 2.18 2.82 1.08 5.44 1.31 1.66 2.61 3.32 3.79 4.8-.2 1.16-.75 1.33-1.47 1.18-1.83-.38-3.44-1.14-4.79-2.48-.77-.77-1.42-1.75-2.73-1.76-.33 0-.71-.33-.99-.59a303 303 0 0 1-4.14-3.89c-.9-.86-1.91-1.37-3.19-1.42-.85-.03-3.62-2.02-4-2.69q-.83-1.49-2.77-2.15c-1.92 2.38-3.59 5-5.79 7.06-4.38 4.12-8.15 8.76-12.21 13.17-2.34 2.54-5.02 4.76-7.92 6.67-.31.2-.72.25-1.09.36-.52.15-1.18.12-1.54.44-1.6 1.42-3.68 1.76-5.54 2.53-1.56.65-3.37.76-5.08 1.05-1.17.19-2.36.27-3.32.37-1.17-.45-2.16-1.07-3.21-1.19-1.68-.19-2.94-1-4.24-1.96-2.72-2.01-5.6-3.8-8.27-5.87-1.02-.79-1.64-2.11-2.44-3.18-.38-.5-.69-1.09-1.16-1.48-1.93-1.6-3.62-3.47-5.86-4.75-1.65-.94-3.56-1.81-4.3-3.87-2.32-1.09-2.76-3.41-3.8-5.43-1.88-3.63-2.76-7.2-2.23-11.39s2.35-7.64 4.16-11.29c1.99-4.01 5.08-7.21 7.3-11.03 1.37-2.37 3.51-4.29 5.33-6.39.25-.29.63-.53 1-.63 1.29-.35 1.91-1.36 2.51-2.4.2-.34.33-.92.59-.98 2.55-.59 3.82-3.05 6.06-4.06.64-.29 1.32-.49 1.99-.73.52-.19 1.27-.2 1.52-.57 1.21-1.73 3.08-1.85 4.85-2.21 3.97-.81 7.92-1.76 11.93-2.27 1.98-.25 4.07.44 6.12.54 2.81.13 5.06 1.66 7.48 2.78.21.1.43.27.53.47.99 1.96 2.97 2.48 5.09 3.57Zm1.54 25.29c.1-2.95-1.14-5.33-2.27-7.65-.7-1.43-1.91-2.74-3.19-3.72a88 88 0 0 0-8.13-5.52c-1.28-.77-2.24-2.09-3.51-2.57-2.48-.94-4.98-2.23-7.81-1.74-1.01.17-2.01.4-3 .67-4.61 1.28-8.49 4-11.88 7.12-2.38 2.19-3.87 5.36-5.71 8.12-.53.79-.81 1.74-1.35 2.52-1.92 2.77-3.36 5.74-3.9 9.08-.35 2.12-.56 4.27-.76 6.42-.21 2.25 1.13 4.1 1.69 6.15.63 2.31 2.27 3.55 4.1 4.72.79.51 1.66.94 2.36 1.55 3.68 3.21 7.74 5.36 12.72 5.99 3.46.44 6.65-.34 9.92-.96.29-.06.59-.26.8-.48 1.42-1.47 3.23-2.25 5.05-3.09 2.24-1.04 4.44-2.19 6.53-3.5 1.45-.91 3.01-1.95 3.95-3.32 2.33-3.39 2.92-7.51 4.12-11.37.13-.42-.02-.94-.07-1.41s-.22-.94-.19-1.4c.15-1.95.36-3.89.53-5.61m-61.72 20.59c.23-.09.46-.18.7-.28-.39-2.68-1.13-5.38-1.07-8.05.07-2.72.7-5.5 1.51-8.11.82-2.61 2.17-5.06 3.29-7.58-1.26.98-2.74 1.99-3.09 3.3-.57 2.13-2.59 3.61-2.45 5.97-2.4 4.67-1.29 9.22.48 13.75.14.36.42.67.63 1m73.05-79.82c.48-1.75.92-3.04 1.17-4.36.83-4.33 1.78-8.63 3.31-12.78.06-.15.17-.33.13-.45-.09-.28-.19-.65-.4-.76-.22-.12-.75-.09-.85.07-.4.65-.83 1.35-1.01 2.08-.93 4.01-1.8 8.03-2.66 12.06-.18.85-.33 1.72-.36 2.58-.01.37.31.76.68 1.56Zm9.44-35.16c-.22-.1-.44-.2-.66-.29-.56 1.01-1.27 1.96-1.64 3.03-.88 2.54-1.62 5.13-2.35 7.72-.11.39.18.89.29 1.34 1.2-1.97 1.66-4.13 2.79-5.84 1.28-1.94.43-4.13 1.57-5.95Zm-52.93 135.38c-1.87-2.38-4.91-2.49-7.33-3.81-.46-.25-1.24.07-1.87.13l-.03.55c2.76 1.84 5.99 2.47 9.23 3.13m47.91-119.11c1.02-1.34.66-2.31.47-3.49-1.22 1.07-1.14 2.04-.47 3.49m-7.16 91.5q-1.38.46-.93 2.23 1.01-.47.93-2.23m2.44-71.81-.62.05v1.31l.83-.09-.21-1.26Z" fill="#ffffff" data-color="1"/>
        <path d="M336.63 435.05q-1.85-1.16-3.59-.78c.19.35.29.73.53.95 2.12 1.86 2.11 3.44-.12 5.19-.1 5.13 1.54 9.58 5.08 13.39 1.69 1.82 3.76 2.73 6.09 2.95 2.12.2 4.3.14 6.41-.15 1.51-.2 3.06-.77 4.4-1.52 2.61-1.44 5.09-3.13 7.63-4.7.47-.29.98-.53 1.48-.77 2.72-1.3 5.4-2.69 8.18-3.85 1.34-.56 2.86-.7 3.83-.92 1.47 1.29 2.52 2.31 3.67 3.21.85.67.75 1.32.18 2.04-1.07 1.36-2.09 2.78-3.28 4.04-1.13 1.2-2.36 2.35-3.71 3.28-4.36 3.01-8.7 6.04-13.22 8.79-2.47 1.51-5.19 2.86-7.97 3.53-1.92.46-4.18 1.15-6.28-.1-.54-.32-1.4-.17-2.11-.17-3.45.02-6.72-.42-9.66-2.57-1.39-1.01-3.16-1.56-4.16-3.05-2.24-3.31-4.02-6.8-4.55-10.86-.49-3.69-1.25-7.35-1.83-11.03-.52-3.29-1.01-6.6-1.4-9.91-.24-2.09-1.01-3.56-3.2-4.2-1.33-.39-1.71-1.97-1.24-3.91.38-1.58.79-1.88 2.51-1.9.62 0 1.23-.06 2.12-.11.04-1.3.05-2.46.12-3.62.04-.62.18-1.24.31-1.85.23-1.09.43-2.18.74-3.24.3-1.06.65-2.12 1.08-3.13 1.09-2.54 2.04-5.17 3.43-7.54 2.34-3.98 5.21-7.7 9.05-10.26 4.92-3.29 9.34-7.34 14.82-9.8 1.94-.87 3.66-2.22 5.53-3.26 7.28-4.03 15.81 1.65 17.06 8.35.06.31.02.68.17.94 2.35 4.03.68 8.16.19 12.22-.19 1.58-1.13 3.08-1.8 4.59-.48 1.08-.98 2.18-1.65 3.14-1.12 1.62-2.28 3.23-3.59 4.69-2.32 2.6-4.76 5.1-7.17 7.62-.71.75-1.44 1.51-2.27 2.12-2.86 2.14-5.67 4.38-8.7 6.24-1.47.9-3.38 1.08-5.12 1.51-1.46.36-2.97.52-4.41.94-.63.18-1.19.75-1.68 1.24-.67.67-1.24 1.44-1.9 2.21Zm-3.96-11.36c2.01 1.2 3.61 1.14 5.25.1.79-.5 1.73-.77 2.57-1.21 1.61-.85 3.28-1.62 4.77-2.65 2.48-1.7 4.77-3.69 7.29-5.33 1.12-.72 2.42-1.18 3.26-2.27 1.49-1.93 3.47-3.34 5.17-5.05 1.39-1.4 2.72-2.91 3.78-4.57.84-1.31 1.25-2.91 1.82-4.39.78-2.01.35-2.76-1.78-3.13-3.95-.68-7.88-1.56-11.86-1.96-2.91-.3-6.33.07-8.21 3.99-.27.57-.66 1.07-1.01 1.6-1.89 2.88-4.22 5.46-5.79 8.54-.63 1.24-1.07 2.58-1.58 3.89-.34.88-.66 1.76-.98 2.65-.67 1.87-1.52 3.7-1.22 5.78.03.21-.13.45-.22.67-.41 1.08-.83 2.16-1.28 3.35Zm20.94 35.79c1.59.94 2.93 1.24 4.25.91 2.39-.61 4.78-1.25 6.7-2.99 1.05-.95 2.32-1.68 3.34-2.66 1.16-1.11 2.16-2.4 3.5-3.92-2.1-.11-3.32.82-4.56 1.54-1.98 1.15-3.79 2.6-5.81 3.69-2.27 1.22-4.68 2.18-7.43 3.43Zm11.35-67.61c-1.65-2.13-2.49-2.19-4-.4 1.48.15 2.74.28 4 .4m2.88-7.84c-.75-.55-1.3-1.52-2.71-1.32.8 1.09 1.68 1.38 2.71 1.32m-24.81 77.68c-.58-.55-1.09-1.26-2.22-.83.56 1.08 1.38 1 2.22.83m18.61-79.74c.69 1.11 1.48.63 2.24.6 0-.16.02-.32.03-.47-.76-.04-1.51-.09-2.27-.13" fill="#ffffff" data-color="1"/>
        <path d="M178.58 389.79c-.09 1.57-.11 3.04-.26 4.51-.26 2.6-.9 5.2-.82 7.79.07 2.49-.7 5.03.34 7.52.38.9.26 2.04.2 3.07-.15 2.76-.41 5.52-.6 8.29-.17 2.53-.36 5.06-.4 7.59-.03 1.81.23 3.62.25 5.43.02 1.34-.18 2.69-.19 4.04-.01 2.29.09 4.58.07 6.87-.02 2.97-.15 5.94-.14 8.91 0 1.91.23 3.81.26 5.72.02 1-.16 2-.25 2.9-2.41.66-2.46.65-4.22-.49-.65.24-1.29.64-1.96.69-1.95.15-2.99-.81-2.75-2.87.3-2.59-.15-5.12-.13-7.67.02-2.58.12-5.2.59-7.73.69-3.71.88-7.41.38-11.13-.28-2.09.14-4.1.26-6.15.21-3.39.31-6.8.63-10.18.3-3.21.85-6.4 1.24-9.61.3-2.5.57-5.02.76-7.53.1-1.29.38-2.37 1.66-2.93 1.06-.46 1.25-1.33 1.24-2.35 0-.87.02-1.76.14-2.62.36-2.59.53-2.69 3.68-2.05Z" fill="#ffffff" data-color="1"/>
        <path d="M456.92 327.95q1.43 1.06.92 2.99c-.34-1.12-.61-1.97-.92-2.99" fill="#ffffff" data-color="1"/>
        <path d="M326.76 463.37c.64.18 1.08.3 1.61.46q-.85.82-1.61-.46" fill="#ffffff" data-color="1"/>
    </g>
</svg>
