<?xml version="1.0" encoding="UTF-8"?>
<svg id="Layer_1" data-name="Layer 1" xmlns="http://www.w3.org/2000/svg" viewBox="0 0 512 512">
  <defs>
    <style>
      .cls-1 {
        fill: #22f17e;
      }
    </style>
  </defs>
  <rect x="0" y="0" width="512" height="512" rx="65.56" ry="65.56"/>
  <g>
    <path class="cls-1" d="M239.78,186.18c1.03.9-20.52,13.45-22.65,15.12-57.44,44.76-52.36,128.92,4.04,172.11,45.36,34.73,114.79,28.13,160.23-3.55-73.36,78.76-223.17,28.63-223.33-83.28-.05-37.84,22.32-75.2,56.51-91.51,2.91-1.39,24.17-9.79,25.2-8.88Z"/>
    <path class="cls-1" d="M263.74,222.43c-15.15,13.37-31.78,29.58-36.08,50.22-.31,1.47-1.57,11.44-1.41,12.11.31,1.3,5.83-5.45,7.09-6.43,1.54-1.21,16.71-11.2,17.49-10.45s-10.87,13.75-12.6,17.19c-7.68,15.26-8.27,30.93-2.78,47.02.58,1.68,5.29,9.25,3.41,8.88-6.39-1.26-20.18-23.92-22.44-30.39-14.3-40.94,8.81-75.27,47.31-88.15Z"/>
    <path class="cls-1" d="M336,190.11c16.21,4.14,15.6,8.93,26.13,20.25,3.95,4.24,8.71,7.91,12.81,12.06-11.26-4.73-25.7-6.21-36.46-11.14-8.4-3.85-16.06-12.14-24.03-17.13-5.46-3.42-11.93-5.49-16.91-9.19,12.85.94,25.94,1.95,38.47,5.15Z"/>
    <path class="cls-1" d="M270.74,138.02c1.34,2.43,4.96,8.68,6.71,10.49.48.49,3.41,1.26,3.48,1.44,1.31,3.28-12.12-3.04-13.47-4.05-8.83-6.58-9.69-23.55-8.02-33.43,4.3,8.24,6.8,17.38,11.29,25.55Z"/>
    <path class="cls-1" d="M449.12,248.97c-14.19-12.58-30.76-22.84-44.5-35.97-21.14-20.19-19.78-40.45-40.77-59.05-18.93-16.78-28.2-9.8-34.18-39.53-1.09-5.39-3.35-36.94-4.85-38.14-1.13-.9-4.09-1.25-5.62-.88-.93.22-14.15,9.35-15.82,10.65-2.17,1.7-10.33,11.35-11.05,11.05-3.54-1.48-7.22-30.48-11.14-34.87-1-1.12-1.48-1.29-3.01-1.39-10.42-.63-46.01,26.21-50.73,37.46-124.6,14.29-189.21,158.8-115.33,261.9,51.24,71.49,171.49,107.74,244.98,49.25-53.14,24.58-120.01,24.04-168.79-9.98-81.26-56.68-81.14-188.1,10.77-234.03l15.51-6.91c-55.9,4.87-99.25,57.67-103.8,112.12-4.25,50.91,14.7,91.7,49.74,126.83,1.37.79,3.16,1.17,4.29,2.77-2.4-.06-3.06-1.54-4.29-2.77-38.07-21.88-64.4-78.55-66.99-121.29-3.94-64.99,31.87-131.73,93.91-155.68,3.79-1.46,32.68-9.93,33.9-8.66.72.75-2.16,16.13-1.87,20.6.77,11.64,5.64,20.82,16.59,25.79,8.71,3.96,1.88-1.07-.69-6.68-10.45-22.79-3.86-40.95,11.76-58.47,2.55-2.86,22.89-21.59,24.92-21.77,1.79-.16,8.14,30.7,9.65,34.54,19.19,48.85,88.24,36.41,95.22,93.37,2.18,9.95,58.33,46.75,57.59,50.52-.23,1.18-21.66-.26-23.95-1.54,2.03,3.19,5.38,5.74,7.1,9.17,1.02,2.04,1.78,8.34,2.11,8.64.76.68,15.23-8.5,14.73-5.85-1.47,7.86-14.07,22.22-20.32,26.99-26.91,20.55-45.15-.11-70.23-8.94-31.64-11.14-72.56-5.52-81.89,31.9-.32,1.28-2.06,8.9-1.1,9.35.82.39,8.45-12.59,10.44-14.76,10.94-11.95,25.6-20.4,42.08-20.88-1.95,2.79-6.8,4-9.51,6.15-33.85,26.9-17.28,79.31,24.25,85.36-26.11-11.11-38.05-45.93-21.08-69.93,22.87-32.34,57.29,4.87,84.7,3.62,17.37-.79,32.41-16.27,41.82-29.44,3.01-4.21,17.12-26.62,15.45-30.65ZM325.17,131.5c-1.78,1.65-25.84-13.62-26.43-17.55-.68-4.54,13.22-22.06,17.83-24.83.17,8.25.69,17.38,2.54,25.41.62,2.7,6.72,16.36,6.06,16.97Z"/>
  </g>
</svg>