<svg xmlns="http://www.w3.org/2000/svg" viewBox="0 0 360 500" fill="none">
  <g>
    <defs>
      <linearGradient gradientUnits="userSpaceOnUse" y2="425.85" x2="162.1" y1="13.17" x1="170.88" id="netanya-grad">
        <stop stop-color="#1d79b7" offset="0"/>
        <stop stop-color="#0f5d9d" offset="1"/>
      </linearGradient>
    </defs>
    <g>
      <path d="M341.53 4.85c-.5-.19-1.04-.11-1.57-.11h-51.44c-.38 0-.76 0-1.14.03-.86.05-1.28.52-1.33 1.36-.03.52-.03 1.04-.03 1.57v24.08c0 1.83-.2 2.03-2.05 2.03h-24.51c-1.87 0-1.98-.12-1.99-2.05V2.69c0-.91 0-1.49-.12-1.87V.01h-18.81v.81c-.07.19-.11.42-.11.7 0 .52-.01 1.04-.01 1.57v28.36c0 2.27-.09 2.36-2.3 2.36H210.9c-2.09 0-2.17-.08-2.17-2.15V5.16c0-.71.1-1.43-.21-2.11-.62-.82-1.54-.64-2.37-.64q-35.19-.015-70.38 0c-.38 0-.76 0-1.14.05-.48.07-.94.17-1.2.65-.27.69-.18 1.41-.18 2.11v26.5c0 2.01-.09 2.1-2.08 2.1h-25.35c-2.13 0-2.25-.12-2.25-2.26V2.93c0-.57.01-1.14-.04-1.71-.01-.14-.05-.26-.08-.37V.02H84.64v.74c-.06.15-.09.32-.1.53-.02.52-.02 1.04-.02 1.57v28.92c0 1.91-.12 2.03-2.01 2.03H58.15c-2.02 0-2.17-.15-2.18-2.2V6.97c0-1.97-.26-2.22-2.22-2.23-17.33-.01-34.66 0-51.99 0-.42 0-.85-.02-1.25.11H0v5.13l.12.02h.12c.47 9.28.96 18.57 1.42 27.86.62 12.6 1.18 25.21 1.85 37.82.12 2.27.02 4.55.44 6.8l.09 2.77c-.01.94-.07 1.88.13 2.8.02.14.05.27.09.41l.08 2.78c-.02.86-.07 1.72.12 2.57.02.12.05.24.08.36.13 7.57.68 15.13 1.04 22.69.1 2.02-.05 4.07.38 6.08.32 10.06.85 20.1 1.48 30.14l.03 1.43c-.02.85-.06 1.71.12 2.54.02.13.05.25.09.38.03.93.05 1.85.08 2.78-.02.86-.07 1.72.12 2.56.02.12.05.24.08.37-.02.19-.05.38-.04.56.62 12.98 1.22 25.97 1.9 38.95.11 2.12-.01 4.27.41 6.37l.09 2.77c-.02.98-.1 1.97.2 2.93v.02c.03.92.05 1.83.08 2.75-.02.99-.11 1.98.21 2.95-.02.23-.05.47-.04.7.33 7.19.63 14.38 1.04 21.56.12 2.17 0 4.35.42 6.5 0 .33-.03.66-.02.99.42 8.92.83 17.83 1.27 26.75.22 4.41.51 8.81.77 13.21l.06 2.29c-.02.85-.06 1.7.12 2.54q.03.195.09.39c.03.83.05 1.66.08 2.49-.02.69-.05 1.38.13 2.05.02.1.05.2.08.31.03.55.05 1.09.08 1.64-.04.51-.04 1.01.21 1.48.57 7.17 2.19 14.09 4.85 20.77.06.23.1.46.18.68 2.91 7.49 6.96 14.3 12.09 20.47 4.22 5.09 8.9 9.71 14.22 13.66.35.31.68.65 1.06.93 10.4 7.89 21.61 14.4 33.6 19.52 15.85 6.76 32.34 11.92 48 19.17.15.1.3.2.46.28 6.99 3.43 13.85 7.09 20.17 11.68 8.62 6.26 16.08 13.57 20.97 23.2.09.17.15.35.47.31 4.43-9.01 11.36-15.91 19.11-22.12 4.55-3.64 9.52-6.63 14.64-9.37 3.83-2.05 7.79-3.87 11.7-5.78.3.12.54-.06.8-.17 9.37-4.11 18.95-7.69 28.56-11.21 14.1-5.16 27.73-11.28 40.28-19.61 5.3-3.52 10.46-7.22 15.04-11.66.15-.11.32-.2.46-.32 6.68-6.17 12.32-13.16 16.58-21.21 2.28-4.32 4.26-8.78 5.47-13.54.7-1.55 1.01-3.22 1.39-4.86.57-2.43.86-4.91 1.22-7.38.32-2.18.6-4.35.8-6.54.04-.1.06-.21.08-.31.18-.67.15-1.35.13-2.03.02-.83.05-1.66.07-2.49.3-.96.23-1.95.21-2.93.03-1.01.05-2.01.08-3.02.32-.97.22-1.97.21-2.96.03-.92.05-1.83.08-2.75.31-.97.22-1.96.21-2.95l.08-2.75c.31-.97.23-1.96.21-2.95.03-.92.05-1.84.08-2.76.1-.78.16-1.34.13-1.75.36-4.76.57-9.53.68-14.31.31-2.33.35-4.67.33-7.01.31-.97.22-1.96.21-2.95l.09-2.78c.35-1.88.26-3.79.27-5.69.3-.96.22-1.95.21-2.94.03-.92.05-1.85.08-2.77.04-.12.06-.25.08-.37.18-.84.14-1.7.12-2.56.03-.93.05-1.85.08-2.78.04-.13.06-.26.09-.38.18-.84.14-1.69.12-2.54 0-.38.02-.77.02-1.15.39-7.28.79-14.57 1.16-21.85.24-4.87.42-9.74.63-14.62.27-4.69.55-9.37.79-14.06q.555-10.455 1.05-20.91c.26-5.45.47-10.91.7-16.36.18-2.93.38-5.85.53-8.78.36-6.95.73-13.9 1.05-20.86.26-5.48.46-10.97.69-16.46.04-.12.06-.25.08-.37.19-.84.14-1.69.12-2.55l.06-2.29c.07-.52.17-1.03.2-1.55.59-11.81 1.17-23.61 1.75-35.42.6-12.09 1.19-24.18 1.79-36.27h.12l.12-.01V4.87h-.48Z" fill="url(#netanya-grad)"/>
      <path d="M201.46 462.56c0-2.33.04-4.66-.01-6.98-.06-2.62-1.67-4.36-4.08-4.37-10.21-.02-20.42 0-30.63-.03-.82 0-1.04.31-1.14 1.05-.31 2.3-.66 4.6-1.06 6.89-.16.88-.06 1.27.99 1.23 2.11-.08 4.22-.02 6.71-.02-1.45 1.05-2.54 1.93-3.73 2.68-.9.56-1.23 1.21-1.22 2.3.06 5.89 0 11.78.05 17.67 0 .98-.23 1.36-1.25 1.27-1.04-.09-2.09.02-3.13-.03-.75-.04-1.07.16-1.17.97-.28 2.31-.64 4.61-1.02 6.9-.17.99.09 1.3 1.14 1.29 4.65-.05 9.31-.08 13.96 0 1.32.02 1.75-.24 1.73-1.67-.07-10.02-.02-20.04-.06-30.07 0-1.04.2-1.36 1.3-1.34 3.8.08 7.6.09 11.4 0 1.27-.03 1.56.31 1.55 1.56-.06 10.02-.02 20.04-.05 30.07 0 1.06.19 1.5 1.38 1.45 2.32-.1 4.66-.1 6.98 0 1.19.05 1.39-.38 1.38-1.45-.04-9.78-.02-19.57-.02-29.35Z" fill="#1a74b2"/>
      <path d="M118.01 451.2H87.95c-.49 0-1-.16-1.11.67-.37 2.79-.83 5.57-1.28 8.44h7.85c-1.53 1.11-2.69 2.02-3.91 2.81-.76.5-1.04 1.07-1.03 1.98.05 4.99.04 9.97.01 14.96 0 1.32.56 3-.23 3.86-.8.87-2.51.18-3.81.29-.09 0-.19.01-.28 0-.83-.12-1.15.2-1.25 1.07-.26 2.31-.56 4.62-.99 6.9-.2 1.05.15 1.18 1.05 1.17 4.65-.03 9.31-.07 13.96.02 1.38.03 1.84-.25 1.83-1.75-.08-9.97-.02-19.95-.07-29.92 0-1.13.31-1.42 1.42-1.4 3.75.07 7.5.08 11.25 0 1.22-.03 1.57.24 1.57 1.53-.06 10.07-.02 20.14-.06 30.2 0 1.08.28 1.38 1.35 1.34 2.37-.08 4.75-.07 7.12 0 1 .03 1.27-.26 1.27-1.26-.03-12.11-.01-24.22-.03-36.33 0-3.01-1.59-4.56-4.57-4.56Z" fill="#1a74b2"/>
      <path d="M338.18 451.18c-2.28.08-4.56.05-6.84.01-.72-.01-.95.22-1.04.95-.9 7.58-2.06 15.15-2.69 22.75-.27 3.26-1.51 5.24-4.31 6.59-.96.46-1.34.59-1.77-.6-3.3-9.18-6.67-18.34-10.02-27.51-.79-2.17-.79-2.2-3.14-2.16-1.41.02-3.2-.58-4.13.25-.78.7-.58 2.49-.81 3.79-.12.65-.19 1.32-.35 1.96-.48 1.8-.26 3.47.43 5.23 2.39 6.08 4.78 12.17 6.89 18.36.91 2.69 2.07 4.53 5.16 4.42.08 0 .15.09.42.27-3.47 1.79-6.85 3.49-10.4 4.8-.78.29-1 .58-.63 1.42 1.03 2.34 1.99 4.71 2.92 7.1.3.76.66.85 1.35.53 1.34-.61 2.72-1.12 4.06-1.72 7.64-3.42 15-7.31 21.51-12.65 1.28-1.05 1.97-2.19 2.15-3.9.49-4.76 1.17-9.51 1.82-14.26.65-4.8 1.35-9.58.68-14.45-.12-.87-.3-1.22-1.26-1.19Z" fill="#1a74b2"/>
      <path d="M37.38 473.83c0-6.08.02-12.16 0-18.24-.01-2.7-1.62-4.38-4.17-4.38-9.31-.02-18.62.01-27.93-.03-1 0-1.17.41-1.28 1.22-.29 2.21-.56 4.43-.99 6.61-.21 1.09-.03 1.35 1.1 1.34 7.08-.05 14.15-.03 21.23-.03q2.04 0 2.05 1.98c0 9.88.02 19.76-.02 29.64 0 1.09.24 1.47 1.4 1.43 2.47-.09 4.94-.08 7.41 0 1.03.03 1.25-.33 1.24-1.29-.04-6.08-.02-12.16-.02-18.24Z" fill="#1a74b2"/>
      <path d="M278.42 473.9c0-6.03.01-12.06 0-18.1 0-2.74-1.58-4.57-4.01-4.58-8.83-.04-17.67 0-26.5-.03-.82 0-1.02.32-1.11 1.06-.29 2.26-.62 4.51-1.04 6.75-.19 1.04-.03 1.37 1.13 1.36 6.6-.06 13.2 0 19.8-.06 1.26-.01 1.65.26 1.65 1.6-.06 9.97 0 19.95-.07 29.92 0 1.28.35 1.6 1.59 1.55 2.42-.1 4.85-.09 7.26 0 1.12.04 1.32-.34 1.31-1.37-.05-6.03-.02-12.06-.02-18.1Z" fill="#1a74b2"/>
      <path d="M144.52 473.92c0-6.08.01-12.15 0-18.23 0-2.48-1.6-4.39-3.87-4.46-3.65-.1-7.31-.03-10.96-.04-.52 0-.76.17-.84.7-.41 2.76-.85 5.52-1.31 8.42 2.15 0 4.09.04 6.03-.02.86-.02 1.24.12 1.23 1.13-.05 7.21-.04 14.43 0 21.64 0 1-.36 1.17-1.24 1.15-2.37-.05-4.75.01-7.12-.03-.77-.02-1.06.21-1.16.99-.29 2.3-.64 4.6-1.02 6.89-.16.95.13 1.22 1.09 1.21q8.97-.06 17.94 0c1.03 0 1.25-.32 1.24-1.29-.04-6.03-.02-12.06-.02-18.08Z" fill="#1a74b2"/>
      <path d="M79.85 473.91c0-6.08.02-12.16 0-18.24-.01-2.49-1.61-4.37-3.89-4.43-3.61-.09-7.22-.02-10.83-.04-.58 0-.86.17-.95.76-.38 2.49-.76 4.97-1.19 7.45-.14.8.17.95.89.94 1.76-.04 3.51.02 5.27-.03.73-.02.98.17.98.94-.03 7.31-.03 14.63 0 21.94 0 .82-.24 1.05-1.05 1.04-2.42-.05-4.84 0-7.27-.03-.74-.01-1.07.14-1.17.97-.27 2.31-.64 4.6-1.02 6.9-.16.93.07 1.23 1.06 1.22 5.98-.04 11.97-.05 17.95 0 1.02 0 1.26-.32 1.25-1.29-.04-6.03-.02-12.06-.02-18.09Z" fill="#1a74b2"/>
      <path d="M243.32 463.37c0-2.75.04-5.51-.01-8.26-.04-2.46-1.5-3.88-3.94-3.9-3.8-.02-7.6.03-11.4-.03-1.02-.02-1.27.38-1.38 1.27-.26 2.17-.54 4.33-.96 6.47-.21 1.09-.11 1.5 1.13 1.43 1.8-.11 3.61.04 5.41-.05 1.04-.05 1.37.21 1.35 1.31-.08 3.75 0 7.5-.05 11.26-.01.98.26 1.2 1.21 1.04 2.43-.41 4.87-.75 7.32-1.07.93-.12 1.39-.39 1.35-1.49-.1-2.66-.03-5.32-.03-7.98" fill="#1a74b2"/>
      <path d="M299.75 463.31c0-2.66.02-5.31 0-7.97-.02-2.72-1.43-4.13-4.12-4.14-3.75-.01-7.49.03-11.24-.03-.89-.01-1.24.25-1.36 1.14-.3 2.35-.63 4.69-1.06 7.02-.17.93.17 1.01.93 1 1.8-.04 3.61.06 5.4-.04 1.24-.07 1.69.22 1.65 1.58-.11 3.7-.03 7.4-.04 11.1 0 .62-.04 1.13.87.98 2.66-.43 5.34-.81 8.01-1.17.77-.1.99-.45.98-1.21-.05-2.75-.02-5.5-.02-8.25Z" fill="#1a74b2"/>
      <path d="M222.76 463.33c0-2.75.05-5.51-.02-8.26-.05-2.47-1.5-3.85-3.96-3.86-3.8-.02-7.6.02-11.4-.02-.8 0-1.19.16-1.3 1.03-.31 2.4-.68 4.79-1.09 7.17-.14.79.12.96.86.95 1.9-.04 3.8.05 5.7-.04 1.08-.05 1.45.21 1.43 1.37-.08 3.75-.02 7.5-.04 11.25 0 .69-.02 1.18.96 1.02 2.57-.43 5.16-.79 7.74-1.13.86-.11 1.18-.45 1.16-1.36-.07-2.71-.02-5.41-.03-8.12Z" fill="#1a74b2"/>
      <path d="M55.03 451.22c-3.98-.04-7.97 0-11.95-.03-.64 0-.89.15-.98.83-.37 2.72-.82 5.43-1.26 8.3 2.42 0 4.64.05 6.87-.02.98-.03 1.29.24 1.27 1.25-.06 3.79-.03 7.59-.02 11.38 0 .55-.17 1.18.82 1.02 2.67-.43 5.34-.8 8.01-1.18.65-.09.95-.31.95-1.07-.04-5.6 0-11.19-.03-16.79-.01-2.18-1.49-3.67-3.67-3.7Z" fill="#1a74b2"/>
      <path d="M12.34 481.72c0-3.42-.03-6.84.02-10.26.02-1.01-.1-1.42-1.29-1.22-2.43.41-4.89.66-7.34.9-.77.08-.91.41-.92 1.08-.1 6.7-.21 13.39-.36 20.09-.02.83.26 1.06 1.05 1.04 2.52-.04 5.04-.08 7.55.01 1.14.04 1.32-.38 1.31-1.39-.06-3.42-.02-6.84-.02-10.26Z" fill="#1a74b2"/>
    </g>
  </g>
</svg>

